<?xml version="1.0" encoding="utf-8"?>
<!-- Generator: Adobe Illustrator 15.0.2, SVG Export Plug-In . SVG Version: 6.00 Build 0)  -->
<!DOCTYPE svg PUBLIC "-//W3C//DTD SVG 1.1//EN" "http://www.w3.org/Graphics/SVG/1.1/DTD/svg11.dtd">
<svg version="1.1" id="Armor" xmlns="http://www.w3.org/2000/svg" xmlns:xlink="http://www.w3.org/1999/xlink" x="0px" y="0px"
	 width="612px" height="792px" viewBox="0 0 612 792" enable-background="new 0 0 612 792" xml:space="preserve">
<path fill="#FFFFFF" stroke="#000000" stroke-width="2" d="M457.21,263.879"/>
<g>
	<path fill-rule="evenodd" clip-rule="evenodd" fill="none" stroke="#000000" stroke-width="0.504" stroke-miterlimit="2.4142" d="
		M496.826,177.531c1.317,0,2.414-1.097,2.414-2.488c0-1.317-1.097-2.414-2.414-2.414c-1.315,0-2.412,1.097-2.412,2.414
		C494.414,176.434,495.511,177.531,496.826,177.531L496.826,177.531z"/>
	<path fill-rule="evenodd" clip-rule="evenodd" fill="none" stroke="#000000" stroke-width="0.504" stroke-miterlimit="2.4142" d="
		M486.041,177.531c1.315,0,2.415-1.097,2.415-2.488c0-1.317-1.1-2.414-2.415-2.414s-2.414,1.097-2.414,2.414
		C483.627,176.434,484.726,177.531,486.041,177.531L486.041,177.531z"/>
</g>
<g>
	<path fill-rule="evenodd" clip-rule="evenodd" fill="none" stroke="#000000" stroke-width="0.504" stroke-miterlimit="2.4142" d="
		M480.648,156.932c1.391,0,2.412-1.099,2.412-2.415c0-1.316-1.021-2.414-2.412-2.414c-1.317,0-2.414,1.098-2.414,2.414
		C478.234,155.833,479.331,156.932,480.648,156.932L480.648,156.932z"/>
	<path fill-rule="evenodd" clip-rule="evenodd" fill="none" stroke="#000000" stroke-width="0.504" stroke-miterlimit="2.4142" d="
		M502.223,156.932c1.388,0,2.412-1.099,2.412-2.415c0-1.316-1.024-2.414-2.412-2.414c-1.317,0-2.417,1.098-2.417,2.414
		C499.806,155.833,500.905,156.932,502.223,156.932L502.223,156.932z"/>
	<path fill-rule="evenodd" clip-rule="evenodd" fill="none" stroke="#000000" stroke-width="0.504" stroke-miterlimit="2.4142" d="
		M491.436,156.932c1.388,0,2.412-1.099,2.412-2.415c0-1.316-1.024-2.414-2.412-2.414c-1.317,0-2.417,1.098-2.417,2.414
		C489.019,155.833,490.118,156.932,491.436,156.932L491.436,156.932z"/>
</g>
<g>
	<path fill-rule="evenodd" clip-rule="evenodd" fill="none" stroke="#000000" stroke-width="0.504" stroke-miterlimit="2.4142" d="
		M496.831,136.37c1.313,0,2.412-1.097,2.412-2.414c0-1.391-1.1-2.415-2.412-2.415c-1.32,0-2.417,1.024-2.417,2.415
		C494.414,135.272,495.511,136.37,496.831,136.37L496.831,136.37z"/>
	<path fill-rule="evenodd" clip-rule="evenodd" fill="none" stroke="#000000" stroke-width="0.504" stroke-miterlimit="2.4142" d="
		M486.043,136.37c1.316,0,2.415-1.097,2.415-2.414c0-1.391-1.099-2.415-2.415-2.415c-1.317,0-2.416,1.024-2.416,2.415
		C483.627,135.272,484.726,136.37,486.043,136.37L486.043,136.37z"/>
</g>
<g>
	<path fill-rule="evenodd" clip-rule="evenodd" fill="none" stroke="#000000" stroke-width="0.504" stroke-miterlimit="2.4142" d="
		M480.647,115.807c1.392,0,2.487-1.098,2.487-2.415c0-1.391-1.096-2.415-2.487-2.415c-1.316,0-2.413,1.024-2.413,2.415
		C478.234,114.709,479.331,115.807,480.647,115.807L480.647,115.807z"/>
	<path fill-rule="evenodd" clip-rule="evenodd" fill="none" stroke="#000000" stroke-width="0.504" stroke-miterlimit="2.4142" d="
		M502.219,115.807c1.392,0,2.491-1.098,2.491-2.415c0-1.391-1.1-2.415-2.491-2.415c-1.316,0-2.413,1.024-2.413,2.415
		C499.806,114.709,500.902,115.807,502.219,115.807L502.219,115.807z"/>
	<path fill-rule="evenodd" clip-rule="evenodd" fill="none" stroke="#000000" stroke-width="0.504" stroke-miterlimit="2.4142" d="
		M491.435,115.807c1.389,0,2.488-1.098,2.488-2.415c0-1.391-1.1-2.415-2.488-2.415c-1.316,0-2.416,1.024-2.416,2.415
		C489.019,114.709,490.118,115.807,491.435,115.807L491.435,115.807z"/>
</g>
</svg>
