<?xml version="1.0" encoding="utf-8"?>
<!-- Generator: Adobe Illustrator 15.0.2, SVG Export Plug-In . SVG Version: 6.00 Build 0)  -->
<!DOCTYPE svg PUBLIC "-//W3C//DTD SVG 1.1//EN" "http://www.w3.org/Graphics/SVG/1.1/DTD/svg11.dtd">
<svg version="1.1" id="Armor" xmlns="http://www.w3.org/2000/svg" xmlns:xlink="http://www.w3.org/1999/xlink" x="0px" y="0px"
	 width="612px" height="792px" viewBox="0 0 612 792" enable-background="new 0 0 612 792" xml:space="preserve">
<path fill="#FFFFFF" stroke="#000000" stroke-width="2" d="M457.21,263.879"/>
<path fill-rule="evenodd" clip-rule="evenodd" fill="none" stroke="#000000" stroke-width="0.504" stroke-miterlimit="2.4142" d="
	M491.436,162.073c1.388,0,2.412-1.099,2.412-2.415c0-1.316-1.024-2.414-2.412-2.414c-1.317,0-2.417,1.098-2.417,2.414
	C489.019,160.974,490.118,162.073,491.436,162.073L491.436,162.073z"/>
<path fill-rule="evenodd" clip-rule="evenodd" fill="none" stroke="#000000" stroke-width="0.504" stroke-miterlimit="2.4142" d="
	M491.435,131.229c1.389,0,2.488-1.098,2.488-2.415c0-1.391-1.1-2.415-2.488-2.415c-1.316,0-2.416,1.024-2.416,2.415
	C489.019,130.131,490.118,131.229,491.435,131.229L491.435,131.229z"/>
</svg>
