<?xml version="1.0" encoding="utf-8"?>
<!-- Generator: Adobe Illustrator 15.0.2, SVG Export Plug-In . SVG Version: 6.00 Build 0)  -->
<!DOCTYPE svg PUBLIC "-//W3C//DTD SVG 1.1//EN" "http://www.w3.org/Graphics/SVG/1.1/DTD/svg11.dtd">
<svg version="1.1" id="Armor" xmlns="http://www.w3.org/2000/svg" xmlns:xlink="http://www.w3.org/1999/xlink" x="0px" y="0px"
	 width="612px" height="792px" viewBox="0 0 612 792" enable-background="new 0 0 612 792" xml:space="preserve">
<g>
	<g>
		<path fill="none" stroke="#000000" stroke-width="0.504" stroke-miterlimit="2.4142" d="M499.836,350.609
			c1.129,0,2.063-0.93,2.063-2.062c0-1.13-0.935-1.995-2.063-1.995s-1.996,0.865-1.996,1.995
			C497.84,349.679,498.707,350.609,499.836,350.609L499.836,350.609z"/>
	</g>
	<g>
		<path fill="none" stroke="#000000" stroke-width="0.504" stroke-miterlimit="2.4142" d="M482.633,350.609
			c1.131,0,2.063-0.93,2.063-2.062c0-1.13-0.933-1.995-2.063-1.995c-1.129,0-1.994,0.865-1.994,1.995
			C480.639,349.679,481.504,350.609,482.633,350.609L482.633,350.609z"/>
	</g>
</g>
<g>
	<g>
		<path fill="none" stroke="#000000" stroke-width="0.504" stroke-miterlimit="2.4142" d="M499.836,341.193
			c1.129,0,2.063-0.93,2.063-2.062c0-1.13-0.935-1.995-2.063-1.995s-1.996,0.865-1.996,1.995
			C497.84,340.263,498.707,341.193,499.836,341.193L499.836,341.193z"/>
	</g>
	<g>
		<path fill="none" stroke="#000000" stroke-width="0.504" stroke-miterlimit="2.4142" d="M482.633,341.193
			c1.131,0,2.063-0.93,2.063-2.062c0-1.13-0.933-1.995-2.063-1.995c-1.129,0-1.994,0.865-1.994,1.995
			C480.639,340.263,481.504,341.193,482.633,341.193L482.633,341.193z"/>
	</g>
</g>
<g>
	<g>
		<path fill="none" stroke="#000000" stroke-width="0.504" stroke-miterlimit="2.4142" d="M499.836,331.777
			c1.129,0,2.063-0.93,2.063-2.062c0-1.13-0.935-1.995-2.063-1.995s-1.996,0.865-1.996,1.995
			C497.84,330.847,498.707,331.777,499.836,331.777L499.836,331.777z"/>
	</g>
	<g>
		<path fill="none" stroke="#000000" stroke-width="0.504" stroke-miterlimit="2.4142" d="M482.633,331.777
			c1.131,0,2.063-0.93,2.063-2.062c0-1.13-0.933-1.995-2.063-1.995c-1.129,0-1.994,0.865-1.994,1.995
			C480.639,330.847,481.504,331.777,482.633,331.777L482.633,331.777z"/>
	</g>
</g>
<g>
	<g>
		<path fill="none" stroke="#000000" stroke-width="0.504" stroke-miterlimit="2.4142" d="M499.836,322.36
			c1.129,0,2.063-0.93,2.063-2.062c0-1.13-0.935-1.995-2.063-1.995s-1.996,0.865-1.996,1.995
			C497.84,321.43,498.707,322.36,499.836,322.36L499.836,322.36z"/>
	</g>
	<g>
		<path fill="none" stroke="#000000" stroke-width="0.504" stroke-miterlimit="2.4142" d="M482.633,322.36
			c1.131,0,2.063-0.93,2.063-2.062c0-1.13-0.933-1.995-2.063-1.995c-1.129,0-1.994,0.865-1.994,1.995
			C480.639,321.43,481.504,322.36,482.633,322.36L482.633,322.36z"/>
	</g>
</g>
<g>
	<g>
		<path fill="none" stroke="#000000" stroke-width="0.504" stroke-miterlimit="2.4142" d="M499.836,312.944
			c1.129,0,2.063-0.93,2.063-2.062c0-1.13-0.935-1.995-2.063-1.995s-1.996,0.865-1.996,1.995
			C497.84,312.014,498.707,312.944,499.836,312.944L499.836,312.944z"/>
	</g>
	<g>
		<path fill="none" stroke="#000000" stroke-width="0.504" stroke-miterlimit="2.4142" d="M482.633,312.944
			c1.131,0,2.063-0.93,2.063-2.062c0-1.13-0.933-1.995-2.063-1.995c-1.129,0-1.994,0.865-1.994,1.995
			C480.639,312.014,481.504,312.944,482.633,312.944L482.633,312.944z"/>
	</g>
</g>
<g>
	<g>
		<path fill="none" stroke="#000000" stroke-width="0.504" stroke-miterlimit="2.4142" d="M499.836,360.025
			c1.129,0,2.063-0.93,2.063-2.062c0-1.13-0.935-1.995-2.063-1.995s-1.996,0.865-1.996,1.995
			C497.84,359.095,498.707,360.025,499.836,360.025L499.836,360.025z"/>
	</g>
	<g>
		<path fill="none" stroke="#000000" stroke-width="0.504" stroke-miterlimit="2.4142" d="M482.633,360.025
			c1.131,0,2.063-0.93,2.063-2.062c0-1.13-0.933-1.995-2.063-1.995c-1.129,0-1.994,0.865-1.994,1.995
			C480.639,359.095,481.504,360.025,482.633,360.025L482.633,360.025z"/>
	</g>
</g>
<g>
	<g>
		<path fill="none" stroke="#000000" stroke-width="0.504" stroke-miterlimit="2.4142" d="M499.836,369.441
			c1.129,0,2.063-0.93,2.063-2.062c0-1.13-0.935-1.995-2.063-1.995s-1.996,0.865-1.996,1.995
			C497.84,368.511,498.707,369.441,499.836,369.441L499.836,369.441z"/>
	</g>
	<g>
		<path fill="none" stroke="#000000" stroke-width="0.504" stroke-miterlimit="2.4142" d="M482.633,369.441
			c1.131,0,2.063-0.93,2.063-2.062c0-1.13-0.933-1.995-2.063-1.995c-1.129,0-1.994,0.865-1.994,1.995
			C480.639,368.511,481.504,369.441,482.633,369.441L482.633,369.441z"/>
	</g>
</g>
</svg>
