<?xml version="1.0" encoding="UTF-8" standalone="no"?>
<!-- Generator: Adobe Illustrator 15.0.2, SVG Export Plug-In . SVG Version: 6.00 Build 0)  -->

<svg
   xmlns:dc="http://purl.org/dc/elements/1.1/"
   xmlns:cc="http://creativecommons.org/ns#"
   xmlns:rdf="http://www.w3.org/1999/02/22-rdf-syntax-ns#"
   xmlns:svg="http://www.w3.org/2000/svg"
   xmlns="http://www.w3.org/2000/svg"
   xmlns:sodipodi="http://sodipodi.sourceforge.net/DTD/sodipodi-0.dtd"
   xmlns:inkscape="http://www.inkscape.org/namespaces/inkscape"
   version="1.1"
   id="Armor"
   x="0px"
   y="0px"
   width="612px"
   height="792px"
   viewBox="0 0 612 792"
   enable-background="new 0 0 612 792"
   xml:space="preserve"
   inkscape:version="0.48.2 r9819"
   sodipodi:docname="Armor_CT_50_Humanoid.svg"><metadata
   id="metadata3540"><rdf:RDF><cc:Work
       rdf:about=""><dc:format>image/svg+xml</dc:format><dc:type
         rdf:resource="http://purl.org/dc/dcmitype/StillImage" /><dc:title></dc:title></cc:Work></rdf:RDF></metadata><defs
   id="defs3538">
	
	
	
</defs><sodipodi:namedview
   pagecolor="#ffffff"
   bordercolor="#666666"
   borderopacity="1"
   objecttolerance="10"
   gridtolerance="10"
   guidetolerance="10"
   inkscape:pageopacity="0"
   inkscape:pageshadow="2"
   inkscape:window-width="2486"
   inkscape:window-height="1418"
   id="namedview3536"
   showgrid="false"
   inkscape:zoom="4.7676768"
   inkscape:cx="570.89696"
   inkscape:cy="607.10355"
   inkscape:window-x="-8"
   inkscape:window-y="-8"
   inkscape:window-maximized="0"
   inkscape:current-layer="Armor" />
<path
   fill="#FFFFFF"
   stroke="#000000"
   stroke-width="2"
   d="M457.21,263.879"
   id="path3394" />
<g
   id="g3396">
	<path
   fill-rule="evenodd"
   clip-rule="evenodd"
   fill="none"
   stroke="#000000"
   stroke-width="0.504"
   stroke-miterlimit="2.4142"
   d="   M480.648,169.327c1.391,0,2.412-1.099,2.412-2.415c0-1.315-1.021-2.414-2.412-2.414c-1.317,0-2.414,1.099-2.414,2.414   C478.234,168.229,479.331,169.327,480.648,169.327L480.648,169.327z"
   id="path3398" />
	<path
   fill-rule="evenodd"
   clip-rule="evenodd"
   fill="none"
   stroke="#000000"
   stroke-width="0.504"
   stroke-miterlimit="2.4142"
   d="   M502.223,169.327c1.388,0,2.412-1.099,2.412-2.415c0-1.315-1.024-2.414-2.412-2.414c-1.317,0-2.417,1.099-2.417,2.414   C499.806,168.229,500.905,169.327,502.223,169.327L502.223,169.327z"
   id="path3400" />
	<path
   fill-rule="evenodd"
   clip-rule="evenodd"
   fill="none"
   stroke="#000000"
   stroke-width="0.504"
   stroke-miterlimit="2.4142"
   d="   M491.436,169.327c1.388,0,2.412-1.099,2.412-2.415c0-1.315-1.024-2.414-2.412-2.414c-1.317,0-2.417,1.099-2.417,2.414   C489.019,168.229,490.118,169.327,491.436,169.327L491.436,169.327z"
   id="path3402" />
</g>
<g
   id="g3404">
	<path
   fill-rule="evenodd"
   clip-rule="evenodd"
   fill="none"
   stroke="#000000"
   stroke-width="0.504"
   stroke-miterlimit="2.4142"
   d="   M480.648,186.037c1.391,0,2.412-1.099,2.412-2.415c0-1.315-1.021-2.414-2.412-2.414c-1.317,0-2.414,1.099-2.414,2.414   C478.234,184.938,479.331,186.037,480.648,186.037L480.648,186.037z"
   id="path3406" />
	<path
   fill-rule="evenodd"
   clip-rule="evenodd"
   fill="none"
   stroke="#000000"
   stroke-width="0.504"
   stroke-miterlimit="2.4142"
   d="   M502.223,186.037c1.388,0,2.412-1.099,2.412-2.415c0-1.315-1.024-2.414-2.412-2.414c-1.317,0-2.417,1.099-2.417,2.414   C499.806,184.938,500.905,186.037,502.223,186.037L502.223,186.037z"
   id="path3408" />
	<path
   fill-rule="evenodd"
   clip-rule="evenodd"
   fill="none"
   stroke="#000000"
   stroke-width="0.504"
   stroke-miterlimit="2.4142"
   d="   M491.436,186.037c1.388,0,2.412-1.099,2.412-2.415c0-1.315-1.024-2.414-2.412-2.414c-1.317,0-2.417,1.099-2.417,2.414   C489.019,184.938,490.118,186.037,491.436,186.037L491.436,186.037z"
   id="path3410" />
</g>
<g
   id="g3412">
	<path
   fill-rule="evenodd"
   clip-rule="evenodd"
   fill="none"
   stroke="#000000"
   stroke-width="0.504"
   stroke-miterlimit="2.4142"
   d="   M480.648,177.682c1.391,0,2.412-1.099,2.412-2.415s-1.021-2.414-2.412-2.414c-1.317,0-2.414,1.098-2.414,2.414   S479.331,177.682,480.648,177.682L480.648,177.682z"
   id="path3414" />
	<path
   fill-rule="evenodd"
   clip-rule="evenodd"
   fill="none"
   stroke="#000000"
   stroke-width="0.504"
   stroke-miterlimit="2.4142"
   d="   M502.223,177.682c1.388,0,2.412-1.099,2.412-2.415s-1.024-2.414-2.412-2.414c-1.317,0-2.417,1.098-2.417,2.414   S500.905,177.682,502.223,177.682L502.223,177.682z"
   id="path3416" />
	<path
   fill-rule="evenodd"
   clip-rule="evenodd"
   fill="none"
   stroke="#000000"
   stroke-width="0.504"
   stroke-miterlimit="2.4142"
   d="   M491.436,177.682c1.388,0,2.412-1.099,2.412-2.415s-1.024-2.414-2.412-2.414c-1.317,0-2.417,1.098-2.417,2.414   S490.118,177.682,491.436,177.682L491.436,177.682z"
   id="path3418" />
</g>
<g
   id="g3420">
	<path
   fill-rule="evenodd"
   clip-rule="evenodd"
   fill="none"
   stroke="#000000"
   stroke-width="0.504"
   stroke-miterlimit="2.4142"
   d="   M480.647,144.263c1.392,0,2.487-1.098,2.487-2.415c0-1.391-1.096-2.414-2.487-2.414c-1.316,0-2.413,1.023-2.413,2.414   C478.234,143.165,479.331,144.263,480.647,144.263L480.647,144.263z"
   id="path3422" />
	<path
   fill-rule="evenodd"
   clip-rule="evenodd"
   fill="none"
   stroke="#000000"
   stroke-width="0.504"
   stroke-miterlimit="2.4142"
   d="   M502.219,144.263c1.392,0,2.491-1.098,2.491-2.415c0-1.391-1.1-2.414-2.491-2.414c-1.316,0-2.413,1.023-2.413,2.414   C499.806,143.165,500.902,144.263,502.219,144.263L502.219,144.263z"
   id="path3424" />
	<path
   fill-rule="evenodd"
   clip-rule="evenodd"
   fill="none"
   stroke="#000000"
   stroke-width="0.504"
   stroke-miterlimit="2.4142"
   d="   M491.435,144.263c1.389,0,2.488-1.098,2.488-2.415c0-1.391-1.1-2.414-2.488-2.414c-1.316,0-2.416,1.023-2.416,2.414   C489.019,143.165,490.118,144.263,491.435,144.263L491.435,144.263z"
   id="path3426" />
</g>
<g
   id="g3428">
	<path
   fill-rule="evenodd"
   clip-rule="evenodd"
   fill="none"
   stroke="#000000"
   stroke-width="0.504"
   stroke-miterlimit="2.4142"
   d="   M480.647,135.908c1.392,0,2.487-1.098,2.487-2.415c0-1.391-1.096-2.414-2.487-2.414c-1.316,0-2.413,1.023-2.413,2.414   C478.234,134.811,479.331,135.908,480.647,135.908L480.647,135.908z"
   id="path3430" />
	<path
   fill-rule="evenodd"
   clip-rule="evenodd"
   fill="none"
   stroke="#000000"
   stroke-width="0.504"
   stroke-miterlimit="2.4142"
   d="   M502.219,135.908c1.392,0,2.491-1.098,2.491-2.415c0-1.391-1.1-2.414-2.491-2.414c-1.316,0-2.413,1.023-2.413,2.414   C499.806,134.811,500.902,135.908,502.219,135.908L502.219,135.908z"
   id="path3432" />
	<path
   fill-rule="evenodd"
   clip-rule="evenodd"
   fill="none"
   stroke="#000000"
   stroke-width="0.504"
   stroke-miterlimit="2.4142"
   d="   M491.435,135.908c1.389,0,2.488-1.098,2.488-2.415c0-1.391-1.1-2.414-2.488-2.414c-1.316,0-2.416,1.023-2.416,2.414   C489.019,134.811,490.118,135.908,491.435,135.908L491.435,135.908z"
   id="path3434" />
</g>
<g
   id="g3436">
	<path
   fill-rule="evenodd"
   clip-rule="evenodd"
   fill="none"
   stroke="#000000"
   stroke-width="0.504"
   stroke-miterlimit="2.4142"
   d="   M480.647,127.553c1.392,0,2.487-1.098,2.487-2.415c0-1.391-1.096-2.414-2.487-2.414c-1.316,0-2.413,1.023-2.413,2.414   C478.234,126.456,479.331,127.553,480.647,127.553L480.647,127.553z"
   id="path3438" />
	<path
   fill-rule="evenodd"
   clip-rule="evenodd"
   fill="none"
   stroke="#000000"
   stroke-width="0.504"
   stroke-miterlimit="2.4142"
   d="   M502.219,127.553c1.392,0,2.491-1.098,2.491-2.415c0-1.391-1.1-2.414-2.491-2.414c-1.316,0-2.413,1.023-2.413,2.414   C499.806,126.456,500.902,127.553,502.219,127.553L502.219,127.553z"
   id="path3440" />
	<path
   fill-rule="evenodd"
   clip-rule="evenodd"
   fill="none"
   stroke="#000000"
   stroke-width="0.504"
   stroke-miterlimit="2.4142"
   d="   M491.435,127.553c1.389,0,2.488-1.098,2.488-2.415c0-1.391-1.1-2.414-2.488-2.414c-1.316,0-2.416,1.023-2.416,2.414   C489.019,126.456,490.118,127.553,491.435,127.553L491.435,127.553z"
   id="path3442" />
</g>
<g
   id="g3444">
	<path
   fill-rule="evenodd"
   clip-rule="evenodd"
   fill="none"
   stroke="#000000"
   stroke-width="0.504"
   stroke-miterlimit="2.4142"
   d="   M480.647,152.618c1.392,0,2.487-1.098,2.487-2.415c0-1.391-1.096-2.414-2.487-2.414c-1.316,0-2.413,1.023-2.413,2.414   C478.234,151.52,479.331,152.618,480.647,152.618L480.647,152.618z"
   id="path3446" />
	<path
   fill-rule="evenodd"
   clip-rule="evenodd"
   fill="none"
   stroke="#000000"
   stroke-width="0.504"
   stroke-miterlimit="2.4142"
   d="   M502.219,152.618c1.392,0,2.491-1.098,2.491-2.415c0-1.391-1.1-2.414-2.491-2.414c-1.316,0-2.413,1.023-2.413,2.414   C499.806,151.52,500.902,152.618,502.219,152.618L502.219,152.618z"
   id="path3448" />
	<path
   fill-rule="evenodd"
   clip-rule="evenodd"
   fill="none"
   stroke="#000000"
   stroke-width="0.504"
   stroke-miterlimit="2.4142"
   d="   M491.435,152.618c1.389,0,2.488-1.098,2.488-2.415c0-1.391-1.1-2.414-2.488-2.414c-1.316,0-2.416,1.023-2.416,2.414   C489.019,151.52,490.118,152.618,491.435,152.618L491.435,152.618z"
   id="path3450" />
</g>
<g
   id="g3452">
	<path
   fill-rule="evenodd"
   clip-rule="evenodd"
   fill="none"
   stroke="#000000"
   stroke-width="0.504"
   stroke-miterlimit="2.4142"
   d="   M480.647,160.972c1.392,0,2.487-1.098,2.487-2.415c0-1.391-1.096-2.414-2.487-2.414c-1.316,0-2.413,1.023-2.413,2.414   C478.234,159.875,479.331,160.972,480.647,160.972L480.647,160.972z"
   id="path3454" />
	<path
   fill-rule="evenodd"
   clip-rule="evenodd"
   fill="none"
   stroke="#000000"
   stroke-width="0.504"
   stroke-miterlimit="2.4142"
   d="   M502.219,160.972c1.392,0,2.491-1.098,2.491-2.415c0-1.391-1.1-2.414-2.491-2.414c-1.316,0-2.413,1.023-2.413,2.414   C499.806,159.875,500.902,160.972,502.219,160.972L502.219,160.972z"
   id="path3456" />
	<path
   fill-rule="evenodd"
   clip-rule="evenodd"
   fill="none"
   stroke="#000000"
   stroke-width="0.504"
   stroke-miterlimit="2.4142"
   d="   M491.435,160.972c1.389,0,2.488-1.098,2.488-2.415c0-1.391-1.1-2.414-2.488-2.414c-1.316,0-2.416,1.023-2.416,2.414   C489.019,159.875,490.118,160.972,491.435,160.972L491.435,160.972z"
   id="path3458" />
</g>
<g
   id="g3460">
	<path
   fill-rule="evenodd"
   clip-rule="evenodd"
   fill="none"
   stroke="#000000"
   stroke-width="0.504"
   stroke-miterlimit="2.4142"
   d="   M496.826,123.376c1.317,0,2.414-1.098,2.414-2.414c0-1.317-1.097-2.415-2.414-2.415c-1.316,0-2.412,1.098-2.412,2.415   C494.414,122.278,495.51,123.376,496.826,123.376L496.826,123.376z"
   id="path3462" />
	<path
   fill-rule="evenodd"
   clip-rule="evenodd"
   fill="none"
   stroke="#000000"
   stroke-width="0.504"
   stroke-miterlimit="2.4142"
   d="   M486.039,123.376c1.32,0,2.417-1.098,2.417-2.414c0-1.317-1.097-2.415-2.417-2.415c-1.316,0-2.412,1.098-2.412,2.415   C483.627,122.278,484.723,123.376,486.039,123.376L486.039,123.376z"
   id="path3464" />
</g>
<g
   id="g3466">
	<path
   fill-rule="evenodd"
   clip-rule="evenodd"
   fill="none"
   stroke="#000000"
   stroke-width="0.504"
   stroke-miterlimit="2.4142"
   d="   M496.826,115.021c1.317,0,2.414-1.098,2.414-2.414c0-1.317-1.097-2.415-2.414-2.415c-1.316,0-2.412,1.098-2.412,2.415   C494.414,113.923,495.51,115.021,496.826,115.021L496.826,115.021z"
   id="path3468" />
	<path
   fill-rule="evenodd"
   clip-rule="evenodd"
   fill="none"
   stroke="#000000"
   stroke-width="0.504"
   stroke-miterlimit="2.4142"
   d="   M486.039,115.021c1.32,0,2.417-1.098,2.417-2.414c0-1.317-1.097-2.415-2.417-2.415c-1.316,0-2.412,1.098-2.412,2.415   C483.627,113.923,484.723,115.021,486.039,115.021L486.039,115.021z"
   id="path3470" />
</g>
<g
   id="g3472">
	<path
   fill-rule="evenodd"
   clip-rule="evenodd"
   fill="none"
   stroke="#000000"
   stroke-width="0.504"
   stroke-miterlimit="2.4142"
   d="   M496.826,190.214c1.317,0,2.414-1.098,2.414-2.415c0-1.316-1.097-2.414-2.414-2.414c-1.316,0-2.412,1.098-2.412,2.414   C494.414,189.116,495.51,190.214,496.826,190.214L496.826,190.214z"
   id="path3474" />
	<path
   fill-rule="evenodd"
   clip-rule="evenodd"
   fill="none"
   stroke="#000000"
   stroke-width="0.504"
   stroke-miterlimit="2.4142"
   d="   M486.039,190.214c1.32,0,2.417-1.098,2.417-2.415c0-1.316-1.097-2.414-2.417-2.414c-1.316,0-2.412,1.098-2.412,2.414   C483.627,189.116,484.723,190.214,486.039,190.214L486.039,190.214z"
   id="path3476" />
</g>
<g
   id="g3478">
	<path
   fill-rule="evenodd"
   clip-rule="evenodd"
   fill="none"
   stroke="#000000"
   stroke-width="0.504"
   stroke-miterlimit="2.4142"
   d="   M496.826,140.085c1.317,0,2.414-1.098,2.414-2.415c0-1.316-1.097-2.414-2.414-2.414c-1.316,0-2.412,1.098-2.412,2.414   C494.414,138.988,495.51,140.085,496.826,140.085L496.826,140.085z"
   id="path3480" />
	<path
   fill-rule="evenodd"
   clip-rule="evenodd"
   fill="none"
   stroke="#000000"
   stroke-width="0.504"
   stroke-miterlimit="2.4142"
   d="   M486.039,140.085c1.32,0,2.417-1.098,2.417-2.415c0-1.316-1.097-2.414-2.417-2.414c-1.316,0-2.412,1.098-2.412,2.414   C483.627,138.988,484.723,140.085,486.039,140.085L486.039,140.085z"
   id="path3482" />
</g>
<g
   id="g3484">
	<path
   fill-rule="evenodd"
   clip-rule="evenodd"
   fill="none"
   stroke="#000000"
   stroke-width="0.504"
   stroke-miterlimit="2.4142"
   d="   M496.826,131.73c1.317,0,2.414-1.098,2.414-2.415c0-1.316-1.097-2.414-2.414-2.414c-1.316,0-2.412,1.098-2.412,2.414   C494.414,130.633,495.51,131.73,496.826,131.73L496.826,131.73z"
   id="path3486" />
	<path
   fill-rule="evenodd"
   clip-rule="evenodd"
   fill="none"
   stroke="#000000"
   stroke-width="0.504"
   stroke-miterlimit="2.4142"
   d="   M486.039,131.73c1.32,0,2.417-1.098,2.417-2.415c0-1.316-1.097-2.414-2.417-2.414c-1.316,0-2.412,1.098-2.412,2.414   C483.627,130.633,484.723,131.73,486.039,131.73L486.039,131.73z"
   id="path3488" />
</g>
<g
   id="g3490">
	<path
   fill-rule="evenodd"
   clip-rule="evenodd"
   fill="none"
   stroke="#000000"
   stroke-width="0.504"
   stroke-miterlimit="2.4142"
   d="   M496.826,181.859c1.317,0,2.414-1.098,2.414-2.414c0-1.317-1.097-2.415-2.414-2.415c-1.316,0-2.412,1.098-2.412,2.415   C494.414,180.762,495.51,181.859,496.826,181.859L496.826,181.859z"
   id="path3492" />
	<path
   fill-rule="evenodd"
   clip-rule="evenodd"
   fill="none"
   stroke="#000000"
   stroke-width="0.504"
   stroke-miterlimit="2.4142"
   d="   M486.039,181.859c1.32,0,2.417-1.098,2.417-2.414c0-1.317-1.097-2.415-2.417-2.415c-1.316,0-2.412,1.098-2.412,2.415   C483.627,180.762,484.723,181.859,486.039,181.859L486.039,181.859z"
   id="path3494" />
</g>
<g
   id="g3496">
	<path
   fill-rule="evenodd"
   clip-rule="evenodd"
   fill="none"
   stroke="#000000"
   stroke-width="0.504"
   stroke-miterlimit="2.4142"
   d="   M496.826,173.504c1.317,0,2.414-1.098,2.414-2.414c0-1.317-1.097-2.415-2.414-2.415c-1.316,0-2.412,1.098-2.412,2.415   C494.414,172.407,495.51,173.504,496.826,173.504L496.826,173.504z"
   id="path3498" />
	<path
   fill-rule="evenodd"
   clip-rule="evenodd"
   fill="none"
   stroke="#000000"
   stroke-width="0.504"
   stroke-miterlimit="2.4142"
   d="   M486.039,173.504c1.32,0,2.417-1.098,2.417-2.414c0-1.317-1.097-2.415-2.417-2.415c-1.316,0-2.412,1.098-2.412,2.415   C483.627,172.407,484.723,173.504,486.039,173.504L486.039,173.504z"
   id="path3500" />
</g>
<g
   id="g3502">
	<path
   fill-rule="evenodd"
   clip-rule="evenodd"
   fill="none"
   stroke="#000000"
   stroke-width="0.504"
   stroke-miterlimit="2.4142"
   d="   M496.826,165.149c1.317,0,2.414-1.098,2.414-2.415c0-1.316-1.097-2.414-2.414-2.414c-1.316,0-2.412,1.098-2.412,2.414   C494.414,164.052,495.51,165.149,496.826,165.149L496.826,165.149z"
   id="path3504" />
	<path
   fill-rule="evenodd"
   clip-rule="evenodd"
   fill="none"
   stroke="#000000"
   stroke-width="0.504"
   stroke-miterlimit="2.4142"
   d="   M486.039,165.149c1.32,0,2.417-1.098,2.417-2.415c0-1.316-1.097-2.414-2.417-2.414c-1.316,0-2.412,1.098-2.412,2.414   C483.627,164.052,484.723,165.149,486.039,165.149L486.039,165.149z"
   id="path3506" />
</g>
<g
   id="g3508">
	<path
   fill-rule="evenodd"
   clip-rule="evenodd"
   fill="none"
   stroke="#000000"
   stroke-width="0.504"
   stroke-miterlimit="2.4142"
   d="   M496.826,156.795c1.317,0,2.414-1.098,2.414-2.415c0-1.316-1.097-2.414-2.414-2.414c-1.316,0-2.412,1.098-2.412,2.414   C494.414,155.697,495.51,156.795,496.826,156.795L496.826,156.795z"
   id="path3510" />
	<path
   fill-rule="evenodd"
   clip-rule="evenodd"
   fill="none"
   stroke="#000000"
   stroke-width="0.504"
   stroke-miterlimit="2.4142"
   d="   M486.039,156.795c1.32,0,2.417-1.098,2.417-2.415c0-1.316-1.097-2.414-2.417-2.414c-1.316,0-2.412,1.098-2.412,2.414   C483.627,155.697,484.723,156.795,486.039,156.795L486.039,156.795z"
   id="path3512" />
</g>
<g
   id="g3514">
	<path
   fill-rule="evenodd"
   clip-rule="evenodd"
   fill="none"
   stroke="#000000"
   stroke-width="0.504"
   stroke-miterlimit="2.4142"
   d="   M496.826,148.44c1.317,0,2.414-1.098,2.414-2.415c0-1.316-1.097-2.414-2.414-2.414c-1.316,0-2.412,1.098-2.412,2.414   C494.414,147.342,495.51,148.44,496.826,148.44L496.826,148.44z"
   id="path3516" />
	<path
   fill-rule="evenodd"
   clip-rule="evenodd"
   fill="none"
   stroke="#000000"
   stroke-width="0.504"
   stroke-miterlimit="2.4142"
   d="   M486.039,148.44c1.32,0,2.417-1.098,2.417-2.415c0-1.316-1.097-2.414-2.417-2.414c-1.316,0-2.412,1.098-2.412,2.414   C483.627,147.342,484.723,148.44,486.039,148.44L486.039,148.44z"
   id="path3518" />
</g>
<g
   id="g3520">
	<path
   fill-rule="evenodd"
   clip-rule="evenodd"
   fill="none"
   stroke="#000000"
   stroke-width="0.504"
   stroke-miterlimit="2.4142"
   d="   M480.647,119.198c1.392,0,2.487-1.098,2.487-2.415c0-1.391-1.096-2.414-2.487-2.414c-1.316,0-2.413,1.023-2.413,2.414   C478.234,118.101,479.331,119.198,480.647,119.198L480.647,119.198z"
   id="path3522" />
	<path
   fill-rule="evenodd"
   clip-rule="evenodd"
   fill="none"
   stroke="#000000"
   stroke-width="0.504"
   stroke-miterlimit="2.4142"
   d="   M502.219,119.198c1.392,0,2.491-1.098,2.491-2.415c0-1.391-1.1-2.414-2.491-2.414c-1.316,0-2.413,1.023-2.413,2.414   C499.806,118.101,500.902,119.198,502.219,119.198L502.219,119.198z"
   id="path3524" />
	<path
   fill-rule="evenodd"
   clip-rule="evenodd"
   fill="none"
   stroke="#000000"
   stroke-width="0.504"
   stroke-miterlimit="2.4142"
   d="   M491.435,119.198c1.389,0,2.488-1.098,2.488-2.415c0-1.391-1.1-2.414-2.488-2.414c-1.316,0-2.416,1.023-2.416,2.414   C489.019,118.101,490.118,119.198,491.435,119.198L491.435,119.198z"
   id="path3526" />
</g>
<path
   style="fill:none;stroke:#000000;stroke-width:0.50400001;stroke-miterlimit:2.41420007"
   inkscape:connector-curvature="0"
   id="path3530"
   d="m 480.647,110.844 c 1.392,0 2.487,-1.098 2.487,-2.415 0,-1.391 -1.096,-2.414 -2.487,-2.414 -1.316,0 -2.413,1.023 -2.413,2.414 0,1.317 1.097,2.415 2.413,2.415 l 0,0 z"
   stroke-miterlimit="2.4142"
   clip-rule="evenodd" /><path
   style="fill:none;stroke:#000000;stroke-width:0.50400001;stroke-miterlimit:2.41420007"
   inkscape:connector-curvature="0"
   id="path3532"
   d="m 502.219,110.844 c 1.392,0 2.491,-1.098 2.491,-2.415 0,-1.391 -1.1,-2.414 -2.491,-2.414 -1.316,0 -2.413,1.023 -2.413,2.414 0,1.317 1.096,2.415 2.413,2.415 l 0,0 z"
   stroke-miterlimit="2.4142"
   clip-rule="evenodd" />
</svg>