<?xml version="1.0" encoding="utf-8"?>
<!-- Generator: Adobe Illustrator 15.0.2, SVG Export Plug-In . SVG Version: 6.00 Build 0)  -->
<!DOCTYPE svg PUBLIC "-//W3C//DTD SVG 1.1//EN" "http://www.w3.org/Graphics/SVG/1.1/DTD/svg11.dtd">
<svg version="1.1" id="Armor" xmlns="http://www.w3.org/2000/svg" xmlns:xlink="http://www.w3.org/1999/xlink" x="0px" y="0px"
	 width="612px" height="792px" viewBox="0 0 612 792" enable-background="new 0 0 612 792" xml:space="preserve">
<path fill="#FFFFFF" stroke="#000000" stroke-width="2" d="M457.21,263.879"/>
<path fill-rule="evenodd" clip-rule="evenodd" fill="none" stroke="#000000" stroke-width="0.504" stroke-miterlimit="2.4142" d="
	M491.508,177.531c1.315,0,2.415-1.097,2.415-2.488c0-1.317-1.1-2.414-2.415-2.414s-2.414,1.097-2.414,2.414
	C489.094,176.434,490.192,177.531,491.508,177.531L491.508,177.531z"/>
<path fill-rule="evenodd" clip-rule="evenodd" fill="none" stroke="#000000" stroke-width="0.504" stroke-miterlimit="2.4142" d="
	M491.511,162.073c1.388,0,2.412-1.099,2.412-2.415c0-1.316-1.024-2.414-2.412-2.414c-1.317,0-2.417,1.098-2.417,2.414
	C489.094,160.974,490.193,162.073,491.511,162.073L491.511,162.073z"/>
<path fill-rule="evenodd" clip-rule="evenodd" fill="none" stroke="#000000" stroke-width="0.504" stroke-miterlimit="2.4142" d="
	M491.508,146.651c1.316,0,2.415-1.097,2.415-2.414c0-1.391-1.099-2.415-2.415-2.415c-1.317,0-2.416,1.024-2.416,2.415
	C489.092,145.554,490.19,146.651,491.508,146.651L491.508,146.651z"/>
<path fill-rule="evenodd" clip-rule="evenodd" fill="none" stroke="#000000" stroke-width="0.504" stroke-miterlimit="2.4142" d="
	M491.506,115.807c1.32,0,2.417-1.098,2.417-2.415s-1.097-2.415-2.417-2.415c-1.316,0-2.412,1.098-2.412,2.415
	S490.189,115.807,491.506,115.807L491.506,115.807z"/>
<path fill-rule="evenodd" clip-rule="evenodd" fill="none" stroke="#000000" stroke-width="0.504" stroke-miterlimit="2.4142" d="
	M491.435,131.229c1.389,0,2.488-1.098,2.488-2.415c0-1.391-1.1-2.415-2.488-2.415c-1.316,0-2.416,1.024-2.416,2.415
	C489.019,130.131,490.118,131.229,491.435,131.229L491.435,131.229z"/>
</svg>
