<?xml version="1.0" encoding="utf-8"?>
<!-- Generator: Adobe Illustrator 15.0.2, SVG Export Plug-In . SVG Version: 6.00 Build 0)  -->
<!DOCTYPE svg PUBLIC "-//W3C//DTD SVG 1.1//EN" "http://www.w3.org/Graphics/SVG/1.1/DTD/svg11.dtd">
<svg version="1.1" id="Armor" xmlns="http://www.w3.org/2000/svg" xmlns:xlink="http://www.w3.org/1999/xlink" x="0px" y="0px"
	 width="612px" height="792px" viewBox="0 0 612 792" enable-background="new 0 0 612 792" xml:space="preserve">
<path fill="#FFFFFF" stroke="#000000" stroke-width="2" d="M457.21,263.879"/>
<g>
	<path fill-rule="evenodd" clip-rule="evenodd" fill="none" stroke="#000000" stroke-width="0.504" stroke-miterlimit="2.4142" d="
		M496.826,177.531c1.317,0,2.414-1.097,2.414-2.488c0-1.317-1.097-2.414-2.414-2.414c-1.315,0-2.412,1.097-2.412,2.414
		C494.414,176.434,495.511,177.531,496.826,177.531L496.826,177.531z"/>
	<path fill-rule="evenodd" clip-rule="evenodd" fill="none" stroke="#000000" stroke-width="0.504" stroke-miterlimit="2.4142" d="
		M486.041,177.531c1.315,0,2.415-1.097,2.415-2.488c0-1.317-1.1-2.414-2.415-2.414s-2.414,1.097-2.414,2.414
		C483.627,176.434,484.726,177.531,486.041,177.531L486.041,177.531z"/>
</g>
<g>
	<path fill-rule="evenodd" clip-rule="evenodd" fill="none" stroke="#000000" stroke-width="0.504" stroke-miterlimit="2.4142" d="
		M496.831,146.651c1.313,0,2.412-1.097,2.412-2.414c0-1.391-1.1-2.415-2.412-2.415c-1.32,0-2.417,1.024-2.417,2.415
		C494.414,145.554,495.511,146.651,496.831,146.651L496.831,146.651z"/>
	<path fill-rule="evenodd" clip-rule="evenodd" fill="none" stroke="#000000" stroke-width="0.504" stroke-miterlimit="2.4142" d="
		M486.043,146.651c1.316,0,2.415-1.097,2.415-2.414c0-1.391-1.099-2.415-2.415-2.415c-1.317,0-2.416,1.024-2.416,2.415
		C483.627,145.554,484.726,146.651,486.043,146.651L486.043,146.651z"/>
</g>
<g>
	<path fill-rule="evenodd" clip-rule="evenodd" fill="none" stroke="#000000" stroke-width="0.504" stroke-miterlimit="2.4142" d="
		M496.826,115.807c1.317,0,2.414-1.098,2.414-2.415s-1.097-2.415-2.414-2.415c-1.316,0-2.412,1.098-2.412,2.415
		S495.51,115.807,496.826,115.807L496.826,115.807z"/>
	<path fill-rule="evenodd" clip-rule="evenodd" fill="none" stroke="#000000" stroke-width="0.504" stroke-miterlimit="2.4142" d="
		M486.039,115.807c1.32,0,2.417-1.098,2.417-2.415s-1.097-2.415-2.417-2.415c-1.316,0-2.412,1.098-2.412,2.415
		S484.723,115.807,486.039,115.807L486.039,115.807z"/>
</g>
</svg>
