<?xml version="1.0" encoding="utf-8"?>
<!-- Generator: Adobe Illustrator 15.0.2, SVG Export Plug-In . SVG Version: 6.00 Build 0)  -->
<!DOCTYPE svg PUBLIC "-//W3C//DTD SVG 1.1//EN" "http://www.w3.org/Graphics/SVG/1.1/DTD/svg11.dtd">
<svg version="1.1" id="Armor" xmlns="http://www.w3.org/2000/svg" xmlns:xlink="http://www.w3.org/1999/xlink" x="0px" y="0px"
	 width="612px" height="792px" viewBox="0 0 612 792" enable-background="new 0 0 612 792" xml:space="preserve">
<path fill="#FFFFFF" stroke="#000000" stroke-width="2" d="M457.21,263.879"/>
<g>
	<path fill-rule="evenodd" clip-rule="evenodd" fill="none" stroke="#000000" stroke-width="0.504" stroke-miterlimit="2.4142" d="
		M480.648,146.669c1.391,0,2.412-1.099,2.412-2.415c0-1.316-1.021-2.414-2.412-2.414c-1.317,0-2.414,1.098-2.414,2.414
		C478.234,145.57,479.331,146.669,480.648,146.669L480.648,146.669z"/>
	<path fill-rule="evenodd" clip-rule="evenodd" fill="none" stroke="#000000" stroke-width="0.504" stroke-miterlimit="2.4142" d="
		M502.223,146.669c1.388,0,2.412-1.099,2.412-2.415c0-1.316-1.024-2.414-2.412-2.414c-1.317,0-2.417,1.098-2.417,2.414
		C499.806,145.57,500.905,146.669,502.223,146.669L502.223,146.669z"/>
	<path fill-rule="evenodd" clip-rule="evenodd" fill="none" stroke="#000000" stroke-width="0.504" stroke-miterlimit="2.4142" d="
		M491.436,146.669c1.388,0,2.412-1.099,2.412-2.415c0-1.316-1.024-2.414-2.412-2.414c-1.317,0-2.417,1.098-2.417,2.414
		C489.019,145.57,490.118,146.669,491.436,146.669L491.436,146.669z"/>
</g>
<g>
	<path fill-rule="evenodd" clip-rule="evenodd" fill="none" stroke="#000000" stroke-width="0.504" stroke-miterlimit="2.4142" d="
		M480.648,177.531c1.391,0,2.412-1.099,2.412-2.415c0-1.316-1.021-2.414-2.412-2.414c-1.317,0-2.414,1.098-2.414,2.414
		C478.234,176.432,479.331,177.531,480.648,177.531L480.648,177.531z"/>
	<path fill-rule="evenodd" clip-rule="evenodd" fill="none" stroke="#000000" stroke-width="0.504" stroke-miterlimit="2.4142" d="
		M502.223,177.531c1.388,0,2.412-1.099,2.412-2.415c0-1.316-1.024-2.414-2.412-2.414c-1.317,0-2.417,1.098-2.417,2.414
		C499.806,176.432,500.905,177.531,502.223,177.531L502.223,177.531z"/>
	<path fill-rule="evenodd" clip-rule="evenodd" fill="none" stroke="#000000" stroke-width="0.504" stroke-miterlimit="2.4142" d="
		M491.436,177.531c1.388,0,2.412-1.099,2.412-2.415c0-1.316-1.024-2.414-2.412-2.414c-1.317,0-2.417,1.098-2.417,2.414
		C489.019,176.432,490.118,177.531,491.436,177.531L491.436,177.531z"/>
</g>
<g>
	<path fill-rule="evenodd" clip-rule="evenodd" fill="none" stroke="#000000" stroke-width="0.504" stroke-miterlimit="2.4142" d="
		M480.647,115.807c1.392,0,2.487-1.098,2.487-2.415c0-1.391-1.096-2.415-2.487-2.415c-1.316,0-2.413,1.024-2.413,2.415
		C478.234,114.709,479.331,115.807,480.647,115.807L480.647,115.807z"/>
	<path fill-rule="evenodd" clip-rule="evenodd" fill="none" stroke="#000000" stroke-width="0.504" stroke-miterlimit="2.4142" d="
		M502.219,115.807c1.392,0,2.491-1.098,2.491-2.415c0-1.391-1.1-2.415-2.491-2.415c-1.316,0-2.413,1.024-2.413,2.415
		C499.806,114.709,500.902,115.807,502.219,115.807L502.219,115.807z"/>
	<path fill-rule="evenodd" clip-rule="evenodd" fill="none" stroke="#000000" stroke-width="0.504" stroke-miterlimit="2.4142" d="
		M491.435,115.807c1.389,0,2.488-1.098,2.488-2.415c0-1.391-1.1-2.415-2.488-2.415c-1.316,0-2.416,1.024-2.416,2.415
		C489.019,114.709,490.118,115.807,491.435,115.807L491.435,115.807z"/>
</g>
</svg>
