<?xml version="1.0" encoding="utf-8"?>
<!-- Generator: Adobe Illustrator 15.0.2, SVG Export Plug-In . SVG Version: 6.00 Build 0)  -->
<!DOCTYPE svg PUBLIC "-//W3C//DTD SVG 1.1//EN" "http://www.w3.org/Graphics/SVG/1.1/DTD/svg11.dtd">
<svg version="1.1" id="Armor" xmlns="http://www.w3.org/2000/svg" xmlns:xlink="http://www.w3.org/1999/xlink" x="0px" y="0px"
	 width="612px" height="792px" viewBox="0 0 612 792" enable-background="new 0 0 612 792" xml:space="preserve">
<g>
	<g>
		<path fill="none" stroke="#000000" stroke-width="0.504" stroke-miterlimit="2.4142" d="M499.836,347.152
			c1.129,0,2.063-0.93,2.063-2.062c0-1.13-0.935-1.995-2.063-1.995s-1.996,0.865-1.996,1.995
			C497.84,346.222,498.707,347.152,499.836,347.152L499.836,347.152z"/>
	</g>
	<g>
		<path fill="none" stroke="#000000" stroke-width="0.504" stroke-miterlimit="2.4142" d="M482.633,347.152
			c1.131,0,2.063-0.93,2.063-2.062c0-1.13-0.933-1.995-2.063-1.995c-1.129,0-1.994,0.865-1.994,1.995
			C480.639,346.222,481.504,347.152,482.633,347.152L482.633,347.152z"/>
	</g>
</g>
<g>
	<g>
		<path fill="none" stroke="#000000" stroke-width="0.504" stroke-miterlimit="2.4142" d="M499.836,338.207
			c1.129,0,2.063-0.93,2.063-2.062c0-1.13-0.935-1.995-2.063-1.995s-1.996,0.865-1.996,1.995
			C497.84,337.277,498.707,338.207,499.836,338.207L499.836,338.207z"/>
	</g>
	<g>
		<path fill="none" stroke="#000000" stroke-width="0.504" stroke-miterlimit="2.4142" d="M482.633,338.207
			c1.131,0,2.063-0.93,2.063-2.062c0-1.13-0.933-1.995-2.063-1.995c-1.129,0-1.994,0.865-1.994,1.995
			C480.639,337.277,481.504,338.207,482.633,338.207L482.633,338.207z"/>
	</g>
</g>
<g>
	<g>
		<path fill="none" stroke="#000000" stroke-width="0.504" stroke-miterlimit="2.4142" d="M499.836,329.262
			c1.129,0,2.063-0.93,2.063-2.062c0-1.13-0.935-1.995-2.063-1.995s-1.996,0.865-1.996,1.995
			C497.84,328.332,498.707,329.262,499.836,329.262L499.836,329.262z"/>
	</g>
	<g>
		<path fill="none" stroke="#000000" stroke-width="0.504" stroke-miterlimit="2.4142" d="M482.633,329.262
			c1.131,0,2.063-0.93,2.063-2.062c0-1.13-0.933-1.995-2.063-1.995c-1.129,0-1.994,0.865-1.994,1.995
			C480.639,328.332,481.504,329.262,482.633,329.262L482.633,329.262z"/>
	</g>
</g>
<g>
	<g>
		<path fill="none" stroke="#000000" stroke-width="0.504" stroke-miterlimit="2.4142" d="M499.836,356.097
			c1.129,0,2.063-0.93,2.063-2.062c0-1.13-0.935-1.995-2.063-1.995s-1.996,0.865-1.996,1.995
			C497.84,355.167,498.707,356.097,499.836,356.097L499.836,356.097z"/>
	</g>
	<g>
		<path fill="none" stroke="#000000" stroke-width="0.504" stroke-miterlimit="2.4142" d="M482.633,356.097
			c1.131,0,2.063-0.93,2.063-2.062c0-1.13-0.933-1.995-2.063-1.995c-1.129,0-1.994,0.865-1.994,1.995
			C480.639,355.167,481.504,356.097,482.633,356.097L482.633,356.097z"/>
	</g>
</g>
<g>
	<g>
		<path fill="none" stroke="#000000" stroke-width="0.504" stroke-miterlimit="2.4142" d="M499.836,365.042
			c1.129,0,2.063-0.93,2.063-2.062c0-1.13-0.935-1.995-2.063-1.995s-1.996,0.865-1.996,1.995
			C497.84,364.112,498.707,365.042,499.836,365.042L499.836,365.042z"/>
	</g>
	<g>
		<path fill="none" stroke="#000000" stroke-width="0.504" stroke-miterlimit="2.4142" d="M482.633,365.042
			c1.131,0,2.063-0.93,2.063-2.062c0-1.13-0.933-1.995-2.063-1.995c-1.129,0-1.994,0.865-1.994,1.995
			C480.639,364.112,481.504,365.042,482.633,365.042L482.633,365.042z"/>
	</g>
</g>
<g>
	<g>
		<path fill="none" stroke="#000000" stroke-width="0.504" stroke-miterlimit="2.4142" d="M491.234,320.317
			c1.131,0,2.063-0.93,2.063-2.062c0-1.13-0.932-1.995-2.063-1.995c-1.129,0-1.994,0.865-1.994,1.995
			C489.24,319.387,490.105,320.317,491.234,320.317L491.234,320.317z"/>
	</g>
</g>
</svg>
