<?xml version="1.0" encoding="utf-8"?>
<!-- Generator: Adobe Illustrator 15.0.2, SVG Export Plug-In . SVG Version: 6.00 Build 0)  -->
<!DOCTYPE svg PUBLIC "-//W3C//DTD SVG 1.1//EN" "http://www.w3.org/Graphics/SVG/1.1/DTD/svg11.dtd">
<svg version="1.1" id="Armor" xmlns="http://www.w3.org/2000/svg" xmlns:xlink="http://www.w3.org/1999/xlink" x="0px" y="0px"
	 width="612px" height="792px" viewBox="0 0 612 792" enable-background="new 0 0 612 792" xml:space="preserve">
<path fill="#FFFFFF" stroke="#000000" stroke-width="2" d="M457.21,263.879"/>
<g>
	<path fill-rule="evenodd" clip-rule="evenodd" fill="none" stroke="#000000" stroke-width="0.504" stroke-miterlimit="2.4142" d="
		M480.648,167.244c1.391,0,2.412-1.099,2.412-2.415c0-1.316-1.021-2.414-2.412-2.414c-1.317,0-2.414,1.098-2.414,2.414
		C478.234,166.145,479.331,167.244,480.648,167.244L480.648,167.244z"/>
	<path fill-rule="evenodd" clip-rule="evenodd" fill="none" stroke="#000000" stroke-width="0.504" stroke-miterlimit="2.4142" d="
		M502.223,167.244c1.388,0,2.412-1.099,2.412-2.415c0-1.316-1.024-2.414-2.412-2.414c-1.317,0-2.417,1.098-2.417,2.414
		C499.806,166.145,500.905,167.244,502.223,167.244L502.223,167.244z"/>
	<path fill-rule="evenodd" clip-rule="evenodd" fill="none" stroke="#000000" stroke-width="0.504" stroke-miterlimit="2.4142" d="
		M491.436,167.244c1.388,0,2.412-1.099,2.412-2.415c0-1.316-1.024-2.414-2.412-2.414c-1.317,0-2.417,1.098-2.417,2.414
		C489.019,166.145,490.118,167.244,491.436,167.244L491.436,167.244z"/>
</g>
<g>
	<path fill-rule="evenodd" clip-rule="evenodd" fill="none" stroke="#000000" stroke-width="0.504" stroke-miterlimit="2.4142" d="
		M480.647,146.669c1.392,0,2.487-1.098,2.487-2.415c0-1.391-1.096-2.415-2.487-2.415c-1.316,0-2.413,1.024-2.413,2.415
		C478.234,145.571,479.331,146.669,480.647,146.669L480.647,146.669z"/>
	<path fill-rule="evenodd" clip-rule="evenodd" fill="none" stroke="#000000" stroke-width="0.504" stroke-miterlimit="2.4142" d="
		M502.219,146.669c1.392,0,2.491-1.098,2.491-2.415c0-1.391-1.1-2.415-2.491-2.415c-1.316,0-2.413,1.024-2.413,2.415
		C499.806,145.571,500.902,146.669,502.219,146.669L502.219,146.669z"/>
	<path fill-rule="evenodd" clip-rule="evenodd" fill="none" stroke="#000000" stroke-width="0.504" stroke-miterlimit="2.4142" d="
		M491.435,146.669c1.389,0,2.488-1.098,2.488-2.415c0-1.391-1.1-2.415-2.488-2.415c-1.316,0-2.416,1.024-2.416,2.415
		C489.019,145.571,490.118,146.669,491.435,146.669L491.435,146.669z"/>
</g>
<g>
	<path fill-rule="evenodd" clip-rule="evenodd" fill="none" stroke="#000000" stroke-width="0.504" stroke-miterlimit="2.4142" d="
		M480.647,126.094c1.392,0,2.487-1.098,2.487-2.415c0-1.391-1.096-2.415-2.487-2.415c-1.316,0-2.413,1.024-2.413,2.415
		C478.234,124.997,479.331,126.094,480.647,126.094L480.647,126.094z"/>
	<path fill-rule="evenodd" clip-rule="evenodd" fill="none" stroke="#000000" stroke-width="0.504" stroke-miterlimit="2.4142" d="
		M502.219,126.094c1.392,0,2.491-1.098,2.491-2.415c0-1.391-1.1-2.415-2.491-2.415c-1.316,0-2.413,1.024-2.413,2.415
		C499.806,124.997,500.902,126.094,502.219,126.094L502.219,126.094z"/>
	<path fill-rule="evenodd" clip-rule="evenodd" fill="none" stroke="#000000" stroke-width="0.504" stroke-miterlimit="2.4142" d="
		M491.435,126.094c1.389,0,2.488-1.098,2.488-2.415c0-1.391-1.1-2.415-2.488-2.415c-1.316,0-2.416,1.024-2.416,2.415
		C489.019,124.997,490.118,126.094,491.435,126.094L491.435,126.094z"/>
</g>
<g>
	<path fill-rule="evenodd" clip-rule="evenodd" fill="none" stroke="#000000" stroke-width="0.504" stroke-miterlimit="2.4142" d="
		M480.647,136.382c1.392,0,2.487-1.098,2.487-2.415c0-1.391-1.096-2.415-2.487-2.415c-1.316,0-2.413,1.024-2.413,2.415
		C478.234,135.284,479.331,136.382,480.647,136.382L480.647,136.382z"/>
	<path fill-rule="evenodd" clip-rule="evenodd" fill="none" stroke="#000000" stroke-width="0.504" stroke-miterlimit="2.4142" d="
		M502.219,136.382c1.392,0,2.491-1.098,2.491-2.415c0-1.391-1.1-2.415-2.491-2.415c-1.316,0-2.413,1.024-2.413,2.415
		C499.806,135.284,500.902,136.382,502.219,136.382L502.219,136.382z"/>
	<path fill-rule="evenodd" clip-rule="evenodd" fill="none" stroke="#000000" stroke-width="0.504" stroke-miterlimit="2.4142" d="
		M491.435,136.382c1.389,0,2.488-1.098,2.488-2.415c0-1.391-1.1-2.415-2.488-2.415c-1.316,0-2.416,1.024-2.416,2.415
		C489.019,135.284,490.118,136.382,491.435,136.382L491.435,136.382z"/>
</g>
<g>
	<path fill-rule="evenodd" clip-rule="evenodd" fill="none" stroke="#000000" stroke-width="0.504" stroke-miterlimit="2.4142" d="
		M496.826,115.807c1.317,0,2.414-1.098,2.414-2.415s-1.097-2.415-2.414-2.415c-1.316,0-2.412,1.098-2.412,2.415
		S495.51,115.807,496.826,115.807L496.826,115.807z"/>
	<path fill-rule="evenodd" clip-rule="evenodd" fill="none" stroke="#000000" stroke-width="0.504" stroke-miterlimit="2.4142" d="
		M486.039,115.807c1.32,0,2.417-1.098,2.417-2.415s-1.097-2.415-2.417-2.415c-1.316,0-2.412,1.098-2.412,2.415
		S484.723,115.807,486.039,115.807L486.039,115.807z"/>
</g>
<g>
	<path fill-rule="evenodd" clip-rule="evenodd" fill="none" stroke="#000000" stroke-width="0.504" stroke-miterlimit="2.4142" d="
		M496.826,177.531c1.317,0,2.414-1.098,2.414-2.415s-1.097-2.415-2.414-2.415c-1.316,0-2.412,1.098-2.412,2.415
		S495.51,177.531,496.826,177.531L496.826,177.531z"/>
	<path fill-rule="evenodd" clip-rule="evenodd" fill="none" stroke="#000000" stroke-width="0.504" stroke-miterlimit="2.4142" d="
		M486.039,177.531c1.32,0,2.417-1.098,2.417-2.415s-1.097-2.415-2.417-2.415c-1.316,0-2.412,1.098-2.412,2.415
		S484.723,177.531,486.039,177.531L486.039,177.531z"/>
</g>
<g>
	<path fill-rule="evenodd" clip-rule="evenodd" fill="none" stroke="#000000" stroke-width="0.504" stroke-miterlimit="2.4142" d="
		M480.647,156.956c1.392,0,2.487-1.098,2.487-2.415c0-1.391-1.096-2.415-2.487-2.415c-1.316,0-2.413,1.024-2.413,2.415
		C478.234,155.858,479.331,156.956,480.647,156.956L480.647,156.956z"/>
	<path fill-rule="evenodd" clip-rule="evenodd" fill="none" stroke="#000000" stroke-width="0.504" stroke-miterlimit="2.4142" d="
		M502.219,156.956c1.392,0,2.491-1.098,2.491-2.415c0-1.391-1.1-2.415-2.491-2.415c-1.316,0-2.413,1.024-2.413,2.415
		C499.806,155.858,500.902,156.956,502.219,156.956L502.219,156.956z"/>
	<path fill-rule="evenodd" clip-rule="evenodd" fill="none" stroke="#000000" stroke-width="0.504" stroke-miterlimit="2.4142" d="
		M491.435,156.956c1.389,0,2.488-1.098,2.488-2.415c0-1.391-1.1-2.415-2.488-2.415c-1.316,0-2.416,1.024-2.416,2.415
		C489.019,155.858,490.118,156.956,491.435,156.956L491.435,156.956z"/>
</g>
</svg>
