<?xml version="1.0" encoding="utf-8"?>
<!-- Generator: Adobe Illustrator 15.0.2, SVG Export Plug-In . SVG Version: 6.00 Build 0)  -->
<!DOCTYPE svg PUBLIC "-//W3C//DTD SVG 1.1//EN" "http://www.w3.org/Graphics/SVG/1.1/DTD/svg11.dtd">
<svg version="1.1" id="Armor" xmlns="http://www.w3.org/2000/svg" xmlns:xlink="http://www.w3.org/1999/xlink" x="0px" y="0px"
	 width="612px" height="792px" viewBox="0 0 612 792" enable-background="new 0 0 612 792" xml:space="preserve">
<path fill="#FFFFFF" stroke="#000000" stroke-width="2" d="M457.21,263.879"/>
<g>
	<g>
		<path fill-rule="evenodd" clip-rule="evenodd" fill="none" stroke="#000000" stroke-width="0.504" stroke-miterlimit="2.4142" d="
			M499.836,355.317c1.129,0,2.063-0.931,2.063-2.062c0-1.13-0.934-1.995-2.063-1.995s-1.996,0.865-1.996,1.995
			C497.84,354.387,498.707,355.317,499.836,355.317L499.836,355.317z"/>
	</g>
	<g>
		<path fill-rule="evenodd" clip-rule="evenodd" fill="none" stroke="#000000" stroke-width="0.504" stroke-miterlimit="2.4142" d="
			M482.633,355.317c1.131,0,2.063-0.931,2.063-2.062c0-1.13-0.932-1.995-2.063-1.995c-1.129,0-1.994,0.865-1.994,1.995
			C480.639,354.387,481.504,355.317,482.633,355.317L482.633,355.317z"/>
	</g>
</g>
<g>
	<g>
		<path fill-rule="evenodd" clip-rule="evenodd" fill="none" stroke="#000000" stroke-width="0.504" stroke-miterlimit="2.4142" d="
			M499.836,348.255c1.129,0,2.063-0.93,2.063-2.062c0-1.13-0.934-1.995-2.063-1.995s-1.996,0.865-1.996,1.995
			C497.84,347.325,498.707,348.255,499.836,348.255L499.836,348.255z"/>
	</g>
	<g>
		<path fill-rule="evenodd" clip-rule="evenodd" fill="none" stroke="#000000" stroke-width="0.504" stroke-miterlimit="2.4142" d="
			M482.633,348.255c1.131,0,2.063-0.93,2.063-2.062c0-1.13-0.932-1.995-2.063-1.995c-1.129,0-1.994,0.865-1.994,1.995
			C480.639,347.325,481.504,348.255,482.633,348.255L482.633,348.255z"/>
	</g>
</g>
<g>
	<g>
		<path fill-rule="evenodd" clip-rule="evenodd" fill="none" stroke="#000000" stroke-width="0.504" stroke-miterlimit="2.4142" d="
			M499.836,341.193c1.129,0,2.063-0.93,2.063-2.062c0-1.13-0.934-1.995-2.063-1.995s-1.996,0.865-1.996,1.995
			C497.84,340.263,498.707,341.193,499.836,341.193L499.836,341.193z"/>
	</g>
	<g>
		<path fill-rule="evenodd" clip-rule="evenodd" fill="none" stroke="#000000" stroke-width="0.504" stroke-miterlimit="2.4142" d="
			M482.633,341.193c1.131,0,2.063-0.93,2.063-2.062c0-1.13-0.932-1.995-2.063-1.995c-1.129,0-1.994,0.865-1.994,1.995
			C480.639,340.263,481.504,341.193,482.633,341.193L482.633,341.193z"/>
	</g>
</g>
<g>
	<g>
		<path fill-rule="evenodd" clip-rule="evenodd" fill="none" stroke="#000000" stroke-width="0.504" stroke-miterlimit="2.4142" d="
			M499.836,334.131c1.129,0,2.063-0.93,2.063-2.062c0-1.13-0.934-1.995-2.063-1.995s-1.996,0.865-1.996,1.995
			C497.84,333.201,498.707,334.131,499.836,334.131L499.836,334.131z"/>
	</g>
	<g>
		<path fill-rule="evenodd" clip-rule="evenodd" fill="none" stroke="#000000" stroke-width="0.504" stroke-miterlimit="2.4142" d="
			M482.633,334.131c1.131,0,2.063-0.93,2.063-2.062c0-1.13-0.932-1.995-2.063-1.995c-1.129,0-1.994,0.865-1.994,1.995
			C480.639,333.201,481.504,334.131,482.633,334.131L482.633,334.131z"/>
	</g>
</g>
<g>
	<g>
		<path fill-rule="evenodd" clip-rule="evenodd" fill="none" stroke="#000000" stroke-width="0.504" stroke-miterlimit="2.4142" d="
			M499.836,327.068c1.129,0,2.063-0.93,2.063-2.062c0-1.13-0.934-1.994-2.063-1.994s-1.996,0.864-1.996,1.994
			C497.84,326.139,498.707,327.068,499.836,327.068L499.836,327.068z"/>
	</g>
	<g>
		<path fill-rule="evenodd" clip-rule="evenodd" fill="none" stroke="#000000" stroke-width="0.504" stroke-miterlimit="2.4142" d="
			M482.633,327.068c1.131,0,2.063-0.93,2.063-2.062c0-1.13-0.932-1.994-2.063-1.994c-1.129,0-1.994,0.864-1.994,1.994
			C480.639,326.139,481.504,327.068,482.633,327.068L482.633,327.068z"/>
	</g>
</g>
<g>
	<g>
		<path fill-rule="evenodd" clip-rule="evenodd" fill="none" stroke="#000000" stroke-width="0.504" stroke-miterlimit="2.4142" d="
			M499.836,320.006c1.129,0,2.063-0.93,2.063-2.062c0-1.13-0.934-1.995-2.063-1.995s-1.996,0.865-1.996,1.995
			C497.84,319.076,498.707,320.006,499.836,320.006L499.836,320.006z"/>
	</g>
	<g>
		<path fill-rule="evenodd" clip-rule="evenodd" fill="none" stroke="#000000" stroke-width="0.504" stroke-miterlimit="2.4142" d="
			M482.633,320.006c1.131,0,2.063-0.93,2.063-2.062c0-1.13-0.932-1.995-2.063-1.995c-1.129,0-1.994,0.865-1.994,1.995
			C480.639,319.076,481.504,320.006,482.633,320.006L482.633,320.006z"/>
	</g>
</g>
<g>
	<g>
		<path fill-rule="evenodd" clip-rule="evenodd" fill="none" stroke="#000000" stroke-width="0.504" stroke-miterlimit="2.4142" d="
			M499.836,362.379c1.129,0,2.063-0.93,2.063-2.062c0-1.13-0.934-1.995-2.063-1.995s-1.996,0.865-1.996,1.995
			C497.84,361.449,498.707,362.379,499.836,362.379L499.836,362.379z"/>
	</g>
	<g>
		<path fill-rule="evenodd" clip-rule="evenodd" fill="none" stroke="#000000" stroke-width="0.504" stroke-miterlimit="2.4142" d="
			M482.633,362.379c1.131,0,2.063-0.93,2.063-2.062c0-1.13-0.932-1.995-2.063-1.995c-1.129,0-1.994,0.865-1.994,1.995
			C480.639,361.449,481.504,362.379,482.633,362.379L482.633,362.379z"/>
	</g>
</g>
<g>
	<g>
		<path fill-rule="evenodd" clip-rule="evenodd" fill="none" stroke="#000000" stroke-width="0.504" stroke-miterlimit="2.4142" d="
			M499.836,369.441c1.129,0,2.063-0.93,2.063-2.062c0-1.13-0.934-1.995-2.063-1.995s-1.996,0.865-1.996,1.995
			C497.84,368.511,498.707,369.441,499.836,369.441L499.836,369.441z"/>
	</g>
	<g>
		<path fill-rule="evenodd" clip-rule="evenodd" fill="none" stroke="#000000" stroke-width="0.504" stroke-miterlimit="2.4142" d="
			M482.633,369.441c1.131,0,2.063-0.93,2.063-2.062c0-1.13-0.932-1.995-2.063-1.995c-1.129,0-1.994,0.865-1.994,1.995
			C480.639,368.511,481.504,369.441,482.633,369.441L482.633,369.441z"/>
	</g>
</g>
<g>
	<g>
		<path fill-rule="evenodd" clip-rule="evenodd" fill="none" stroke="#000000" stroke-width="0.504" stroke-miterlimit="2.4142" d="
			M491.234,312.944c1.131,0,2.063-0.93,2.063-2.062c0-1.13-0.932-1.995-2.063-1.995c-1.129,0-1.994,0.865-1.994,1.995
			C489.24,312.014,490.105,312.944,491.234,312.944L491.234,312.944z"/>
	</g>
</g>
</svg>
