<?xml version="1.0" encoding="utf-8"?>
<!-- Generator: Adobe Illustrator 15.0.2, SVG Export Plug-In . SVG Version: 6.00 Build 0)  -->
<!DOCTYPE svg PUBLIC "-//W3C//DTD SVG 1.1//EN" "http://www.w3.org/Graphics/SVG/1.1/DTD/svg11.dtd">
<svg version="1.1" id="Armor" xmlns="http://www.w3.org/2000/svg" xmlns:xlink="http://www.w3.org/1999/xlink" x="0px" y="0px"
	 width="612px" height="792px" viewBox="0 0 612 792" enable-background="new 0 0 612 792" xml:space="preserve">
<path fill="#FFFFFF" stroke="#000000" stroke-width="2" d="M457.21,263.879"/>
<g>
	<path fill-rule="evenodd" clip-rule="evenodd" fill="none" stroke="#000000" stroke-width="0.504" stroke-miterlimit="2.4142" d="
		M480.648,165.411c1.391,0,2.412-1.099,2.412-2.415c0-1.315-1.021-2.414-2.412-2.414c-1.317,0-2.414,1.099-2.414,2.414
		C478.234,164.312,479.331,165.411,480.648,165.411L480.648,165.411z"/>
	<path fill-rule="evenodd" clip-rule="evenodd" fill="none" stroke="#000000" stroke-width="0.504" stroke-miterlimit="2.4142" d="
		M502.223,165.411c1.388,0,2.412-1.099,2.412-2.415c0-1.315-1.024-2.414-2.412-2.414c-1.317,0-2.417,1.099-2.417,2.414
		C499.806,164.312,500.905,165.411,502.223,165.411L502.223,165.411z"/>
	<path fill-rule="evenodd" clip-rule="evenodd" fill="none" stroke="#000000" stroke-width="0.504" stroke-miterlimit="2.4142" d="
		M491.436,165.411c1.388,0,2.412-1.099,2.412-2.415c0-1.315-1.024-2.414-2.412-2.414c-1.317,0-2.417,1.099-2.417,2.414
		C489.019,164.312,490.118,165.411,491.436,165.411L491.436,165.411z"/>
</g>
<g>
	<path fill-rule="evenodd" clip-rule="evenodd" fill="none" stroke="#000000" stroke-width="0.504" stroke-miterlimit="2.4142" d="
		M480.648,185.253c1.391,0,2.412-1.099,2.412-2.415c0-1.315-1.021-2.414-2.412-2.414c-1.317,0-2.414,1.099-2.414,2.414
		C478.234,184.155,479.331,185.253,480.648,185.253L480.648,185.253z"/>
	<path fill-rule="evenodd" clip-rule="evenodd" fill="none" stroke="#000000" stroke-width="0.504" stroke-miterlimit="2.4142" d="
		M502.223,185.253c1.388,0,2.412-1.099,2.412-2.415c0-1.315-1.024-2.414-2.412-2.414c-1.317,0-2.417,1.099-2.417,2.414
		C499.806,184.155,500.905,185.253,502.223,185.253L502.223,185.253z"/>
	<path fill-rule="evenodd" clip-rule="evenodd" fill="none" stroke="#000000" stroke-width="0.504" stroke-miterlimit="2.4142" d="
		M491.436,185.253c1.388,0,2.412-1.099,2.412-2.415c0-1.315-1.024-2.414-2.412-2.414c-1.317,0-2.417,1.099-2.417,2.414
		C489.019,184.155,490.118,185.253,491.436,185.253L491.436,185.253z"/>
</g>
<g>
	<path fill-rule="evenodd" clip-rule="evenodd" fill="none" stroke="#000000" stroke-width="0.504" stroke-miterlimit="2.4142" d="
		M480.648,175.332c1.391,0,2.412-1.099,2.412-2.415s-1.021-2.414-2.412-2.414c-1.317,0-2.414,1.098-2.414,2.414
		S479.331,175.332,480.648,175.332L480.648,175.332z"/>
	<path fill-rule="evenodd" clip-rule="evenodd" fill="none" stroke="#000000" stroke-width="0.504" stroke-miterlimit="2.4142" d="
		M502.223,175.332c1.388,0,2.412-1.099,2.412-2.415s-1.024-2.414-2.412-2.414c-1.317,0-2.417,1.098-2.417,2.414
		S500.905,175.332,502.223,175.332L502.223,175.332z"/>
	<path fill-rule="evenodd" clip-rule="evenodd" fill="none" stroke="#000000" stroke-width="0.504" stroke-miterlimit="2.4142" d="
		M491.436,175.332c1.388,0,2.412-1.099,2.412-2.415s-1.024-2.414-2.412-2.414c-1.317,0-2.417,1.098-2.417,2.414
		S490.118,175.332,491.436,175.332L491.436,175.332z"/>
</g>
<g>
	<path fill-rule="evenodd" clip-rule="evenodd" fill="none" stroke="#000000" stroke-width="0.504" stroke-miterlimit="2.4142" d="
		M480.647,135.647c1.392,0,2.487-1.098,2.487-2.415c0-1.391-1.096-2.414-2.487-2.414c-1.316,0-2.413,1.023-2.413,2.414
		C478.234,134.549,479.331,135.647,480.647,135.647L480.647,135.647z"/>
	<path fill-rule="evenodd" clip-rule="evenodd" fill="none" stroke="#000000" stroke-width="0.504" stroke-miterlimit="2.4142" d="
		M502.219,135.647c1.392,0,2.491-1.098,2.491-2.415c0-1.391-1.1-2.414-2.491-2.414c-1.316,0-2.413,1.023-2.413,2.414
		C499.806,134.549,500.902,135.647,502.219,135.647L502.219,135.647z"/>
	<path fill-rule="evenodd" clip-rule="evenodd" fill="none" stroke="#000000" stroke-width="0.504" stroke-miterlimit="2.4142" d="
		M491.435,135.647c1.389,0,2.488-1.098,2.488-2.415c0-1.391-1.1-2.414-2.488-2.414c-1.316,0-2.416,1.023-2.416,2.414
		C489.019,134.549,490.118,135.647,491.435,135.647L491.435,135.647z"/>
</g>
<g>
	<path fill-rule="evenodd" clip-rule="evenodd" fill="none" stroke="#000000" stroke-width="0.504" stroke-miterlimit="2.4142" d="
		M480.647,125.726c1.392,0,2.487-1.098,2.487-2.415c0-1.391-1.096-2.414-2.487-2.414c-1.316,0-2.413,1.023-2.413,2.414
		C478.234,124.628,479.331,125.726,480.647,125.726L480.647,125.726z"/>
	<path fill-rule="evenodd" clip-rule="evenodd" fill="none" stroke="#000000" stroke-width="0.504" stroke-miterlimit="2.4142" d="
		M502.219,125.726c1.392,0,2.491-1.098,2.491-2.415c0-1.391-1.1-2.414-2.491-2.414c-1.316,0-2.413,1.023-2.413,2.414
		C499.806,124.628,500.902,125.726,502.219,125.726L502.219,125.726z"/>
	<path fill-rule="evenodd" clip-rule="evenodd" fill="none" stroke="#000000" stroke-width="0.504" stroke-miterlimit="2.4142" d="
		M491.435,125.726c1.389,0,2.488-1.098,2.488-2.415c0-1.391-1.1-2.414-2.488-2.414c-1.316,0-2.416,1.023-2.416,2.414
		C489.019,124.628,490.118,125.726,491.435,125.726L491.435,125.726z"/>
</g>
<g>
	<path fill-rule="evenodd" clip-rule="evenodd" fill="none" stroke="#000000" stroke-width="0.504" stroke-miterlimit="2.4142" d="
		M480.647,115.804c1.392,0,2.487-1.098,2.487-2.415c0-1.391-1.096-2.414-2.487-2.414c-1.316,0-2.413,1.023-2.413,2.414
		C478.234,114.707,479.331,115.804,480.647,115.804L480.647,115.804z"/>
	<path fill-rule="evenodd" clip-rule="evenodd" fill="none" stroke="#000000" stroke-width="0.504" stroke-miterlimit="2.4142" d="
		M502.219,115.804c1.392,0,2.491-1.098,2.491-2.415c0-1.391-1.1-2.414-2.491-2.414c-1.316,0-2.413,1.023-2.413,2.414
		C499.806,114.707,500.902,115.804,502.219,115.804L502.219,115.804z"/>
	<path fill-rule="evenodd" clip-rule="evenodd" fill="none" stroke="#000000" stroke-width="0.504" stroke-miterlimit="2.4142" d="
		M491.435,115.804c1.389,0,2.488-1.098,2.488-2.415c0-1.391-1.1-2.414-2.488-2.414c-1.316,0-2.416,1.023-2.416,2.414
		C489.019,114.707,490.118,115.804,491.435,115.804L491.435,115.804z"/>
</g>
<g>
	<path fill-rule="evenodd" clip-rule="evenodd" fill="none" stroke="#000000" stroke-width="0.504" stroke-miterlimit="2.4142" d="
		M480.647,145.568c1.392,0,2.487-1.098,2.487-2.415c0-1.391-1.096-2.414-2.487-2.414c-1.316,0-2.413,1.023-2.413,2.414
		C478.234,144.471,479.331,145.568,480.647,145.568L480.647,145.568z"/>
	<path fill-rule="evenodd" clip-rule="evenodd" fill="none" stroke="#000000" stroke-width="0.504" stroke-miterlimit="2.4142" d="
		M502.219,145.568c1.392,0,2.491-1.098,2.491-2.415c0-1.391-1.1-2.414-2.491-2.414c-1.316,0-2.413,1.023-2.413,2.414
		C499.806,144.471,500.902,145.568,502.219,145.568L502.219,145.568z"/>
	<path fill-rule="evenodd" clip-rule="evenodd" fill="none" stroke="#000000" stroke-width="0.504" stroke-miterlimit="2.4142" d="
		M491.435,145.568c1.389,0,2.488-1.098,2.488-2.415c0-1.391-1.1-2.414-2.488-2.414c-1.316,0-2.416,1.023-2.416,2.414
		C489.019,144.471,490.118,145.568,491.435,145.568L491.435,145.568z"/>
</g>
<g>
	<path fill-rule="evenodd" clip-rule="evenodd" fill="none" stroke="#000000" stroke-width="0.504" stroke-miterlimit="2.4142" d="
		M480.647,155.489c1.392,0,2.487-1.098,2.487-2.415c0-1.391-1.096-2.414-2.487-2.414c-1.316,0-2.413,1.023-2.413,2.414
		C478.234,154.392,479.331,155.489,480.647,155.489L480.647,155.489z"/>
	<path fill-rule="evenodd" clip-rule="evenodd" fill="none" stroke="#000000" stroke-width="0.504" stroke-miterlimit="2.4142" d="
		M502.219,155.489c1.392,0,2.491-1.098,2.491-2.415c0-1.391-1.1-2.414-2.491-2.414c-1.316,0-2.413,1.023-2.413,2.414
		C499.806,154.392,500.902,155.489,502.219,155.489L502.219,155.489z"/>
	<path fill-rule="evenodd" clip-rule="evenodd" fill="none" stroke="#000000" stroke-width="0.504" stroke-miterlimit="2.4142" d="
		M491.435,155.489c1.389,0,2.488-1.098,2.488-2.415c0-1.391-1.1-2.414-2.488-2.414c-1.316,0-2.416,1.023-2.416,2.414
		C489.019,154.392,490.118,155.489,491.435,155.489L491.435,155.489z"/>
</g>
<g>
	<path fill-rule="evenodd" clip-rule="evenodd" fill="none" stroke="#000000" stroke-width="0.504" stroke-miterlimit="2.4142" d="
		M496.826,110.844c1.317,0,2.414-1.098,2.414-2.415s-1.097-2.415-2.414-2.415c-1.316,0-2.412,1.098-2.412,2.415
		S495.51,110.844,496.826,110.844L496.826,110.844z"/>
	<path fill-rule="evenodd" clip-rule="evenodd" fill="none" stroke="#000000" stroke-width="0.504" stroke-miterlimit="2.4142" d="
		M486.039,110.844c1.32,0,2.417-1.098,2.417-2.415s-1.097-2.415-2.417-2.415c-1.316,0-2.412,1.098-2.412,2.415
		S484.723,110.844,486.039,110.844L486.039,110.844z"/>
</g>
<g>
	<path fill-rule="evenodd" clip-rule="evenodd" fill="none" stroke="#000000" stroke-width="0.504" stroke-miterlimit="2.4142" d="
		M496.826,190.214c1.317,0,2.414-1.098,2.414-2.415s-1.097-2.415-2.414-2.415c-1.316,0-2.412,1.098-2.412,2.415
		S495.51,190.214,496.826,190.214L496.826,190.214z"/>
	<path fill-rule="evenodd" clip-rule="evenodd" fill="none" stroke="#000000" stroke-width="0.504" stroke-miterlimit="2.4142" d="
		M486.039,190.214c1.32,0,2.417-1.098,2.417-2.415s-1.097-2.415-2.417-2.415c-1.316,0-2.412,1.098-2.412,2.415
		S484.723,190.214,486.039,190.214L486.039,190.214z"/>
</g>
<g>
	<path fill-rule="evenodd" clip-rule="evenodd" fill="none" stroke="#000000" stroke-width="0.504" stroke-miterlimit="2.4142" d="
		M496.826,130.687c1.317,0,2.414-1.098,2.414-2.415c0-1.316-1.097-2.414-2.414-2.414c-1.316,0-2.412,1.098-2.412,2.414
		C494.414,129.589,495.51,130.687,496.826,130.687L496.826,130.687z"/>
	<path fill-rule="evenodd" clip-rule="evenodd" fill="none" stroke="#000000" stroke-width="0.504" stroke-miterlimit="2.4142" d="
		M486.039,130.687c1.32,0,2.417-1.098,2.417-2.415c0-1.316-1.097-2.414-2.417-2.414c-1.316,0-2.412,1.098-2.412,2.414
		C483.627,129.589,484.723,130.687,486.039,130.687L486.039,130.687z"/>
</g>
<g>
	<path fill-rule="evenodd" clip-rule="evenodd" fill="none" stroke="#000000" stroke-width="0.504" stroke-miterlimit="2.4142" d="
		M496.826,120.765c1.317,0,2.414-1.098,2.414-2.415s-1.097-2.415-2.414-2.415c-1.316,0-2.412,1.098-2.412,2.415
		S495.51,120.765,496.826,120.765L496.826,120.765z"/>
	<path fill-rule="evenodd" clip-rule="evenodd" fill="none" stroke="#000000" stroke-width="0.504" stroke-miterlimit="2.4142" d="
		M486.039,120.765c1.32,0,2.417-1.098,2.417-2.415s-1.097-2.415-2.417-2.415c-1.316,0-2.412,1.098-2.412,2.415
		S484.723,120.765,486.039,120.765L486.039,120.765z"/>
</g>
<g>
	<path fill-rule="evenodd" clip-rule="evenodd" fill="none" stroke="#000000" stroke-width="0.504" stroke-miterlimit="2.4142" d="
		M496.826,180.292c1.317,0,2.414-1.098,2.414-2.414c0-1.317-1.097-2.415-2.414-2.415c-1.316,0-2.412,1.098-2.412,2.415
		C494.414,179.195,495.51,180.292,496.826,180.292L496.826,180.292z"/>
	<path fill-rule="evenodd" clip-rule="evenodd" fill="none" stroke="#000000" stroke-width="0.504" stroke-miterlimit="2.4142" d="
		M486.039,180.292c1.32,0,2.417-1.098,2.417-2.414c0-1.317-1.097-2.415-2.417-2.415c-1.316,0-2.412,1.098-2.412,2.415
		C483.627,179.195,484.723,180.292,486.039,180.292L486.039,180.292z"/>
</g>
<g>
	<path fill-rule="evenodd" clip-rule="evenodd" fill="none" stroke="#000000" stroke-width="0.504" stroke-miterlimit="2.4142" d="
		M496.826,170.371c1.317,0,2.414-1.098,2.414-2.414c0-1.317-1.097-2.415-2.414-2.415c-1.316,0-2.412,1.098-2.412,2.415
		C494.414,169.273,495.51,170.371,496.826,170.371L496.826,170.371z"/>
	<path fill-rule="evenodd" clip-rule="evenodd" fill="none" stroke="#000000" stroke-width="0.504" stroke-miterlimit="2.4142" d="
		M486.039,170.371c1.32,0,2.417-1.098,2.417-2.414c0-1.317-1.097-2.415-2.417-2.415c-1.316,0-2.412,1.098-2.412,2.415
		C483.627,169.273,484.723,170.371,486.039,170.371L486.039,170.371z"/>
</g>
<g>
	<path fill-rule="evenodd" clip-rule="evenodd" fill="none" stroke="#000000" stroke-width="0.504" stroke-miterlimit="2.4142" d="
		M496.826,160.45c1.317,0,2.414-1.098,2.414-2.415c0-1.316-1.097-2.414-2.414-2.414c-1.316,0-2.412,1.098-2.412,2.414
		C494.414,159.353,495.51,160.45,496.826,160.45L496.826,160.45z"/>
	<path fill-rule="evenodd" clip-rule="evenodd" fill="none" stroke="#000000" stroke-width="0.504" stroke-miterlimit="2.4142" d="
		M486.039,160.45c1.32,0,2.417-1.098,2.417-2.415c0-1.316-1.097-2.414-2.417-2.414c-1.316,0-2.412,1.098-2.412,2.414
		C483.627,159.353,484.723,160.45,486.039,160.45L486.039,160.45z"/>
</g>
<g>
	<path fill-rule="evenodd" clip-rule="evenodd" fill="none" stroke="#000000" stroke-width="0.504" stroke-miterlimit="2.4142" d="
		M496.826,150.529c1.317,0,2.414-1.098,2.414-2.415c0-1.316-1.097-2.414-2.414-2.414c-1.316,0-2.412,1.098-2.412,2.414
		C494.414,149.431,495.51,150.529,496.826,150.529L496.826,150.529z"/>
	<path fill-rule="evenodd" clip-rule="evenodd" fill="none" stroke="#000000" stroke-width="0.504" stroke-miterlimit="2.4142" d="
		M486.039,150.529c1.32,0,2.417-1.098,2.417-2.415c0-1.316-1.097-2.414-2.417-2.414c-1.316,0-2.412,1.098-2.412,2.414
		C483.627,149.431,484.723,150.529,486.039,150.529L486.039,150.529z"/>
</g>
<g>
	<path fill-rule="evenodd" clip-rule="evenodd" fill="none" stroke="#000000" stroke-width="0.504" stroke-miterlimit="2.4142" d="
		M496.826,140.607c1.317,0,2.414-1.098,2.414-2.415c0-1.316-1.097-2.414-2.414-2.414c-1.316,0-2.412,1.098-2.412,2.414
		C494.414,139.51,495.51,140.607,496.826,140.607L496.826,140.607z"/>
	<path fill-rule="evenodd" clip-rule="evenodd" fill="none" stroke="#000000" stroke-width="0.504" stroke-miterlimit="2.4142" d="
		M486.039,140.607c1.32,0,2.417-1.098,2.417-2.415c0-1.316-1.097-2.414-2.417-2.414c-1.316,0-2.412,1.098-2.412,2.414
		C483.627,139.51,484.723,140.607,486.039,140.607L486.039,140.607z"/>
</g>
</svg>
