<?xml version="1.0" encoding="utf-8"?>
<!-- Generator: Adobe Illustrator 15.0.2, SVG Export Plug-In . SVG Version: 6.00 Build 0)  -->
<!DOCTYPE svg PUBLIC "-//W3C//DTD SVG 1.1//EN" "http://www.w3.org/Graphics/SVG/1.1/DTD/svg11.dtd">
<svg version="1.1" id="Armor" xmlns="http://www.w3.org/2000/svg" xmlns:xlink="http://www.w3.org/1999/xlink" x="0px" y="0px"
	 width="612px" height="792px" viewBox="0 0 612 792" enable-background="new 0 0 612 792" xml:space="preserve">
<path fill="#FFFFFF" stroke="#000000" stroke-width="2" d="M457.21,263.879"/>
<g>
	<path fill-rule="evenodd" clip-rule="evenodd" fill="none" stroke="#000000" stroke-width="0.504" stroke-miterlimit="2.4142" d="
		M480.648,161.203c1.391,0,2.412-1.099,2.412-2.415c0-1.315-1.021-2.414-2.412-2.414c-1.317,0-2.414,1.099-2.414,2.414
		C478.234,160.104,479.331,161.203,480.648,161.203L480.648,161.203z"/>
	<path fill-rule="evenodd" clip-rule="evenodd" fill="none" stroke="#000000" stroke-width="0.504" stroke-miterlimit="2.4142" d="
		M502.223,161.203c1.388,0,2.412-1.099,2.412-2.415c0-1.315-1.024-2.414-2.412-2.414c-1.317,0-2.417,1.099-2.417,2.414
		C499.806,160.104,500.905,161.203,502.223,161.203L502.223,161.203z"/>
	<path fill-rule="evenodd" clip-rule="evenodd" fill="none" stroke="#000000" stroke-width="0.504" stroke-miterlimit="2.4142" d="
		M491.436,161.203c1.388,0,2.412-1.099,2.412-2.415c0-1.315-1.024-2.414-2.412-2.414c-1.317,0-2.417,1.099-2.417,2.414
		C489.019,160.104,490.118,161.203,491.436,161.203L491.436,161.203z"/>
</g>
<g>
	<path fill-rule="evenodd" clip-rule="evenodd" fill="none" stroke="#000000" stroke-width="0.504" stroke-miterlimit="2.4142" d="
		M480.648,169.456c1.391,0,2.412-1.099,2.412-2.415c0-1.316-1.021-2.414-2.412-2.414c-1.317,0-2.414,1.098-2.414,2.414
		C478.234,168.357,479.331,169.456,480.648,169.456L480.648,169.456z"/>
	<path fill-rule="evenodd" clip-rule="evenodd" fill="none" stroke="#000000" stroke-width="0.504" stroke-miterlimit="2.4142" d="
		M502.223,169.456c1.388,0,2.412-1.099,2.412-2.415c0-1.316-1.024-2.414-2.412-2.414c-1.317,0-2.417,1.098-2.417,2.414
		C499.806,168.357,500.905,169.456,502.223,169.456L502.223,169.456z"/>
	<path fill-rule="evenodd" clip-rule="evenodd" fill="none" stroke="#000000" stroke-width="0.504" stroke-miterlimit="2.4142" d="
		M491.436,169.456c1.388,0,2.412-1.099,2.412-2.415c0-1.316-1.024-2.414-2.412-2.414c-1.317,0-2.417,1.098-2.417,2.414
		C489.019,168.357,490.118,169.456,491.436,169.456L491.436,169.456z"/>
</g>
<g>
	<path fill-rule="evenodd" clip-rule="evenodd" fill="none" stroke="#000000" stroke-width="0.504" stroke-miterlimit="2.4142" d="
		M480.648,177.709c1.391,0,2.412-1.099,2.412-2.415c0-1.316-1.021-2.414-2.412-2.414c-1.317,0-2.414,1.098-2.414,2.414
		C478.234,176.61,479.331,177.709,480.648,177.709L480.648,177.709z"/>
	<path fill-rule="evenodd" clip-rule="evenodd" fill="none" stroke="#000000" stroke-width="0.504" stroke-miterlimit="2.4142" d="
		M502.223,177.709c1.388,0,2.412-1.099,2.412-2.415c0-1.316-1.024-2.414-2.412-2.414c-1.317,0-2.417,1.098-2.417,2.414
		C499.806,176.61,500.905,177.709,502.223,177.709L502.223,177.709z"/>
	<path fill-rule="evenodd" clip-rule="evenodd" fill="none" stroke="#000000" stroke-width="0.504" stroke-miterlimit="2.4142" d="
		M491.436,177.709c1.388,0,2.412-1.099,2.412-2.415c0-1.316-1.024-2.414-2.412-2.414c-1.317,0-2.417,1.098-2.417,2.414
		C489.019,176.61,490.118,177.709,491.436,177.709L491.436,177.709z"/>
</g>
<g>
	<path fill-rule="evenodd" clip-rule="evenodd" fill="none" stroke="#000000" stroke-width="0.504" stroke-miterlimit="2.4142" d="
		M480.647,144.696c1.392,0,2.487-1.098,2.487-2.415c0-1.391-1.096-2.415-2.487-2.415c-1.316,0-2.413,1.024-2.413,2.415
		C478.234,143.599,479.331,144.696,480.647,144.696L480.647,144.696z"/>
	<path fill-rule="evenodd" clip-rule="evenodd" fill="none" stroke="#000000" stroke-width="0.504" stroke-miterlimit="2.4142" d="
		M502.219,144.696c1.392,0,2.491-1.098,2.491-2.415c0-1.391-1.1-2.415-2.491-2.415c-1.316,0-2.413,1.024-2.413,2.415
		C499.806,143.599,500.902,144.696,502.219,144.696L502.219,144.696z"/>
	<path fill-rule="evenodd" clip-rule="evenodd" fill="none" stroke="#000000" stroke-width="0.504" stroke-miterlimit="2.4142" d="
		M491.435,144.696c1.389,0,2.488-1.098,2.488-2.415c0-1.391-1.1-2.415-2.488-2.415c-1.316,0-2.416,1.024-2.416,2.415
		C489.019,143.599,490.118,144.696,491.435,144.696L491.435,144.696z"/>
</g>
<g>
	<path fill-rule="evenodd" clip-rule="evenodd" fill="none" stroke="#000000" stroke-width="0.504" stroke-miterlimit="2.4142" d="
		M480.647,119.937c1.392,0,2.487-1.098,2.487-2.415c0-1.391-1.096-2.414-2.487-2.414c-1.316,0-2.413,1.023-2.413,2.414
		C478.234,118.839,479.331,119.937,480.647,119.937L480.647,119.937z"/>
	<path fill-rule="evenodd" clip-rule="evenodd" fill="none" stroke="#000000" stroke-width="0.504" stroke-miterlimit="2.4142" d="
		M502.219,119.937c1.392,0,2.491-1.098,2.491-2.415c0-1.391-1.1-2.414-2.491-2.414c-1.316,0-2.413,1.023-2.413,2.414
		C499.806,118.839,500.902,119.937,502.219,119.937L502.219,119.937z"/>
	<path fill-rule="evenodd" clip-rule="evenodd" fill="none" stroke="#000000" stroke-width="0.504" stroke-miterlimit="2.4142" d="
		M491.435,119.937c1.389,0,2.488-1.098,2.488-2.415c0-1.391-1.1-2.414-2.488-2.414c-1.316,0-2.416,1.023-2.416,2.414
		C489.019,118.839,490.118,119.937,491.435,119.937L491.435,119.937z"/>
</g>
<g>
	<path fill-rule="evenodd" clip-rule="evenodd" fill="none" stroke="#000000" stroke-width="0.504" stroke-miterlimit="2.4142" d="
		M480.647,128.19c1.392,0,2.487-1.098,2.487-2.415c0-1.391-1.096-2.414-2.487-2.414c-1.316,0-2.413,1.023-2.413,2.414
		C478.234,127.093,479.331,128.19,480.647,128.19L480.647,128.19z"/>
	<path fill-rule="evenodd" clip-rule="evenodd" fill="none" stroke="#000000" stroke-width="0.504" stroke-miterlimit="2.4142" d="
		M502.219,128.19c1.392,0,2.491-1.098,2.491-2.415c0-1.391-1.1-2.414-2.491-2.414c-1.316,0-2.413,1.023-2.413,2.414
		C499.806,127.093,500.902,128.19,502.219,128.19L502.219,128.19z"/>
	<path fill-rule="evenodd" clip-rule="evenodd" fill="none" stroke="#000000" stroke-width="0.504" stroke-miterlimit="2.4142" d="
		M491.435,128.19c1.389,0,2.488-1.098,2.488-2.415c0-1.391-1.1-2.414-2.488-2.414c-1.316,0-2.416,1.023-2.416,2.414
		C489.019,127.093,490.118,128.19,491.435,128.19L491.435,128.19z"/>
</g>
<g>
	<path fill-rule="evenodd" clip-rule="evenodd" fill="none" stroke="#000000" stroke-width="0.504" stroke-miterlimit="2.4142" d="
		M480.647,136.443c1.392,0,2.487-1.098,2.487-2.415c0-1.391-1.096-2.415-2.487-2.415c-1.316,0-2.413,1.024-2.413,2.415
		C478.234,135.346,479.331,136.443,480.647,136.443L480.647,136.443z"/>
	<path fill-rule="evenodd" clip-rule="evenodd" fill="none" stroke="#000000" stroke-width="0.504" stroke-miterlimit="2.4142" d="
		M502.219,136.443c1.392,0,2.491-1.098,2.491-2.415c0-1.391-1.1-2.415-2.491-2.415c-1.316,0-2.413,1.024-2.413,2.415
		C499.806,135.346,500.902,136.443,502.219,136.443L502.219,136.443z"/>
	<path fill-rule="evenodd" clip-rule="evenodd" fill="none" stroke="#000000" stroke-width="0.504" stroke-miterlimit="2.4142" d="
		M491.435,136.443c1.389,0,2.488-1.098,2.488-2.415c0-1.391-1.1-2.415-2.488-2.415c-1.316,0-2.416,1.024-2.416,2.415
		C489.019,135.346,490.118,136.443,491.435,136.443L491.435,136.443z"/>
</g>
<g>
	<path fill-rule="evenodd" clip-rule="evenodd" fill="none" stroke="#000000" stroke-width="0.504" stroke-miterlimit="2.4142" d="
		M480.647,152.95c1.392,0,2.487-1.098,2.487-2.415c0-1.391-1.096-2.415-2.487-2.415c-1.316,0-2.413,1.024-2.413,2.415
		C478.234,151.852,479.331,152.95,480.647,152.95L480.647,152.95z"/>
	<path fill-rule="evenodd" clip-rule="evenodd" fill="none" stroke="#000000" stroke-width="0.504" stroke-miterlimit="2.4142" d="
		M502.219,152.95c1.392,0,2.491-1.098,2.491-2.415c0-1.391-1.1-2.415-2.491-2.415c-1.316,0-2.413,1.024-2.413,2.415
		C499.806,151.852,500.902,152.95,502.219,152.95L502.219,152.95z"/>
	<path fill-rule="evenodd" clip-rule="evenodd" fill="none" stroke="#000000" stroke-width="0.504" stroke-miterlimit="2.4142" d="
		M491.435,152.95c1.389,0,2.488-1.098,2.488-2.415c0-1.391-1.1-2.415-2.488-2.415c-1.316,0-2.416,1.024-2.416,2.415
		C489.019,151.852,490.118,152.95,491.435,152.95L491.435,152.95z"/>
</g>
<g>
	<path fill-rule="evenodd" clip-rule="evenodd" fill="none" stroke="#000000" stroke-width="0.504" stroke-miterlimit="2.4142" d="
		M496.826,111.684c1.317,0,2.414-1.098,2.414-2.415s-1.097-2.415-2.414-2.415c-1.316,0-2.412,1.098-2.412,2.415
		S495.51,111.684,496.826,111.684L496.826,111.684z"/>
	<path fill-rule="evenodd" clip-rule="evenodd" fill="none" stroke="#000000" stroke-width="0.504" stroke-miterlimit="2.4142" d="
		M486.039,111.684c1.32,0,2.417-1.098,2.417-2.415s-1.097-2.415-2.417-2.415c-1.316,0-2.412,1.098-2.412,2.415
		S484.723,111.684,486.039,111.684L486.039,111.684z"/>
</g>
<g>
	<path fill-rule="evenodd" clip-rule="evenodd" fill="none" stroke="#000000" stroke-width="0.504" stroke-miterlimit="2.4142" d="
		M496.826,185.962c1.317,0,2.414-1.098,2.414-2.415s-1.097-2.415-2.414-2.415c-1.316,0-2.412,1.098-2.412,2.415
		S495.51,185.962,496.826,185.962L496.826,185.962z"/>
	<path fill-rule="evenodd" clip-rule="evenodd" fill="none" stroke="#000000" stroke-width="0.504" stroke-miterlimit="2.4142" d="
		M486.039,185.962c1.32,0,2.417-1.098,2.417-2.415s-1.097-2.415-2.417-2.415c-1.316,0-2.412,1.098-2.412,2.415
		S484.723,185.962,486.039,185.962L486.039,185.962z"/>
</g>
</svg>
