<?xml version="1.0" encoding="utf-8"?>
<!-- Generator: Adobe Illustrator 15.0.2, SVG Export Plug-In . SVG Version: 6.00 Build 0)  -->
<!DOCTYPE svg PUBLIC "-//W3C//DTD SVG 1.1//EN" "http://www.w3.org/Graphics/SVG/1.1/DTD/svg11.dtd">
<svg version="1.1" id="Armor" xmlns="http://www.w3.org/2000/svg" xmlns:xlink="http://www.w3.org/1999/xlink" x="0px" y="0px"
	 width="612px" height="792px" viewBox="0 0 612 792" enable-background="new 0 0 612 792" xml:space="preserve">
<path fill="#FFFFFF" stroke="#000000" stroke-width="2" d="M457.21,263.879"/>
<g>
	<path fill-rule="evenodd" clip-rule="evenodd" fill="none" stroke="#000000" stroke-width="0.504" stroke-miterlimit="2.4142" d="
		M480.648,165.186c1.391,0,2.412-1.099,2.412-2.415c0-1.316-1.021-2.414-2.412-2.414c-1.317,0-2.414,1.098-2.414,2.414
		C478.234,164.087,479.331,165.186,480.648,165.186L480.648,165.186z"/>
	<path fill-rule="evenodd" clip-rule="evenodd" fill="none" stroke="#000000" stroke-width="0.504" stroke-miterlimit="2.4142" d="
		M502.223,165.186c1.388,0,2.412-1.099,2.412-2.415c0-1.316-1.024-2.414-2.412-2.414c-1.317,0-2.417,1.098-2.417,2.414
		C499.806,164.087,500.905,165.186,502.223,165.186L502.223,165.186z"/>
	<path fill-rule="evenodd" clip-rule="evenodd" fill="none" stroke="#000000" stroke-width="0.504" stroke-miterlimit="2.4142" d="
		M491.436,165.186c1.388,0,2.412-1.099,2.412-2.415c0-1.316-1.024-2.414-2.412-2.414c-1.317,0-2.417,1.098-2.417,2.414
		C489.019,164.087,490.118,165.186,491.436,165.186L491.436,165.186z"/>
</g>
<g>
	<path fill-rule="evenodd" clip-rule="evenodd" fill="none" stroke="#000000" stroke-width="0.504" stroke-miterlimit="2.4142" d="
		M480.647,140.497c1.392,0,2.487-1.098,2.487-2.415c0-1.391-1.096-2.415-2.487-2.415c-1.316,0-2.413,1.024-2.413,2.415
		C478.234,139.399,479.331,140.497,480.647,140.497L480.647,140.497z"/>
	<path fill-rule="evenodd" clip-rule="evenodd" fill="none" stroke="#000000" stroke-width="0.504" stroke-miterlimit="2.4142" d="
		M502.219,140.497c1.392,0,2.491-1.098,2.491-2.415c0-1.391-1.1-2.415-2.491-2.415c-1.316,0-2.413,1.024-2.413,2.415
		C499.806,139.399,500.902,140.497,502.219,140.497L502.219,140.497z"/>
	<path fill-rule="evenodd" clip-rule="evenodd" fill="none" stroke="#000000" stroke-width="0.504" stroke-miterlimit="2.4142" d="
		M491.435,140.497c1.389,0,2.488-1.098,2.488-2.415c0-1.391-1.1-2.415-2.488-2.415c-1.316,0-2.416,1.024-2.416,2.415
		C489.019,139.399,490.118,140.497,491.435,140.497L491.435,140.497z"/>
</g>
<g>
	<path fill-rule="evenodd" clip-rule="evenodd" fill="none" stroke="#000000" stroke-width="0.504" stroke-miterlimit="2.4142" d="
		M480.647,128.152c1.392,0,2.487-1.098,2.487-2.415c0-1.391-1.096-2.415-2.487-2.415c-1.316,0-2.413,1.024-2.413,2.415
		C478.234,127.054,479.331,128.152,480.647,128.152L480.647,128.152z"/>
	<path fill-rule="evenodd" clip-rule="evenodd" fill="none" stroke="#000000" stroke-width="0.504" stroke-miterlimit="2.4142" d="
		M502.219,128.152c1.392,0,2.491-1.098,2.491-2.415c0-1.391-1.1-2.415-2.491-2.415c-1.316,0-2.413,1.024-2.413,2.415
		C499.806,127.054,500.902,128.152,502.219,128.152L502.219,128.152z"/>
	<path fill-rule="evenodd" clip-rule="evenodd" fill="none" stroke="#000000" stroke-width="0.504" stroke-miterlimit="2.4142" d="
		M491.435,128.152c1.389,0,2.488-1.098,2.488-2.415c0-1.391-1.1-2.415-2.488-2.415c-1.316,0-2.416,1.024-2.416,2.415
		C489.019,127.054,490.118,128.152,491.435,128.152L491.435,128.152z"/>
</g>
<g>
	<path fill-rule="evenodd" clip-rule="evenodd" fill="none" stroke="#000000" stroke-width="0.504" stroke-miterlimit="2.4142" d="
		M480.647,152.841c1.392,0,2.487-1.098,2.487-2.415c0-1.391-1.096-2.415-2.487-2.415c-1.316,0-2.413,1.024-2.413,2.415
		C478.234,151.744,479.331,152.841,480.647,152.841L480.647,152.841z"/>
	<path fill-rule="evenodd" clip-rule="evenodd" fill="none" stroke="#000000" stroke-width="0.504" stroke-miterlimit="2.4142" d="
		M502.219,152.841c1.392,0,2.491-1.098,2.491-2.415c0-1.391-1.1-2.415-2.491-2.415c-1.316,0-2.413,1.024-2.413,2.415
		C499.806,151.744,500.902,152.841,502.219,152.841L502.219,152.841z"/>
	<path fill-rule="evenodd" clip-rule="evenodd" fill="none" stroke="#000000" stroke-width="0.504" stroke-miterlimit="2.4142" d="
		M491.435,152.841c1.389,0,2.488-1.098,2.488-2.415c0-1.391-1.1-2.415-2.488-2.415c-1.316,0-2.416,1.024-2.416,2.415
		C489.019,151.744,490.118,152.841,491.435,152.841L491.435,152.841z"/>
</g>
<g>
	<path fill-rule="evenodd" clip-rule="evenodd" fill="none" stroke="#000000" stroke-width="0.504" stroke-miterlimit="2.4142" d="
		M496.826,115.807c1.317,0,2.414-1.098,2.414-2.415s-1.097-2.415-2.414-2.415c-1.316,0-2.412,1.098-2.412,2.415
		S495.51,115.807,496.826,115.807L496.826,115.807z"/>
	<path fill-rule="evenodd" clip-rule="evenodd" fill="none" stroke="#000000" stroke-width="0.504" stroke-miterlimit="2.4142" d="
		M486.039,115.807c1.32,0,2.417-1.098,2.417-2.415s-1.097-2.415-2.417-2.415c-1.316,0-2.412,1.098-2.412,2.415
		S484.723,115.807,486.039,115.807L486.039,115.807z"/>
</g>
<g>
	<path fill-rule="evenodd" clip-rule="evenodd" fill="none" stroke="#000000" stroke-width="0.504" stroke-miterlimit="2.4142" d="
		M496.826,177.531c1.317,0,2.414-1.098,2.414-2.415s-1.097-2.415-2.414-2.415c-1.316,0-2.412,1.098-2.412,2.415
		S495.51,177.531,496.826,177.531L496.826,177.531z"/>
	<path fill-rule="evenodd" clip-rule="evenodd" fill="none" stroke="#000000" stroke-width="0.504" stroke-miterlimit="2.4142" d="
		M486.039,177.531c1.32,0,2.417-1.098,2.417-2.415s-1.097-2.415-2.417-2.415c-1.316,0-2.412,1.098-2.412,2.415
		S484.723,177.531,486.039,177.531L486.039,177.531z"/>
</g>
</svg>
