<?xml version="1.0" encoding="utf-8"?>
<!-- Generator: Adobe Illustrator 15.0.2, SVG Export Plug-In . SVG Version: 6.00 Build 0)  -->
<!DOCTYPE svg PUBLIC "-//W3C//DTD SVG 1.1//EN" "http://www.w3.org/Graphics/SVG/1.1/DTD/svg11.dtd">
<svg version="1.1" id="Armor" xmlns="http://www.w3.org/2000/svg" xmlns:xlink="http://www.w3.org/1999/xlink" x="0px" y="0px"
	 width="612px" height="792px" viewBox="0 0 612 792" enable-background="new 0 0 612 792" xml:space="preserve">
<g>
	<g>
		<path fill="none" stroke="#000000" stroke-width="0.504" stroke-miterlimit="2.4142" d="M499.836,342.68
			c1.129,0,2.063-0.93,2.063-2.062c0-1.13-0.935-1.995-2.063-1.995s-1.996,0.865-1.996,1.995
			C497.84,341.75,498.707,342.68,499.836,342.68L499.836,342.68z"/>
	</g>
	<g>
		<path fill="none" stroke="#000000" stroke-width="0.504" stroke-miterlimit="2.4142" d="M482.633,342.68
			c1.131,0,2.063-0.93,2.063-2.062c0-1.13-0.933-1.995-2.063-1.995c-1.129,0-1.994,0.865-1.994,1.995
			C480.639,341.75,481.504,342.68,482.633,342.68L482.633,342.68z"/>
	</g>
</g>
<g>
	<g>
		<path fill="none" stroke="#000000" stroke-width="0.504" stroke-miterlimit="2.4142" d="M499.836,331.499
			c1.129,0,2.063-0.93,2.063-2.062c0-1.13-0.935-1.995-2.063-1.995s-1.996,0.865-1.996,1.995
			C497.84,330.568,498.707,331.499,499.836,331.499L499.836,331.499z"/>
	</g>
	<g>
		<path fill="none" stroke="#000000" stroke-width="0.504" stroke-miterlimit="2.4142" d="M482.633,331.499
			c1.131,0,2.063-0.93,2.063-2.062c0-1.13-0.933-1.995-2.063-1.995c-1.129,0-1.994,0.865-1.994,1.995
			C480.639,330.568,481.504,331.499,482.633,331.499L482.633,331.499z"/>
	</g>
</g>
<g>
	<g>
		<path fill="none" stroke="#000000" stroke-width="0.504" stroke-miterlimit="2.4142" d="M499.836,320.317
			c1.129,0,2.063-0.93,2.063-2.062c0-1.13-0.935-1.995-2.063-1.995s-1.996,0.865-1.996,1.995
			C497.84,319.387,498.707,320.317,499.836,320.317L499.836,320.317z"/>
	</g>
	<g>
		<path fill="none" stroke="#000000" stroke-width="0.504" stroke-miterlimit="2.4142" d="M482.633,320.317
			c1.131,0,2.063-0.93,2.063-2.062c0-1.13-0.933-1.995-2.063-1.995c-1.129,0-1.994,0.865-1.994,1.995
			C480.639,319.387,481.504,320.317,482.633,320.317L482.633,320.317z"/>
	</g>
</g>
<g>
	<g>
		<path fill="none" stroke="#000000" stroke-width="0.504" stroke-miterlimit="2.4142" d="M499.836,353.861
			c1.129,0,2.063-0.93,2.063-2.062c0-1.13-0.935-1.995-2.063-1.995s-1.996,0.865-1.996,1.995
			C497.84,352.931,498.707,353.861,499.836,353.861L499.836,353.861z"/>
	</g>
	<g>
		<path fill="none" stroke="#000000" stroke-width="0.504" stroke-miterlimit="2.4142" d="M482.633,353.861
			c1.131,0,2.063-0.93,2.063-2.062c0-1.13-0.933-1.995-2.063-1.995c-1.129,0-1.994,0.865-1.994,1.995
			C480.639,352.931,481.504,353.861,482.633,353.861L482.633,353.861z"/>
	</g>
</g>
<g>
	<g>
		<path fill="none" stroke="#000000" stroke-width="0.504" stroke-miterlimit="2.4142" d="M499.836,365.042
			c1.129,0,2.063-0.93,2.063-2.062c0-1.13-0.935-1.995-2.063-1.995s-1.996,0.865-1.996,1.995
			C497.84,364.112,498.707,365.042,499.836,365.042L499.836,365.042z"/>
	</g>
	<g>
		<path fill="none" stroke="#000000" stroke-width="0.504" stroke-miterlimit="2.4142" d="M482.633,365.042
			c1.131,0,2.063-0.93,2.063-2.062c0-1.13-0.933-1.995-2.063-1.995c-1.129,0-1.994,0.865-1.994,1.995
			C480.639,364.112,481.504,365.042,482.633,365.042L482.633,365.042z"/>
	</g>
</g>
</svg>
