<?xml version="1.0" encoding="utf-8"?>
<!-- Generator: Adobe Illustrator 15.0.2, SVG Export Plug-In . SVG Version: 6.00 Build 0)  -->
<!DOCTYPE svg PUBLIC "-//W3C//DTD SVG 1.1//EN" "http://www.w3.org/Graphics/SVG/1.1/DTD/svg11.dtd">
<svg version="1.1" id="Armor" xmlns="http://www.w3.org/2000/svg" xmlns:xlink="http://www.w3.org/1999/xlink" x="0px" y="0px"
	 width="612px" height="792px" viewBox="0 0 612 792" enable-background="new 0 0 612 792" xml:space="preserve">
<g>
	
		<path fill-rule="evenodd" clip-rule="evenodd" fill="#FFFFFF" stroke="#000000" stroke-width="0.504" stroke-miterlimit="2.4142" d="
		M485.558,87.631c1.288,0,2.333,1.046,2.333,2.335c0,1.207-1.045,2.253-2.333,2.253c-1.208,0-2.254-1.046-2.254-2.253
		C483.304,88.677,484.35,87.631,485.558,87.631L485.558,87.631z"/>
	
		<path fill-rule="evenodd" clip-rule="evenodd" fill="#FFFFFF" stroke="#000000" stroke-width="0.504" stroke-miterlimit="2.4142" d="
		M491.475,87.631c1.286,0,2.252,1.046,2.252,2.335c0,1.207-0.966,2.253-2.252,2.253c-1.289,0-2.257-1.046-2.257-2.253
		C489.218,88.677,490.186,87.631,491.475,87.631L491.475,87.631z"/>
	
		<path fill-rule="evenodd" clip-rule="evenodd" fill="#FFFFFF" stroke="#000000" stroke-width="0.504" stroke-miterlimit="2.4142" d="
		M497.306,87.631c1.29,0,2.335,1.046,2.335,2.335c0,1.207-1.045,2.253-2.335,2.253c-1.208,0-2.252-1.046-2.252-2.253
		C495.054,88.677,496.098,87.631,497.306,87.631L497.306,87.631z"/>
	
		<path fill-rule="evenodd" clip-rule="evenodd" fill="#FFFFFF" stroke="#000000" stroke-width="0.504" stroke-miterlimit="2.4142" d="
		M485.558,82.078c1.288,0,2.333,1.046,2.333,2.253c0,1.288-1.045,2.254-2.333,2.254c-1.208,0-2.254-0.966-2.254-2.254
		C483.304,83.124,484.35,82.078,485.558,82.078L485.558,82.078z"/>
	
		<path fill-rule="evenodd" clip-rule="evenodd" fill="#FFFFFF" stroke="#000000" stroke-width="0.504" stroke-miterlimit="2.4142" d="
		M497.306,82.078c1.29,0,2.335,1.046,2.335,2.253c0,1.288-1.045,2.254-2.335,2.254c-1.208,0-2.252-0.966-2.252-2.254
		C495.054,83.124,496.098,82.078,497.306,82.078L497.306,82.078z"/>
	
		<path fill-rule="evenodd" clip-rule="evenodd" fill="#FFFFFF" stroke="#000000" stroke-width="0.504" stroke-miterlimit="2.4142" d="
		M488.255,77.571c1.206,0,2.253,1.045,2.253,2.334c0,1.207-1.047,2.253-2.253,2.253c-1.287,0-2.256-1.046-2.256-2.253
		C485.999,78.617,486.968,77.571,488.255,77.571L488.255,77.571z"/>
	
		<path fill-rule="evenodd" clip-rule="evenodd" fill="#FFFFFF" stroke="#000000" stroke-width="0.504" stroke-miterlimit="2.4142" d="
		M494.694,77.571c1.205,0,2.251,1.045,2.251,2.334c0,1.207-1.046,2.253-2.251,2.253c-1.288,0-2.335-1.046-2.335-2.253
		C492.359,78.616,493.406,77.571,494.694,77.571L494.694,77.571z"/>
</g>
</svg>
