<?xml version="1.0" encoding="utf-8"?>
<!-- Generator: Adobe Illustrator 15.0.2, SVG Export Plug-In . SVG Version: 6.00 Build 0)  -->
<!DOCTYPE svg PUBLIC "-//W3C//DTD SVG 1.1//EN" "http://www.w3.org/Graphics/SVG/1.1/DTD/svg11.dtd">
<svg version="1.1" id="Armor" xmlns="http://www.w3.org/2000/svg" xmlns:xlink="http://www.w3.org/1999/xlink" x="0px" y="0px"
	 width="612px" height="792px" viewBox="0 0 612 792" enable-background="new 0 0 612 792" xml:space="preserve">
<g>
	<g>
		<path fill="none" stroke="#000000" stroke-width="0.504" stroke-miterlimit="2.4142" d="M499.836,353.299
			c1.129,0,2.063-0.93,2.063-2.062c0-1.13-0.935-1.995-2.063-1.995s-1.996,0.865-1.996,1.995
			C497.84,352.369,498.707,353.299,499.836,353.299L499.836,353.299z"/>
	</g>
	<g>
		<path fill="none" stroke="#000000" stroke-width="0.504" stroke-miterlimit="2.4142" d="M482.633,353.299
			c1.131,0,2.063-0.93,2.063-2.062c0-1.13-0.933-1.995-2.063-1.995c-1.129,0-1.994,0.865-1.994,1.995
			C480.639,352.369,481.504,353.299,482.633,353.299L482.633,353.299z"/>
	</g>
</g>
<g>
	<g>
		<path fill="none" stroke="#000000" stroke-width="0.504" stroke-miterlimit="2.4142" d="M499.836,345.229
			c1.129,0,2.063-0.93,2.063-2.062c0-1.13-0.935-1.995-2.063-1.995s-1.996,0.865-1.996,1.995
			C497.84,344.298,498.707,345.229,499.836,345.229L499.836,345.229z"/>
	</g>
	<g>
		<path fill="none" stroke="#000000" stroke-width="0.504" stroke-miterlimit="2.4142" d="M482.633,345.229
			c1.131,0,2.063-0.93,2.063-2.062c0-1.13-0.933-1.995-2.063-1.995c-1.129,0-1.994,0.865-1.994,1.995
			C480.639,344.298,481.504,345.229,482.633,345.229L482.633,345.229z"/>
	</g>
</g>
<g>
	<g>
		<path fill="none" stroke="#000000" stroke-width="0.504" stroke-miterlimit="2.4142" d="M499.836,337.157
			c1.129,0,2.063-0.93,2.063-2.062c0-1.13-0.935-1.995-2.063-1.995s-1.996,0.865-1.996,1.995
			C497.84,336.227,498.707,337.157,499.836,337.157L499.836,337.157z"/>
	</g>
	<g>
		<path fill="none" stroke="#000000" stroke-width="0.504" stroke-miterlimit="2.4142" d="M482.633,337.157
			c1.131,0,2.063-0.93,2.063-2.062c0-1.13-0.933-1.995-2.063-1.995c-1.129,0-1.994,0.865-1.994,1.995
			C480.639,336.227,481.504,337.157,482.633,337.157L482.633,337.157z"/>
	</g>
</g>
<g>
	<g>
		<path fill="none" stroke="#000000" stroke-width="0.504" stroke-miterlimit="2.4142" d="M499.836,329.086
			c1.129,0,2.063-0.93,2.063-2.062c0-1.13-0.935-1.995-2.063-1.995s-1.996,0.865-1.996,1.995
			C497.84,328.156,498.707,329.086,499.836,329.086L499.836,329.086z"/>
	</g>
	<g>
		<path fill="none" stroke="#000000" stroke-width="0.504" stroke-miterlimit="2.4142" d="M482.633,329.086
			c1.131,0,2.063-0.93,2.063-2.062c0-1.13-0.933-1.995-2.063-1.995c-1.129,0-1.994,0.865-1.994,1.995
			C480.639,328.156,481.504,329.086,482.633,329.086L482.633,329.086z"/>
	</g>
</g>
<g>
	<g>
		<path fill="none" stroke="#000000" stroke-width="0.504" stroke-miterlimit="2.4142" d="M499.836,321.015
			c1.129,0,2.063-0.93,2.063-2.062c0-1.13-0.935-1.995-2.063-1.995s-1.996,0.865-1.996,1.995
			C497.84,320.085,498.707,321.015,499.836,321.015L499.836,321.015z"/>
	</g>
	<g>
		<path fill="none" stroke="#000000" stroke-width="0.504" stroke-miterlimit="2.4142" d="M482.633,321.015
			c1.131,0,2.063-0.93,2.063-2.062c0-1.13-0.933-1.995-2.063-1.995c-1.129,0-1.994,0.865-1.994,1.995
			C480.639,320.085,481.504,321.015,482.633,321.015L482.633,321.015z"/>
	</g>
</g>
<g>
	<g>
		<path fill="none" stroke="#000000" stroke-width="0.504" stroke-miterlimit="2.4142" d="M499.836,361.371
			c1.129,0,2.063-0.93,2.063-2.062c0-1.13-0.935-1.995-2.063-1.995s-1.996,0.865-1.996,1.995
			C497.84,360.44,498.707,361.371,499.836,361.371L499.836,361.371z"/>
	</g>
	<g>
		<path fill="none" stroke="#000000" stroke-width="0.504" stroke-miterlimit="2.4142" d="M482.633,361.371
			c1.131,0,2.063-0.93,2.063-2.062c0-1.13-0.933-1.995-2.063-1.995c-1.129,0-1.994,0.865-1.994,1.995
			C480.639,360.44,481.504,361.371,482.633,361.371L482.633,361.371z"/>
	</g>
</g>
<g>
	<g>
		<path fill="none" stroke="#000000" stroke-width="0.504" stroke-miterlimit="2.4142" d="M499.836,369.441
			c1.129,0,2.063-0.93,2.063-2.062c0-1.13-0.935-1.995-2.063-1.995s-1.996,0.865-1.996,1.995
			C497.84,368.511,498.707,369.441,499.836,369.441L499.836,369.441z"/>
	</g>
	<g>
		<path fill="none" stroke="#000000" stroke-width="0.504" stroke-miterlimit="2.4142" d="M482.633,369.441
			c1.131,0,2.063-0.93,2.063-2.062c0-1.13-0.933-1.995-2.063-1.995c-1.129,0-1.994,0.865-1.994,1.995
			C480.639,368.511,481.504,369.441,482.633,369.441L482.633,369.441z"/>
	</g>
</g>
<g>
	<g>
		<path fill="none" stroke="#000000" stroke-width="0.504" stroke-miterlimit="2.4142" d="M491.234,312.944
			c1.131,0,2.063-0.93,2.063-2.062c0-1.13-0.932-1.995-2.063-1.995c-1.129,0-1.994,0.865-1.994,1.995
			C489.24,312.014,490.105,312.944,491.234,312.944L491.234,312.944z"/>
	</g>
</g>
</svg>
