<?xml version="1.0" encoding="utf-8"?>
<!-- Generator: Adobe Illustrator 15.0.2, SVG Export Plug-In . SVG Version: 6.00 Build 0)  -->
<!DOCTYPE svg PUBLIC "-//W3C//DTD SVG 1.1//EN" "http://www.w3.org/Graphics/SVG/1.1/DTD/svg11.dtd">
<svg version="1.1" id="Armor" xmlns="http://www.w3.org/2000/svg" xmlns:xlink="http://www.w3.org/1999/xlink" x="0px" y="0px"
	 width="612px" height="792px" viewBox="0 0 612 792" enable-background="new 0 0 612 792" xml:space="preserve">
<g>
	
		<path fill-rule="evenodd" clip-rule="evenodd" fill="#FFFFFF" stroke="#000000" stroke-width="0.504" stroke-miterlimit="2.4142" d="
		M485.558,87.631c1.288,0,2.333,1.046,2.333,2.335c0,1.207-1.045,2.253-2.333,2.253c-1.208,0-2.254-1.046-2.254-2.253
		C483.304,88.677,484.35,87.631,485.558,87.631L485.558,87.631z"/>
	
		<path fill-rule="evenodd" clip-rule="evenodd" fill="#FFFFFF" stroke="#000000" stroke-width="0.504" stroke-miterlimit="2.4142" d="
		M497.306,87.631c1.29,0,2.335,1.046,2.335,2.335c0,1.207-1.045,2.253-2.335,2.253c-1.208,0-2.252-1.046-2.252-2.253
		C495.054,88.677,496.098,87.631,497.306,87.631L497.306,87.631z"/>
	
		<path fill-rule="evenodd" clip-rule="evenodd" fill="#FFFFFF" stroke="#000000" stroke-width="0.504" stroke-miterlimit="2.4142" d="
		M491.475,82.078c1.286,0,2.252,1.046,2.252,2.253c0,1.288-0.966,2.254-2.252,2.254c-1.289,0-2.257-0.966-2.257-2.254
		C489.218,83.124,490.186,82.078,491.475,82.078L491.475,82.078z"/>
	
		<path fill-rule="evenodd" clip-rule="evenodd" fill="#FFFFFF" stroke="#000000" stroke-width="0.504" stroke-miterlimit="2.4142" d="
		M491.432,73.144c1.288,0,2.334,1.046,2.334,2.254c0,1.288-1.046,2.253-2.334,2.253c-1.207,0-2.253-0.965-2.253-2.253
		C489.179,74.19,490.225,73.144,491.432,73.144L491.432,73.144z"/>
</g>
</svg>
