<?xml version="1.0" encoding="utf-8"?>
<!-- Generator: Adobe Illustrator 15.1.0, SVG Export Plug-In . SVG Version: 6.00 Build 0)  -->
<!DOCTYPE svg PUBLIC "-//W3C//DTD SVG 1.1//EN" "http://www.w3.org/Graphics/SVG/1.1/DTD/svg11.dtd">
<svg version="1.1" id="Armor" xmlns="http://www.w3.org/2000/svg" xmlns:xlink="http://www.w3.org/1999/xlink" x="0px" y="0px"
	 width="612px" height="792px" viewBox="0 0 612 792" enable-background="new 0 0 612 792" xml:space="preserve">
<path fill="#FFFFFF" stroke="#000000" stroke-width="2" d="M457.212,263.879"/>
<g>
	<path fill="none" stroke="#000000" stroke-width="0.504" stroke-miterlimit="2.4142" d="M480.648,167.327
		c1.391,0,2.412-1.101,2.412-2.415c0-1.315-1.021-2.414-2.412-2.414c-1.317,0-2.414,1.099-2.414,2.414
		C478.234,166.229,479.331,167.327,480.648,167.327L480.648,167.327z"/>
	<path fill="none" stroke="#000000" stroke-width="0.504" stroke-miterlimit="2.4142" d="M502.223,167.327
		c1.388,0,2.412-1.101,2.412-2.415c0-1.315-1.024-2.414-2.412-2.414c-1.317,0-2.417,1.099-2.417,2.414
		C499.806,166.229,500.905,167.327,502.223,167.327L502.223,167.327z"/>
	<path fill="none" stroke="#000000" stroke-width="0.504" stroke-miterlimit="2.4142" d="M491.436,167.327
		c1.388,0,2.412-1.101,2.412-2.415c0-1.315-1.024-2.414-2.412-2.414c-1.317,0-2.417,1.099-2.417,2.414
		C489.019,166.229,490.118,167.327,491.436,167.327L491.436,167.327z"/>
</g>
<path fill="none" stroke="#000000" stroke-width="0.504" stroke-miterlimit="2.4142" d="M480.648,184.037
	c1.391,0,2.412-1.101,2.412-2.415c0-1.315-1.021-2.414-2.412-2.414c-1.317,0-2.414,1.099-2.414,2.414
	C478.234,182.937,479.331,184.037,480.648,184.037L480.648,184.037z"/>
<path fill="none" stroke="#000000" stroke-width="0.504" stroke-miterlimit="2.4142" d="M502.223,184.037
	c1.388,0,2.412-1.101,2.412-2.415c0-1.315-1.024-2.414-2.412-2.414c-1.317,0-2.417,1.099-2.417,2.414
	C499.806,182.937,500.905,184.037,502.223,184.037L502.223,184.037z"/>
<path fill="none" stroke="#000000" stroke-width="0.504" stroke-miterlimit="2.4142" d="M491.436,184.037
	c1.388,0,2.412-1.101,2.412-2.415c0-1.315-1.024-2.414-2.412-2.414c-1.317,0-2.417,1.099-2.417,2.414
	C489.019,182.937,490.118,184.037,491.436,184.037L491.436,184.037z"/>
<g>
	<path fill="none" stroke="#000000" stroke-width="0.504" stroke-miterlimit="2.4142" d="M480.648,175.682
		c1.391,0,2.412-1.099,2.412-2.415c0-1.314-1.021-2.414-2.412-2.414c-1.317,0-2.414,1.1-2.414,2.414
		C478.234,174.583,479.331,175.682,480.648,175.682L480.648,175.682z"/>
	<path fill="none" stroke="#000000" stroke-width="0.504" stroke-miterlimit="2.4142" d="M502.223,175.682
		c1.388,0,2.412-1.099,2.412-2.415c0-1.314-1.024-2.414-2.412-2.414c-1.317,0-2.417,1.1-2.417,2.414
		C499.806,174.583,500.905,175.682,502.223,175.682L502.223,175.682z"/>
	<path fill="none" stroke="#000000" stroke-width="0.504" stroke-miterlimit="2.4142" d="M491.436,175.682
		c1.388,0,2.412-1.099,2.412-2.415c0-1.314-1.024-2.414-2.412-2.414c-1.317,0-2.417,1.1-2.417,2.414
		C489.019,174.583,490.118,175.682,491.436,175.682L491.436,175.682z"/>
</g>
<g>
	<path fill="none" stroke="#000000" stroke-width="0.504" stroke-miterlimit="2.4142" d="M480.647,142.263
		c1.392,0,2.487-1.098,2.487-2.415c0-1.391-1.098-2.414-2.487-2.414c-1.316,0-2.413,1.023-2.413,2.414
		C478.234,141.165,479.331,142.263,480.647,142.263L480.647,142.263z"/>
	<path fill="none" stroke="#000000" stroke-width="0.504" stroke-miterlimit="2.4142" d="M502.219,142.263
		c1.392,0,2.491-1.098,2.491-2.415c0-1.391-1.102-2.414-2.491-2.414c-1.316,0-2.413,1.023-2.413,2.414
		C499.806,141.165,500.902,142.263,502.219,142.263L502.219,142.263z"/>
	<path fill="none" stroke="#000000" stroke-width="0.504" stroke-miterlimit="2.4142" d="M491.435,142.263
		c1.389,0,2.488-1.098,2.488-2.415c0-1.391-1.102-2.414-2.488-2.414c-1.316,0-2.416,1.023-2.416,2.414
		C489.019,141.165,490.118,142.263,491.435,142.263L491.435,142.263z"/>
</g>
<g>
	<path fill="none" stroke="#000000" stroke-width="0.504" stroke-miterlimit="2.4142" d="M480.647,133.908
		c1.392,0,2.487-1.1,2.487-2.415c0-1.393-1.098-2.414-2.487-2.414c-1.316,0-2.413,1.021-2.413,2.414
		C478.234,132.811,479.331,133.908,480.647,133.908L480.647,133.908z"/>
	<path fill="none" stroke="#000000" stroke-width="0.504" stroke-miterlimit="2.4142" d="M502.219,133.908
		c1.392,0,2.491-1.1,2.491-2.415c0-1.393-1.102-2.414-2.491-2.414c-1.316,0-2.413,1.021-2.413,2.414
		C499.806,132.811,500.902,133.908,502.219,133.908L502.219,133.908z"/>
	<path fill="none" stroke="#000000" stroke-width="0.504" stroke-miterlimit="2.4142" d="M491.435,133.908
		c1.389,0,2.488-1.1,2.488-2.415c0-1.393-1.102-2.414-2.488-2.414c-1.316,0-2.416,1.021-2.416,2.414
		C489.019,132.811,490.118,133.908,491.435,133.908L491.435,133.908z"/>
</g>
<g>
	<path fill="none" stroke="#000000" stroke-width="0.504" stroke-miterlimit="2.4142" d="M480.647,125.553
		c1.392,0,2.487-1.098,2.487-2.415c0-1.391-1.098-2.414-2.487-2.414c-1.316,0-2.413,1.023-2.413,2.414
		C478.234,124.456,479.331,125.553,480.647,125.553L480.647,125.553z"/>
	<path fill="none" stroke="#000000" stroke-width="0.504" stroke-miterlimit="2.4142" d="M502.219,125.553
		c1.392,0,2.491-1.098,2.491-2.415c0-1.391-1.102-2.414-2.491-2.414c-1.316,0-2.413,1.023-2.413,2.414
		C499.806,124.456,500.902,125.553,502.219,125.553L502.219,125.553z"/>
	<path fill="none" stroke="#000000" stroke-width="0.504" stroke-miterlimit="2.4142" d="M491.435,125.553
		c1.389,0,2.488-1.098,2.488-2.415c0-1.391-1.102-2.414-2.488-2.414c-1.316,0-2.416,1.023-2.416,2.414
		C489.019,124.456,490.118,125.553,491.435,125.553L491.435,125.553z"/>
</g>
<g>
	<path fill="none" stroke="#000000" stroke-width="0.504" stroke-miterlimit="2.4142" d="M480.647,150.618
		c1.392,0,2.487-1.1,2.487-2.415c0-1.393-1.098-2.414-2.487-2.414c-1.316,0-2.413,1.021-2.413,2.414
		C478.234,149.52,479.331,150.618,480.647,150.618L480.647,150.618z"/>
	<path fill="none" stroke="#000000" stroke-width="0.504" stroke-miterlimit="2.4142" d="M502.219,150.618
		c1.392,0,2.491-1.1,2.491-2.415c0-1.393-1.102-2.414-2.491-2.414c-1.316,0-2.413,1.021-2.413,2.414
		C499.806,149.52,500.902,150.618,502.219,150.618L502.219,150.618z"/>
	<path fill="none" stroke="#000000" stroke-width="0.504" stroke-miterlimit="2.4142" d="M491.435,150.618
		c1.389,0,2.488-1.1,2.488-2.415c0-1.393-1.102-2.414-2.488-2.414c-1.316,0-2.416,1.021-2.416,2.414
		C489.019,149.52,490.118,150.618,491.435,150.618L491.435,150.618z"/>
</g>
<g>
	<path fill="none" stroke="#000000" stroke-width="0.504" stroke-miterlimit="2.4142" d="M480.647,158.972
		c1.392,0,2.487-1.098,2.487-2.415c0-1.391-1.098-2.414-2.487-2.414c-1.316,0-2.413,1.023-2.413,2.414
		C478.234,157.875,479.331,158.972,480.647,158.972L480.647,158.972z"/>
	<path fill="none" stroke="#000000" stroke-width="0.504" stroke-miterlimit="2.4142" d="M502.219,158.972
		c1.392,0,2.491-1.098,2.491-2.415c0-1.391-1.102-2.414-2.491-2.414c-1.316,0-2.413,1.023-2.413,2.414
		C499.806,157.875,500.902,158.972,502.219,158.972L502.219,158.972z"/>
	<path fill="none" stroke="#000000" stroke-width="0.504" stroke-miterlimit="2.4142" d="M491.435,158.972
		c1.389,0,2.488-1.098,2.488-2.415c0-1.391-1.102-2.414-2.488-2.414c-1.316,0-2.416,1.023-2.416,2.414
		C489.019,157.875,490.118,158.972,491.435,158.972L491.435,158.972z"/>
</g>
<g>
	<path fill="none" stroke="#000000" stroke-width="0.504" stroke-miterlimit="2.4142" d="M496.826,121.376
		c1.317,0,2.414-1.1,2.414-2.414c0-1.317-1.097-2.415-2.414-2.415c-1.314,0-2.412,1.098-2.412,2.415
		C494.414,120.278,495.51,121.376,496.826,121.376L496.826,121.376z"/>
	<path fill="none" stroke="#000000" stroke-width="0.504" stroke-miterlimit="2.4142" d="M486.039,121.376
		c1.32,0,2.417-1.1,2.417-2.414c0-1.317-1.097-2.415-2.417-2.415c-1.314,0-2.41,1.098-2.41,2.415
		C483.629,120.278,484.723,121.376,486.039,121.376L486.039,121.376z"/>
</g>
<g>
	<path fill="none" stroke="#000000" stroke-width="0.504" stroke-miterlimit="2.4142" d="M496.826,113.021
		c1.317,0,2.414-1.098,2.414-2.414c0-1.315-1.097-2.415-2.414-2.415c-1.314,0-2.412,1.1-2.412,2.415
		C494.414,111.923,495.51,113.021,496.826,113.021L496.826,113.021z"/>
	<path fill="none" stroke="#000000" stroke-width="0.504" stroke-miterlimit="2.4142" d="M486.039,113.021
		c1.32,0,2.417-1.098,2.417-2.414c0-1.315-1.097-2.415-2.417-2.415c-1.314,0-2.41,1.1-2.41,2.415
		C483.629,111.923,484.723,113.021,486.039,113.021L486.039,113.021z"/>
</g>
<g>
	<path fill="none" stroke="#000000" stroke-width="0.504" stroke-miterlimit="2.4142" d="M496.826,188.214
		c1.317,0,2.414-1.1,2.414-2.415c0-1.316-1.097-2.414-2.414-2.414c-1.314,0-2.412,1.098-2.412,2.414
		C494.414,187.115,495.51,188.214,496.826,188.214L496.826,188.214z"/>
	<path fill="none" stroke="#000000" stroke-width="0.504" stroke-miterlimit="2.4142" d="M486.039,188.214
		c1.32,0,2.417-1.1,2.417-2.415c0-1.316-1.097-2.414-2.417-2.414c-1.314,0-2.41,1.098-2.41,2.414
		C483.629,187.115,484.723,188.214,486.039,188.214L486.039,188.214z"/>
</g>
<g>
	<path fill="none" stroke="#000000" stroke-width="0.504" stroke-miterlimit="2.4142" d="M496.826,138.085
		c1.317,0,2.414-1.1,2.414-2.415c0-1.316-1.097-2.414-2.414-2.414c-1.314,0-2.412,1.098-2.412,2.414
		C494.414,136.988,495.51,138.085,496.826,138.085L496.826,138.085z"/>
	<path fill="none" stroke="#000000" stroke-width="0.504" stroke-miterlimit="2.4142" d="M486.039,138.085
		c1.32,0,2.417-1.1,2.417-2.415c0-1.316-1.097-2.414-2.417-2.414c-1.314,0-2.41,1.098-2.41,2.414
		C483.629,136.988,484.723,138.085,486.039,138.085L486.039,138.085z"/>
</g>
<g>
	<path fill="none" stroke="#000000" stroke-width="0.504" stroke-miterlimit="2.4142" d="M496.826,129.73
		c1.317,0,2.414-1.098,2.414-2.415c0-1.314-1.097-2.414-2.414-2.414c-1.314,0-2.412,1.1-2.412,2.414
		C494.414,128.633,495.51,129.73,496.826,129.73L496.826,129.73z"/>
	<path fill="none" stroke="#000000" stroke-width="0.504" stroke-miterlimit="2.4142" d="M486.039,129.73
		c1.32,0,2.417-1.098,2.417-2.415c0-1.314-1.097-2.414-2.417-2.414c-1.314,0-2.41,1.1-2.41,2.414
		C483.629,128.633,484.723,129.73,486.039,129.73L486.039,129.73z"/>
</g>
<g>
	<path fill="none" stroke="#000000" stroke-width="0.504" stroke-miterlimit="2.4142" d="M496.826,179.859
		c1.317,0,2.414-1.098,2.414-2.414c0-1.315-1.097-2.415-2.414-2.415c-1.314,0-2.412,1.1-2.412,2.415
		C494.414,178.762,495.51,179.859,496.826,179.859L496.826,179.859z"/>
	<path fill="none" stroke="#000000" stroke-width="0.504" stroke-miterlimit="2.4142" d="M486.039,179.859
		c1.32,0,2.417-1.098,2.417-2.414c0-1.315-1.097-2.415-2.417-2.415c-1.314,0-2.41,1.1-2.41,2.415
		C483.629,178.762,484.723,179.859,486.039,179.859L486.039,179.859z"/>
</g>
<g>
	<path fill="none" stroke="#000000" stroke-width="0.504" stroke-miterlimit="2.4142" d="M496.826,171.504
		c1.317,0,2.414-1.1,2.414-2.414c0-1.317-1.097-2.415-2.414-2.415c-1.314,0-2.412,1.098-2.412,2.415
		C494.414,170.406,495.51,171.504,496.826,171.504L496.826,171.504z"/>
	<path fill="none" stroke="#000000" stroke-width="0.504" stroke-miterlimit="2.4142" d="M486.039,171.504
		c1.32,0,2.417-1.1,2.417-2.414c0-1.317-1.097-2.415-2.417-2.415c-1.314,0-2.41,1.098-2.41,2.415
		C483.629,170.406,484.723,171.504,486.039,171.504L486.039,171.504z"/>
</g>
<g>
	<path fill="none" stroke="#000000" stroke-width="0.504" stroke-miterlimit="2.4142" d="M496.826,163.149
		c1.317,0,2.414-1.098,2.414-2.415c0-1.314-1.097-2.414-2.414-2.414c-1.314,0-2.412,1.1-2.412,2.414
		C494.414,162.052,495.51,163.149,496.826,163.149L496.826,163.149z"/>
	<path fill="none" stroke="#000000" stroke-width="0.504" stroke-miterlimit="2.4142" d="M486.039,163.149
		c1.32,0,2.417-1.098,2.417-2.415c0-1.314-1.097-2.414-2.417-2.414c-1.314,0-2.41,1.1-2.41,2.414
		C483.629,162.052,484.723,163.149,486.039,163.149L486.039,163.149z"/>
</g>
<g>
	<path fill="none" stroke="#000000" stroke-width="0.504" stroke-miterlimit="2.4142" d="M496.826,154.795
		c1.317,0,2.414-1.1,2.414-2.415c0-1.316-1.097-2.414-2.414-2.414c-1.314,0-2.412,1.098-2.412,2.414
		C494.414,153.696,495.51,154.795,496.826,154.795L496.826,154.795z"/>
	<path fill="none" stroke="#000000" stroke-width="0.504" stroke-miterlimit="2.4142" d="M486.039,154.795
		c1.32,0,2.417-1.1,2.417-2.415c0-1.316-1.097-2.414-2.417-2.414c-1.314,0-2.41,1.098-2.41,2.414
		C483.629,153.696,484.723,154.795,486.039,154.795L486.039,154.795z"/>
</g>
<g>
	<path fill="none" stroke="#000000" stroke-width="0.504" stroke-miterlimit="2.4142" d="M496.826,146.44
		c1.317,0,2.414-1.098,2.414-2.415c0-1.314-1.097-2.414-2.414-2.414c-1.314,0-2.412,1.1-2.412,2.414
		C494.414,145.342,495.51,146.44,496.826,146.44L496.826,146.44z"/>
	<path fill="none" stroke="#000000" stroke-width="0.504" stroke-miterlimit="2.4142" d="M486.039,146.44
		c1.32,0,2.417-1.098,2.417-2.415c0-1.314-1.097-2.414-2.417-2.414c-1.314,0-2.41,1.1-2.41,2.414
		C483.629,145.342,484.723,146.44,486.039,146.44L486.039,146.44z"/>
</g>
<g>
	<path fill="none" stroke="#000000" stroke-width="0.504" stroke-miterlimit="2.4142" d="M480.647,117.198
		c1.392,0,2.487-1.098,2.487-2.413c0-1.393-1.098-2.414-2.487-2.414c-1.316,0-2.413,1.021-2.413,2.414
		C478.234,116.101,479.331,117.198,480.647,117.198L480.647,117.198z"/>
	<path fill="none" stroke="#000000" stroke-width="0.504" stroke-miterlimit="2.4142" d="M502.219,117.198
		c1.392,0,2.491-1.098,2.491-2.413c0-1.393-1.102-2.414-2.491-2.414c-1.316,0-2.413,1.021-2.413,2.414
		C499.806,116.101,500.902,117.198,502.219,117.198L502.219,117.198z"/>
	<path fill="none" stroke="#000000" stroke-width="0.504" stroke-miterlimit="2.4142" d="M491.435,117.198
		c1.389,0,2.488-1.098,2.488-2.413c0-1.393-1.102-2.414-2.488-2.414c-1.316,0-2.416,1.021-2.416,2.414
		C489.019,116.101,490.118,117.198,491.435,117.198L491.435,117.198z"/>
</g>
<g>
	<path fill="none" stroke="#000000" stroke-width="0.504" stroke-miterlimit="2.4142" d="M480.647,108.844
		c1.392,0,2.487-1.098,2.487-2.415c0-1.391-1.098-2.414-2.487-2.414c-1.316,0-2.413,1.023-2.413,2.414
		C478.234,107.746,479.331,108.844,480.647,108.844L480.647,108.844z"/>
	<path fill="none" stroke="#000000" stroke-width="0.504" stroke-miterlimit="2.4142" d="M502.219,108.844
		c1.392,0,2.491-1.098,2.491-2.415c0-1.391-1.102-2.414-2.491-2.414c-1.316,0-2.413,1.023-2.413,2.414
		C499.806,107.746,500.902,108.844,502.219,108.844L502.219,108.844z"/>
	<path fill="none" stroke="#000000" stroke-width="0.504" stroke-miterlimit="2.4142" d="M491.435,108.844
		c1.389,0,2.488-1.098,2.488-2.415c0-1.391-1.102-2.414-2.488-2.414c-1.316,0-2.416,1.023-2.416,2.414
		C489.019,107.746,490.118,108.844,491.435,108.844L491.435,108.844z"/>
</g>
<path fill="none" stroke="#000000" stroke-width="0.504" stroke-miterlimit="2.4142" d="M491.436,192.398
	c1.388,0,2.412-1.1,2.412-2.415c0-1.314-1.024-2.414-2.412-2.414c-1.317,0-2.417,1.1-2.417,2.414
	C489.019,191.298,490.118,192.398,491.436,192.398L491.436,192.398z"/>
</svg>
