<?xml version="1.0" encoding="utf-8"?>
<!-- Generator: Adobe Illustrator 15.0.2, SVG Export Plug-In . SVG Version: 6.00 Build 0)  -->
<!DOCTYPE svg PUBLIC "-//W3C//DTD SVG 1.1//EN" "http://www.w3.org/Graphics/SVG/1.1/DTD/svg11.dtd">
<svg version="1.1" id="Armor" xmlns="http://www.w3.org/2000/svg" xmlns:xlink="http://www.w3.org/1999/xlink" x="0px" y="0px"
	 width="612px" height="792px" viewBox="0 0 612 792" enable-background="new 0 0 612 792" xml:space="preserve">
<path fill="#FFFFFF" stroke="#000000" stroke-width="2" d="M457.21,263.879"/>
<g>
	<path fill-rule="evenodd" clip-rule="evenodd" fill="none" stroke="#000000" stroke-width="0.504" stroke-miterlimit="2.4142" d="
		M480.648,150.529c1.391,0,2.412-1.099,2.412-2.415c0-1.315-1.021-2.414-2.412-2.414c-1.317,0-2.414,1.099-2.414,2.414
		C478.234,149.43,479.331,150.529,480.648,150.529L480.648,150.529z"/>
	<path fill-rule="evenodd" clip-rule="evenodd" fill="none" stroke="#000000" stroke-width="0.504" stroke-miterlimit="2.4142" d="
		M502.223,150.529c1.388,0,2.412-1.099,2.412-2.415c0-1.315-1.024-2.414-2.412-2.414c-1.317,0-2.417,1.099-2.417,2.414
		C499.806,149.43,500.905,150.529,502.223,150.529L502.223,150.529z"/>
	<path fill-rule="evenodd" clip-rule="evenodd" fill="none" stroke="#000000" stroke-width="0.504" stroke-miterlimit="2.4142" d="
		M491.436,150.529c1.388,0,2.412-1.099,2.412-2.415c0-1.315-1.024-2.414-2.412-2.414c-1.317,0-2.417,1.099-2.417,2.414
		C489.019,149.43,490.118,150.529,491.436,150.529L491.436,150.529z"/>
</g>
<g>
	<path fill-rule="evenodd" clip-rule="evenodd" fill="none" stroke="#000000" stroke-width="0.504" stroke-miterlimit="2.4142" d="
		M480.648,170.371c1.391,0,2.412-1.099,2.412-2.415c0-1.315-1.021-2.414-2.412-2.414c-1.317,0-2.414,1.099-2.414,2.414
		C478.234,169.272,479.331,170.371,480.648,170.371L480.648,170.371z"/>
	<path fill-rule="evenodd" clip-rule="evenodd" fill="none" stroke="#000000" stroke-width="0.504" stroke-miterlimit="2.4142" d="
		M502.223,170.371c1.388,0,2.412-1.099,2.412-2.415c0-1.315-1.024-2.414-2.412-2.414c-1.317,0-2.417,1.099-2.417,2.414
		C499.806,169.272,500.905,170.371,502.223,170.371L502.223,170.371z"/>
	<path fill-rule="evenodd" clip-rule="evenodd" fill="none" stroke="#000000" stroke-width="0.504" stroke-miterlimit="2.4142" d="
		M491.436,170.371c1.388,0,2.412-1.099,2.412-2.415c0-1.315-1.024-2.414-2.412-2.414c-1.317,0-2.417,1.099-2.417,2.414
		C489.019,169.272,490.118,170.371,491.436,170.371L491.436,170.371z"/>
</g>
<g>
	<path fill-rule="evenodd" clip-rule="evenodd" fill="none" stroke="#000000" stroke-width="0.504" stroke-miterlimit="2.4142" d="
		M491.436,180.292c1.388,0,2.412-1.099,2.412-2.415c0-1.315-1.024-2.414-2.412-2.414c-1.317,0-2.417,1.099-2.417,2.414
		C489.019,179.194,490.118,180.292,491.436,180.292L491.436,180.292z"/>
</g>
<g>
	<path fill-rule="evenodd" clip-rule="evenodd" fill="none" stroke="#000000" stroke-width="0.504" stroke-miterlimit="2.4142" d="
		M491.436,190.214c1.388,0,2.412-1.099,2.412-2.415c0-1.315-1.024-2.414-2.412-2.414c-1.317,0-2.417,1.099-2.417,2.414
		C489.019,189.115,490.118,190.214,491.436,190.214L491.436,190.214z"/>
</g>
<g>
	<path fill-rule="evenodd" clip-rule="evenodd" fill="none" stroke="#000000" stroke-width="0.504" stroke-miterlimit="2.4142" d="
		M480.648,160.45c1.391,0,2.412-1.099,2.412-2.415s-1.021-2.414-2.412-2.414c-1.317,0-2.414,1.098-2.414,2.414
		S479.331,160.45,480.648,160.45L480.648,160.45z"/>
	<path fill-rule="evenodd" clip-rule="evenodd" fill="none" stroke="#000000" stroke-width="0.504" stroke-miterlimit="2.4142" d="
		M502.223,160.45c1.388,0,2.412-1.099,2.412-2.415s-1.024-2.414-2.412-2.414c-1.317,0-2.417,1.098-2.417,2.414
		S500.905,160.45,502.223,160.45L502.223,160.45z"/>
	<path fill-rule="evenodd" clip-rule="evenodd" fill="none" stroke="#000000" stroke-width="0.504" stroke-miterlimit="2.4142" d="
		M491.436,160.45c1.388,0,2.412-1.099,2.412-2.415s-1.024-2.414-2.412-2.414c-1.317,0-2.417,1.098-2.417,2.414
		S490.118,160.45,491.436,160.45L491.436,160.45z"/>
</g>
<g>
	<path fill-rule="evenodd" clip-rule="evenodd" fill="none" stroke="#000000" stroke-width="0.504" stroke-miterlimit="2.4142" d="
		M480.647,120.765c1.392,0,2.487-1.098,2.487-2.415c0-1.391-1.096-2.414-2.487-2.414c-1.316,0-2.413,1.023-2.413,2.414
		C478.234,119.667,479.331,120.765,480.647,120.765L480.647,120.765z"/>
	<path fill-rule="evenodd" clip-rule="evenodd" fill="none" stroke="#000000" stroke-width="0.504" stroke-miterlimit="2.4142" d="
		M502.219,120.765c1.392,0,2.491-1.098,2.491-2.415c0-1.391-1.1-2.414-2.491-2.414c-1.316,0-2.413,1.023-2.413,2.414
		C499.806,119.667,500.902,120.765,502.219,120.765L502.219,120.765z"/>
	<path fill-rule="evenodd" clip-rule="evenodd" fill="none" stroke="#000000" stroke-width="0.504" stroke-miterlimit="2.4142" d="
		M491.435,120.765c1.389,0,2.488-1.098,2.488-2.415c0-1.391-1.1-2.414-2.488-2.414c-1.316,0-2.416,1.023-2.416,2.414
		C489.019,119.667,490.118,120.765,491.435,120.765L491.435,120.765z"/>
</g>
<g>
	<path fill-rule="evenodd" clip-rule="evenodd" fill="none" stroke="#000000" stroke-width="0.504" stroke-miterlimit="2.4142" d="
		M480.647,110.844c1.392,0,2.487-1.098,2.487-2.415c0-1.391-1.096-2.414-2.487-2.414c-1.316,0-2.413,1.023-2.413,2.414
		C478.234,109.746,479.331,110.844,480.647,110.844L480.647,110.844z"/>
	<path fill-rule="evenodd" clip-rule="evenodd" fill="none" stroke="#000000" stroke-width="0.504" stroke-miterlimit="2.4142" d="
		M502.219,110.844c1.392,0,2.491-1.098,2.491-2.415c0-1.391-1.1-2.414-2.491-2.414c-1.316,0-2.413,1.023-2.413,2.414
		C499.806,109.746,500.902,110.844,502.219,110.844L502.219,110.844z"/>
	<path fill-rule="evenodd" clip-rule="evenodd" fill="none" stroke="#000000" stroke-width="0.504" stroke-miterlimit="2.4142" d="
		M491.435,110.844c1.389,0,2.488-1.098,2.488-2.415c0-1.391-1.1-2.414-2.488-2.414c-1.316,0-2.416,1.023-2.416,2.414
		C489.019,109.746,490.118,110.844,491.435,110.844L491.435,110.844z"/>
</g>
<g>
	<path fill-rule="evenodd" clip-rule="evenodd" fill="none" stroke="#000000" stroke-width="0.504" stroke-miterlimit="2.4142" d="
		M480.647,130.687c1.392,0,2.487-1.098,2.487-2.415c0-1.391-1.096-2.414-2.487-2.414c-1.316,0-2.413,1.023-2.413,2.414
		C478.234,129.589,479.331,130.687,480.647,130.687L480.647,130.687z"/>
	<path fill-rule="evenodd" clip-rule="evenodd" fill="none" stroke="#000000" stroke-width="0.504" stroke-miterlimit="2.4142" d="
		M502.219,130.687c1.392,0,2.491-1.098,2.491-2.415c0-1.391-1.1-2.414-2.491-2.414c-1.316,0-2.413,1.023-2.413,2.414
		C499.806,129.589,500.902,130.687,502.219,130.687L502.219,130.687z"/>
	<path fill-rule="evenodd" clip-rule="evenodd" fill="none" stroke="#000000" stroke-width="0.504" stroke-miterlimit="2.4142" d="
		M491.435,130.687c1.389,0,2.488-1.098,2.488-2.415c0-1.391-1.1-2.414-2.488-2.414c-1.316,0-2.416,1.023-2.416,2.414
		C489.019,129.589,490.118,130.687,491.435,130.687L491.435,130.687z"/>
</g>
<g>
	<path fill-rule="evenodd" clip-rule="evenodd" fill="none" stroke="#000000" stroke-width="0.504" stroke-miterlimit="2.4142" d="
		M480.647,140.607c1.392,0,2.487-1.098,2.487-2.415c0-1.391-1.096-2.414-2.487-2.414c-1.316,0-2.413,1.023-2.413,2.414
		C478.234,139.51,479.331,140.607,480.647,140.607L480.647,140.607z"/>
	<path fill-rule="evenodd" clip-rule="evenodd" fill="none" stroke="#000000" stroke-width="0.504" stroke-miterlimit="2.4142" d="
		M502.219,140.607c1.392,0,2.491-1.098,2.491-2.415c0-1.391-1.1-2.414-2.491-2.414c-1.316,0-2.413,1.023-2.413,2.414
		C499.806,139.51,500.902,140.607,502.219,140.607L502.219,140.607z"/>
	<path fill-rule="evenodd" clip-rule="evenodd" fill="none" stroke="#000000" stroke-width="0.504" stroke-miterlimit="2.4142" d="
		M491.435,140.607c1.389,0,2.488-1.098,2.488-2.415c0-1.391-1.1-2.414-2.488-2.414c-1.316,0-2.416,1.023-2.416,2.414
		C489.019,139.51,490.118,140.607,491.435,140.607L491.435,140.607z"/>
</g>
<g>
	<path fill-rule="evenodd" clip-rule="evenodd" fill="none" stroke="#000000" stroke-width="0.504" stroke-miterlimit="2.4142" d="
		M496.826,175.332c1.317,0,2.414-1.098,2.414-2.415s-1.097-2.415-2.414-2.415c-1.316,0-2.412,1.098-2.412,2.415
		S495.51,175.332,496.826,175.332L496.826,175.332z"/>
	<path fill-rule="evenodd" clip-rule="evenodd" fill="none" stroke="#000000" stroke-width="0.504" stroke-miterlimit="2.4142" d="
		M486.039,175.332c1.32,0,2.417-1.098,2.417-2.415s-1.097-2.415-2.417-2.415c-1.316,0-2.412,1.098-2.412,2.415
		S484.723,175.332,486.039,175.332L486.039,175.332z"/>
</g>
<g>
	<path fill-rule="evenodd" clip-rule="evenodd" fill="none" stroke="#000000" stroke-width="0.504" stroke-miterlimit="2.4142" d="
		M496.826,115.804c1.317,0,2.414-1.098,2.414-2.415s-1.097-2.415-2.414-2.415c-1.316,0-2.412,1.098-2.412,2.415
		S495.51,115.804,496.826,115.804L496.826,115.804z"/>
	<path fill-rule="evenodd" clip-rule="evenodd" fill="none" stroke="#000000" stroke-width="0.504" stroke-miterlimit="2.4142" d="
		M486.039,115.804c1.32,0,2.417-1.098,2.417-2.415s-1.097-2.415-2.417-2.415c-1.316,0-2.412,1.098-2.412,2.415
		S484.723,115.804,486.039,115.804L486.039,115.804z"/>
</g>
<g>
	<path fill-rule="evenodd" clip-rule="evenodd" fill="none" stroke="#000000" stroke-width="0.504" stroke-miterlimit="2.4142" d="
		M496.826,185.253c1.317,0,2.414-1.098,2.414-2.415s-1.097-2.415-2.414-2.415c-1.316,0-2.412,1.098-2.412,2.415
		S495.51,185.253,496.826,185.253L496.826,185.253z"/>
	<path fill-rule="evenodd" clip-rule="evenodd" fill="none" stroke="#000000" stroke-width="0.504" stroke-miterlimit="2.4142" d="
		M486.039,185.253c1.32,0,2.417-1.098,2.417-2.415s-1.097-2.415-2.417-2.415c-1.316,0-2.412,1.098-2.412,2.415
		S484.723,185.253,486.039,185.253L486.039,185.253z"/>
</g>
<g>
	<path fill-rule="evenodd" clip-rule="evenodd" fill="none" stroke="#000000" stroke-width="0.504" stroke-miterlimit="2.4142" d="
		M496.826,165.411c1.317,0,2.414-1.098,2.414-2.415s-1.097-2.415-2.414-2.415c-1.316,0-2.412,1.098-2.412,2.415
		S495.51,165.411,496.826,165.411L496.826,165.411z"/>
	<path fill-rule="evenodd" clip-rule="evenodd" fill="none" stroke="#000000" stroke-width="0.504" stroke-miterlimit="2.4142" d="
		M486.039,165.411c1.32,0,2.417-1.098,2.417-2.415s-1.097-2.415-2.417-2.415c-1.316,0-2.412,1.098-2.412,2.415
		S484.723,165.411,486.039,165.411L486.039,165.411z"/>
</g>
<g>
	<path fill-rule="evenodd" clip-rule="evenodd" fill="none" stroke="#000000" stroke-width="0.504" stroke-miterlimit="2.4142" d="
		M496.826,155.489c1.317,0,2.414-1.098,2.414-2.415s-1.097-2.415-2.414-2.415c-1.316,0-2.412,1.098-2.412,2.415
		S495.51,155.489,496.826,155.489L496.826,155.489z"/>
	<path fill-rule="evenodd" clip-rule="evenodd" fill="none" stroke="#000000" stroke-width="0.504" stroke-miterlimit="2.4142" d="
		M486.039,155.489c1.32,0,2.417-1.098,2.417-2.415s-1.097-2.415-2.417-2.415c-1.316,0-2.412,1.098-2.412,2.415
		S484.723,155.489,486.039,155.489L486.039,155.489z"/>
</g>
<g>
	<path fill-rule="evenodd" clip-rule="evenodd" fill="none" stroke="#000000" stroke-width="0.504" stroke-miterlimit="2.4142" d="
		M496.826,145.568c1.317,0,2.414-1.098,2.414-2.415c0-1.316-1.097-2.414-2.414-2.414c-1.316,0-2.412,1.098-2.412,2.414
		C494.414,144.471,495.51,145.568,496.826,145.568L496.826,145.568z"/>
	<path fill-rule="evenodd" clip-rule="evenodd" fill="none" stroke="#000000" stroke-width="0.504" stroke-miterlimit="2.4142" d="
		M486.039,145.568c1.32,0,2.417-1.098,2.417-2.415c0-1.316-1.097-2.414-2.417-2.414c-1.316,0-2.412,1.098-2.412,2.414
		C483.627,144.471,484.723,145.568,486.039,145.568L486.039,145.568z"/>
</g>
<g>
	<path fill-rule="evenodd" clip-rule="evenodd" fill="none" stroke="#000000" stroke-width="0.504" stroke-miterlimit="2.4142" d="
		M496.826,135.647c1.317,0,2.414-1.098,2.414-2.415c0-1.316-1.097-2.414-2.414-2.414c-1.316,0-2.412,1.098-2.412,2.414
		C494.414,134.549,495.51,135.647,496.826,135.647L496.826,135.647z"/>
	<path fill-rule="evenodd" clip-rule="evenodd" fill="none" stroke="#000000" stroke-width="0.504" stroke-miterlimit="2.4142" d="
		M486.039,135.647c1.32,0,2.417-1.098,2.417-2.415c0-1.316-1.097-2.414-2.417-2.414c-1.316,0-2.412,1.098-2.412,2.414
		C483.627,134.549,484.723,135.647,486.039,135.647L486.039,135.647z"/>
</g>
<g>
	<path fill-rule="evenodd" clip-rule="evenodd" fill="none" stroke="#000000" stroke-width="0.504" stroke-miterlimit="2.4142" d="
		M496.826,125.726c1.317,0,2.414-1.098,2.414-2.415c0-1.316-1.097-2.414-2.414-2.414c-1.316,0-2.412,1.098-2.412,2.414
		C494.414,124.628,495.51,125.726,496.826,125.726L496.826,125.726z"/>
	<path fill-rule="evenodd" clip-rule="evenodd" fill="none" stroke="#000000" stroke-width="0.504" stroke-miterlimit="2.4142" d="
		M486.039,125.726c1.32,0,2.417-1.098,2.417-2.415c0-1.316-1.097-2.414-2.417-2.414c-1.316,0-2.412,1.098-2.412,2.414
		C483.627,124.628,484.723,125.726,486.039,125.726L486.039,125.726z"/>
</g>
</svg>
