<?xml version="1.0" encoding="utf-8"?>
<!-- Generator: Adobe Illustrator 15.0.2, SVG Export Plug-In . SVG Version: 6.00 Build 0)  -->
<!DOCTYPE svg PUBLIC "-//W3C//DTD SVG 1.1//EN" "http://www.w3.org/Graphics/SVG/1.1/DTD/svg11.dtd">
<svg version="1.1" id="Armor" xmlns="http://www.w3.org/2000/svg" xmlns:xlink="http://www.w3.org/1999/xlink" x="0px" y="0px"
	 width="612px" height="792px" viewBox="0 0 612 792" enable-background="new 0 0 612 792" xml:space="preserve">
<g>
	<g>
		<path fill="none" stroke="#000000" stroke-width="0.504" stroke-miterlimit="2.4142" d="M499.836,335.226
			c1.129,0,2.063-0.93,2.063-2.062c0-1.13-0.935-1.995-2.063-1.995s-1.996,0.865-1.996,1.995
			C497.84,334.295,498.707,335.226,499.836,335.226L499.836,335.226z"/>
	</g>
	<g>
		<path fill="none" stroke="#000000" stroke-width="0.504" stroke-miterlimit="2.4142" d="M482.633,335.226
			c1.131,0,2.063-0.93,2.063-2.062c0-1.13-0.933-1.995-2.063-1.995c-1.129,0-1.994,0.865-1.994,1.995
			C480.639,334.295,481.504,335.226,482.633,335.226L482.633,335.226z"/>
	</g>
</g>
<g>
	<g>
		<path fill="none" stroke="#000000" stroke-width="0.504" stroke-miterlimit="2.4142" d="M499.836,320.317
			c1.129,0,2.063-0.93,2.063-2.062c0-1.13-0.935-1.995-2.063-1.995s-1.996,0.865-1.996,1.995
			C497.84,319.387,498.707,320.317,499.836,320.317L499.836,320.317z"/>
	</g>
	<g>
		<path fill="none" stroke="#000000" stroke-width="0.504" stroke-miterlimit="2.4142" d="M482.633,320.317
			c1.131,0,2.063-0.93,2.063-2.062c0-1.13-0.933-1.995-2.063-1.995c-1.129,0-1.994,0.865-1.994,1.995
			C480.639,319.387,481.504,320.317,482.633,320.317L482.633,320.317z"/>
	</g>
</g>
<g>
	<g>
		<path fill="none" stroke="#000000" stroke-width="0.504" stroke-miterlimit="2.4142" d="M499.836,350.134
			c1.129,0,2.063-0.93,2.063-2.062c0-1.13-0.935-1.995-2.063-1.995s-1.996,0.865-1.996,1.995
			C497.84,349.204,498.707,350.134,499.836,350.134L499.836,350.134z"/>
	</g>
	<g>
		<path fill="none" stroke="#000000" stroke-width="0.504" stroke-miterlimit="2.4142" d="M482.633,350.134
			c1.131,0,2.063-0.93,2.063-2.062c0-1.13-0.933-1.995-2.063-1.995c-1.129,0-1.994,0.865-1.994,1.995
			C480.639,349.204,481.504,350.134,482.633,350.134L482.633,350.134z"/>
	</g>
</g>
<g>
	<g>
		<path fill="none" stroke="#000000" stroke-width="0.504" stroke-miterlimit="2.4142" d="M499.836,365.042
			c1.129,0,2.063-0.93,2.063-2.062c0-1.13-0.935-1.995-2.063-1.995s-1.996,0.865-1.996,1.995
			C497.84,364.112,498.707,365.042,499.836,365.042L499.836,365.042z"/>
	</g>
	<g>
		<path fill="none" stroke="#000000" stroke-width="0.504" stroke-miterlimit="2.4142" d="M482.633,365.042
			c1.131,0,2.063-0.93,2.063-2.062c0-1.13-0.933-1.995-2.063-1.995c-1.129,0-1.994,0.865-1.994,1.995
			C480.639,364.112,481.504,365.042,482.633,365.042L482.633,365.042z"/>
	</g>
</g>
</svg>
