<?xml version="1.0" encoding="utf-8"?>
<!-- Generator: Adobe Illustrator 15.0.2, SVG Export Plug-In . SVG Version: 6.00 Build 0)  -->
<!DOCTYPE svg PUBLIC "-//W3C//DTD SVG 1.1//EN" "http://www.w3.org/Graphics/SVG/1.1/DTD/svg11.dtd">
<svg version="1.1" id="Armor" xmlns="http://www.w3.org/2000/svg" xmlns:xlink="http://www.w3.org/1999/xlink" x="0px" y="0px"
	 width="612px" height="792px" viewBox="0 0 612 792" enable-background="new 0 0 612 792" xml:space="preserve">
<path fill="#FFFFFF" stroke="#000000" stroke-width="2" d="M457.21,263.879"/>
<g>
	<g>
		<path fill-rule="evenodd" clip-rule="evenodd" fill="none" stroke="#000000" stroke-width="0.504" stroke-miterlimit="2.4142" d="
			M480.648,134.361c1.391,0,2.412,1.099,2.412,2.415c0,1.315-1.021,2.414-2.412,2.414c-1.317,0-2.414-1.099-2.414-2.414
			C478.234,135.459,479.331,134.361,480.648,134.361L480.648,134.361z"/>
		<path fill-rule="evenodd" clip-rule="evenodd" fill="none" stroke="#000000" stroke-width="0.504" stroke-miterlimit="2.4142" d="
			M502.223,134.361c1.388,0,2.412,1.099,2.412,2.415c0,1.315-1.024,2.414-2.412,2.414c-1.317,0-2.417-1.099-2.417-2.414
			C499.806,135.459,500.905,134.361,502.223,134.361L502.223,134.361z"/>
		<path fill-rule="evenodd" clip-rule="evenodd" fill="none" stroke="#000000" stroke-width="0.504" stroke-miterlimit="2.4142" d="
			M491.436,134.361c1.388,0,2.412,1.099,2.412,2.415c0,1.315-1.024,2.414-2.412,2.414c-1.317,0-2.417-1.099-2.417-2.414
			C489.019,135.459,490.118,134.361,491.436,134.361L491.436,134.361z"/>
	</g>
	<g>
		<path fill-rule="evenodd" clip-rule="evenodd" fill="none" stroke="#000000" stroke-width="0.504" stroke-miterlimit="2.4142" d="
			M480.648,111.684c1.391,0,2.412,1.099,2.412,2.415c0,1.315-1.021,2.414-2.412,2.414c-1.317,0-2.414-1.099-2.414-2.414
			C478.234,112.782,479.331,111.684,480.648,111.684L480.648,111.684z"/>
		<path fill-rule="evenodd" clip-rule="evenodd" fill="none" stroke="#000000" stroke-width="0.504" stroke-miterlimit="2.4142" d="
			M502.223,111.684c1.388,0,2.412,1.099,2.412,2.415c0,1.315-1.024,2.414-2.412,2.414c-1.317,0-2.417-1.099-2.417-2.414
			C499.806,112.782,500.905,111.684,502.223,111.684L502.223,111.684z"/>
		<path fill-rule="evenodd" clip-rule="evenodd" fill="none" stroke="#000000" stroke-width="0.504" stroke-miterlimit="2.4142" d="
			M491.436,111.684c1.388,0,2.412,1.099,2.412,2.415c0,1.315-1.024,2.414-2.412,2.414c-1.317,0-2.417-1.099-2.417-2.414
			C489.019,112.782,490.118,111.684,491.436,111.684L491.436,111.684z"/>
	</g>
	<g>
		<path fill-rule="evenodd" clip-rule="evenodd" fill="none" stroke="#000000" stroke-width="0.504" stroke-miterlimit="2.4142" d="
			M491.436,179.715c1.388,0,2.412,1.099,2.412,2.415c0,1.316-1.024,2.414-2.412,2.414c-1.317,0-2.417-1.098-2.417-2.414
			C489.019,180.814,490.118,179.715,491.436,179.715L491.436,179.715z"/>
	</g>
	<g>
		<path fill-rule="evenodd" clip-rule="evenodd" fill="none" stroke="#000000" stroke-width="0.504" stroke-miterlimit="2.4142" d="
			M480.648,123.022c1.391,0,2.412,1.099,2.412,2.415s-1.021,2.414-2.412,2.414c-1.317,0-2.414-1.098-2.414-2.414
			S479.331,123.022,480.648,123.022L480.648,123.022z"/>
		<path fill-rule="evenodd" clip-rule="evenodd" fill="none" stroke="#000000" stroke-width="0.504" stroke-miterlimit="2.4142" d="
			M502.223,123.022c1.388,0,2.412,1.099,2.412,2.415s-1.024,2.414-2.412,2.414c-1.317,0-2.417-1.098-2.417-2.414
			S500.905,123.022,502.223,123.022L502.223,123.022z"/>
		<path fill-rule="evenodd" clip-rule="evenodd" fill="none" stroke="#000000" stroke-width="0.504" stroke-miterlimit="2.4142" d="
			M491.436,123.022c1.388,0,2.412,1.099,2.412,2.415s-1.024,2.414-2.412,2.414c-1.317,0-2.417-1.098-2.417-2.414
			S490.118,123.022,491.436,123.022L491.436,123.022z"/>
	</g>
	<g>
		<path fill-rule="evenodd" clip-rule="evenodd" fill="none" stroke="#000000" stroke-width="0.504" stroke-miterlimit="2.4142" d="
			M480.647,168.376c1.392,0,2.487,1.098,2.487,2.415c0,1.391-1.096,2.414-2.487,2.414c-1.316,0-2.413-1.023-2.413-2.414
			C478.234,169.474,479.331,168.376,480.647,168.376L480.647,168.376z"/>
		<path fill-rule="evenodd" clip-rule="evenodd" fill="none" stroke="#000000" stroke-width="0.504" stroke-miterlimit="2.4142" d="
			M502.219,168.376c1.392,0,2.491,1.098,2.491,2.415c0,1.391-1.1,2.414-2.491,2.414c-1.316,0-2.413-1.023-2.413-2.414
			C499.806,169.474,500.902,168.376,502.219,168.376L502.219,168.376z"/>
		<path fill-rule="evenodd" clip-rule="evenodd" fill="none" stroke="#000000" stroke-width="0.504" stroke-miterlimit="2.4142" d="
			M491.435,168.376c1.389,0,2.488,1.098,2.488,2.415c0,1.391-1.1,2.414-2.488,2.414c-1.316,0-2.416-1.023-2.416-2.414
			C489.019,169.474,490.118,168.376,491.435,168.376L491.435,168.376z"/>
	</g>
	<g>
		<path fill-rule="evenodd" clip-rule="evenodd" fill="none" stroke="#000000" stroke-width="0.504" stroke-miterlimit="2.4142" d="
			M480.647,157.038c1.392,0,2.487,1.098,2.487,2.415c0,1.391-1.096,2.414-2.487,2.414c-1.316,0-2.413-1.023-2.413-2.414
			C478.234,158.136,479.331,157.038,480.647,157.038L480.647,157.038z"/>
		<path fill-rule="evenodd" clip-rule="evenodd" fill="none" stroke="#000000" stroke-width="0.504" stroke-miterlimit="2.4142" d="
			M502.219,157.038c1.392,0,2.491,1.098,2.491,2.415c0,1.391-1.1,2.414-2.491,2.414c-1.316,0-2.413-1.023-2.413-2.414
			C499.806,158.136,500.902,157.038,502.219,157.038L502.219,157.038z"/>
		<path fill-rule="evenodd" clip-rule="evenodd" fill="none" stroke="#000000" stroke-width="0.504" stroke-miterlimit="2.4142" d="
			M491.435,157.038c1.389,0,2.488,1.098,2.488,2.415c0,1.391-1.1,2.414-2.488,2.414c-1.316,0-2.416-1.023-2.416-2.414
			C489.019,158.136,490.118,157.038,491.435,157.038L491.435,157.038z"/>
	</g>
	<g>
		<path fill-rule="evenodd" clip-rule="evenodd" fill="none" stroke="#000000" stroke-width="0.504" stroke-miterlimit="2.4142" d="
			M480.647,145.7c1.392,0,2.487,1.098,2.487,2.415c0,1.391-1.096,2.414-2.487,2.414c-1.316,0-2.413-1.023-2.413-2.414
			C478.234,146.797,479.331,145.7,480.647,145.7L480.647,145.7z"/>
		<path fill-rule="evenodd" clip-rule="evenodd" fill="none" stroke="#000000" stroke-width="0.504" stroke-miterlimit="2.4142" d="
			M502.219,145.7c1.392,0,2.491,1.098,2.491,2.415c0,1.391-1.1,2.414-2.491,2.414c-1.316,0-2.413-1.023-2.413-2.414
			C499.806,146.797,500.902,145.7,502.219,145.7L502.219,145.7z"/>
		<path fill-rule="evenodd" clip-rule="evenodd" fill="none" stroke="#000000" stroke-width="0.504" stroke-miterlimit="2.4142" d="
			M491.435,145.7c1.389,0,2.488,1.098,2.488,2.415c0,1.391-1.1,2.414-2.488,2.414c-1.316,0-2.416-1.023-2.416-2.414
			C489.019,146.797,490.118,145.7,491.435,145.7L491.435,145.7z"/>
	</g>
	<g>
		<path fill-rule="evenodd" clip-rule="evenodd" fill="none" stroke="#000000" stroke-width="0.504" stroke-miterlimit="2.4142" d="
			M496.826,106.015c1.317,0,2.414,1.098,2.414,2.415s-1.097,2.415-2.414,2.415c-1.316,0-2.412-1.098-2.412-2.415
			S495.51,106.015,496.826,106.015L496.826,106.015z"/>
		<path fill-rule="evenodd" clip-rule="evenodd" fill="none" stroke="#000000" stroke-width="0.504" stroke-miterlimit="2.4142" d="
			M486.039,106.015c1.32,0,2.417,1.098,2.417,2.415s-1.097,2.415-2.417,2.415c-1.316,0-2.412-1.098-2.412-2.415
			S484.723,106.015,486.039,106.015L486.039,106.015z"/>
	</g>
	<g>
		<path fill-rule="evenodd" clip-rule="evenodd" fill="none" stroke="#000000" stroke-width="0.504" stroke-miterlimit="2.4142" d="
			M496.826,174.046c1.317,0,2.414,1.098,2.414,2.415s-1.097,2.415-2.414,2.415c-1.316,0-2.412-1.098-2.412-2.415
			S495.51,174.046,496.826,174.046L496.826,174.046z"/>
		<path fill-rule="evenodd" clip-rule="evenodd" fill="none" stroke="#000000" stroke-width="0.504" stroke-miterlimit="2.4142" d="
			M486.039,174.046c1.32,0,2.417,1.098,2.417,2.415s-1.097,2.415-2.417,2.415c-1.316,0-2.412-1.098-2.412-2.415
			S484.723,174.046,486.039,174.046L486.039,174.046z"/>
	</g>
	<g>
		<path fill-rule="evenodd" clip-rule="evenodd" fill="none" stroke="#000000" stroke-width="0.504" stroke-miterlimit="2.4142" d="
			M496.826,185.385c1.317,0,2.414,1.098,2.414,2.415s-1.097,2.415-2.414,2.415c-1.316,0-2.412-1.098-2.412-2.415
			S495.51,185.385,496.826,185.385L496.826,185.385z"/>
		<path fill-rule="evenodd" clip-rule="evenodd" fill="none" stroke="#000000" stroke-width="0.504" stroke-miterlimit="2.4142" d="
			M486.039,185.385c1.32,0,2.417,1.098,2.417,2.415s-1.097,2.415-2.417,2.415c-1.316,0-2.412-1.098-2.412-2.415
			S484.723,185.385,486.039,185.385L486.039,185.385z"/>
	</g>
	<g>
		<path fill-rule="evenodd" clip-rule="evenodd" fill="none" stroke="#000000" stroke-width="0.504" stroke-miterlimit="2.4142" d="
			M496.826,117.353c1.317,0,2.414,1.098,2.414,2.415s-1.097,2.415-2.414,2.415c-1.316,0-2.412-1.098-2.412-2.415
			S495.51,117.353,496.826,117.353L496.826,117.353z"/>
		<path fill-rule="evenodd" clip-rule="evenodd" fill="none" stroke="#000000" stroke-width="0.504" stroke-miterlimit="2.4142" d="
			M486.039,117.353c1.32,0,2.417,1.098,2.417,2.415s-1.097,2.415-2.417,2.415c-1.316,0-2.412-1.098-2.412-2.415
			S484.723,117.353,486.039,117.353L486.039,117.353z"/>
	</g>
	<g>
		<path fill-rule="evenodd" clip-rule="evenodd" fill="none" stroke="#000000" stroke-width="0.504" stroke-miterlimit="2.4142" d="
			M496.826,128.692c1.317,0,2.414,1.098,2.414,2.415s-1.097,2.415-2.414,2.415c-1.316,0-2.412-1.098-2.412-2.415
			S495.51,128.692,496.826,128.692L496.826,128.692z"/>
		<path fill-rule="evenodd" clip-rule="evenodd" fill="none" stroke="#000000" stroke-width="0.504" stroke-miterlimit="2.4142" d="
			M486.039,128.692c1.32,0,2.417,1.098,2.417,2.415s-1.097,2.415-2.417,2.415c-1.316,0-2.412-1.098-2.412-2.415
			S484.723,128.692,486.039,128.692L486.039,128.692z"/>
	</g>
	<g>
		<path fill-rule="evenodd" clip-rule="evenodd" fill="none" stroke="#000000" stroke-width="0.504" stroke-miterlimit="2.4142" d="
			M496.826,140.03c1.317,0,2.414,1.098,2.414,2.415c0,1.316-1.097,2.414-2.414,2.414c-1.316,0-2.412-1.098-2.412-2.414
			C494.414,141.128,495.51,140.03,496.826,140.03L496.826,140.03z"/>
		<path fill-rule="evenodd" clip-rule="evenodd" fill="none" stroke="#000000" stroke-width="0.504" stroke-miterlimit="2.4142" d="
			M486.039,140.03c1.32,0,2.417,1.098,2.417,2.415c0,1.316-1.097,2.414-2.417,2.414c-1.316,0-2.412-1.098-2.412-2.414
			C483.627,141.128,484.723,140.03,486.039,140.03L486.039,140.03z"/>
	</g>
	<g>
		<path fill-rule="evenodd" clip-rule="evenodd" fill="none" stroke="#000000" stroke-width="0.504" stroke-miterlimit="2.4142" d="
			M496.826,151.369c1.317,0,2.414,1.098,2.414,2.415c0,1.316-1.097,2.414-2.414,2.414c-1.316,0-2.412-1.098-2.412-2.414
			C494.414,152.466,495.51,151.369,496.826,151.369L496.826,151.369z"/>
		<path fill-rule="evenodd" clip-rule="evenodd" fill="none" stroke="#000000" stroke-width="0.504" stroke-miterlimit="2.4142" d="
			M486.039,151.369c1.32,0,2.417,1.098,2.417,2.415c0,1.316-1.097,2.414-2.417,2.414c-1.316,0-2.412-1.098-2.412-2.414
			C483.627,152.466,484.723,151.369,486.039,151.369L486.039,151.369z"/>
	</g>
	<g>
		<path fill-rule="evenodd" clip-rule="evenodd" fill="none" stroke="#000000" stroke-width="0.504" stroke-miterlimit="2.4142" d="
			M496.826,162.708c1.317,0,2.414,1.098,2.414,2.415c0,1.316-1.097,2.414-2.414,2.414c-1.316,0-2.412-1.098-2.412-2.414
			C494.414,163.805,495.51,162.708,496.826,162.708L496.826,162.708z"/>
		<path fill-rule="evenodd" clip-rule="evenodd" fill="none" stroke="#000000" stroke-width="0.504" stroke-miterlimit="2.4142" d="
			M486.039,162.708c1.32,0,2.417,1.098,2.417,2.415c0,1.316-1.097,2.414-2.417,2.414c-1.316,0-2.412-1.098-2.412-2.414
			C483.627,163.805,484.723,162.708,486.039,162.708L486.039,162.708z"/>
	</g>
</g>
</svg>
