<?xml version="1.0" encoding="utf-8"?>
<!-- Generator: Adobe Illustrator 15.0.2, SVG Export Plug-In . SVG Version: 6.00 Build 0)  -->
<!DOCTYPE svg PUBLIC "-//W3C//DTD SVG 1.1//EN" "http://www.w3.org/Graphics/SVG/1.1/DTD/svg11.dtd">
<svg version="1.1" id="Armor" xmlns="http://www.w3.org/2000/svg" xmlns:xlink="http://www.w3.org/1999/xlink" x="0px" y="0px"
	 width="612px" height="792px" viewBox="0 0 612 792" enable-background="new 0 0 612 792" xml:space="preserve">
<path fill="#FFFFFF" stroke="#000000" stroke-width="2" d="M457.21,263.879"/>
<g>
	<path fill-rule="evenodd" clip-rule="evenodd" fill="none" stroke="#000000" stroke-width="0.504" stroke-miterlimit="2.4142" d="
		M480.648,162.201c1.391,0,2.412-1.099,2.412-2.415c0-1.315-1.021-2.414-2.412-2.414c-1.317,0-2.414,1.099-2.414,2.414
		C478.234,161.102,479.331,162.201,480.648,162.201L480.648,162.201z"/>
	<path fill-rule="evenodd" clip-rule="evenodd" fill="none" stroke="#000000" stroke-width="0.504" stroke-miterlimit="2.4142" d="
		M502.223,162.201c1.388,0,2.412-1.099,2.412-2.415c0-1.315-1.024-2.414-2.412-2.414c-1.317,0-2.417,1.099-2.417,2.414
		C499.806,161.102,500.905,162.201,502.223,162.201L502.223,162.201z"/>
	<path fill-rule="evenodd" clip-rule="evenodd" fill="none" stroke="#000000" stroke-width="0.504" stroke-miterlimit="2.4142" d="
		M491.436,162.201c1.388,0,2.412-1.099,2.412-2.415c0-1.315-1.024-2.414-2.412-2.414c-1.317,0-2.417,1.099-2.417,2.414
		C489.019,161.102,490.118,162.201,491.436,162.201L491.436,162.201z"/>
</g>
<g>
	<path fill-rule="evenodd" clip-rule="evenodd" fill="none" stroke="#000000" stroke-width="0.504" stroke-miterlimit="2.4142" d="
		M480.648,180.876c1.391,0,2.412-1.099,2.412-2.415c0-1.315-1.021-2.414-2.412-2.414c-1.317,0-2.414,1.099-2.414,2.414
		C478.234,179.777,479.331,180.876,480.648,180.876L480.648,180.876z"/>
	<path fill-rule="evenodd" clip-rule="evenodd" fill="none" stroke="#000000" stroke-width="0.504" stroke-miterlimit="2.4142" d="
		M502.223,180.876c1.388,0,2.412-1.099,2.412-2.415c0-1.315-1.024-2.414-2.412-2.414c-1.317,0-2.417,1.099-2.417,2.414
		C499.806,179.777,500.905,180.876,502.223,180.876L502.223,180.876z"/>
	<path fill-rule="evenodd" clip-rule="evenodd" fill="none" stroke="#000000" stroke-width="0.504" stroke-miterlimit="2.4142" d="
		M491.436,180.876c1.388,0,2.412-1.099,2.412-2.415c0-1.315-1.024-2.414-2.412-2.414c-1.317,0-2.417,1.099-2.417,2.414
		C489.019,179.777,490.118,180.876,491.436,180.876L491.436,180.876z"/>
</g>
<g>
	<path fill-rule="evenodd" clip-rule="evenodd" fill="none" stroke="#000000" stroke-width="0.504" stroke-miterlimit="2.4142" d="
		M491.436,190.214c1.388,0,2.412-1.099,2.412-2.415c0-1.315-1.024-2.414-2.412-2.414c-1.317,0-2.417,1.099-2.417,2.414
		C489.019,189.115,490.118,190.214,491.436,190.214L491.436,190.214z"/>
</g>
<g>
	<path fill-rule="evenodd" clip-rule="evenodd" fill="none" stroke="#000000" stroke-width="0.504" stroke-miterlimit="2.4142" d="
		M480.648,171.539c1.391,0,2.412-1.099,2.412-2.415s-1.021-2.414-2.412-2.414c-1.317,0-2.414,1.098-2.414,2.414
		S479.331,171.539,480.648,171.539L480.648,171.539z"/>
	<path fill-rule="evenodd" clip-rule="evenodd" fill="none" stroke="#000000" stroke-width="0.504" stroke-miterlimit="2.4142" d="
		M502.223,171.539c1.388,0,2.412-1.099,2.412-2.415s-1.024-2.414-2.412-2.414c-1.317,0-2.417,1.098-2.417,2.414
		S500.905,171.539,502.223,171.539L502.223,171.539z"/>
	<path fill-rule="evenodd" clip-rule="evenodd" fill="none" stroke="#000000" stroke-width="0.504" stroke-miterlimit="2.4142" d="
		M491.436,171.539c1.388,0,2.412-1.099,2.412-2.415s-1.024-2.414-2.412-2.414c-1.317,0-2.417,1.098-2.417,2.414
		S490.118,171.539,491.436,171.539L491.436,171.539z"/>
</g>
<g>
	<path fill-rule="evenodd" clip-rule="evenodd" fill="none" stroke="#000000" stroke-width="0.504" stroke-miterlimit="2.4142" d="
		M480.647,134.188c1.392,0,2.487-1.098,2.487-2.415c0-1.391-1.096-2.414-2.487-2.414c-1.316,0-2.413,1.023-2.413,2.414
		C478.234,133.09,479.331,134.188,480.647,134.188L480.647,134.188z"/>
	<path fill-rule="evenodd" clip-rule="evenodd" fill="none" stroke="#000000" stroke-width="0.504" stroke-miterlimit="2.4142" d="
		M502.219,134.188c1.392,0,2.491-1.098,2.491-2.415c0-1.391-1.1-2.414-2.491-2.414c-1.316,0-2.413,1.023-2.413,2.414
		C499.806,133.09,500.902,134.188,502.219,134.188L502.219,134.188z"/>
	<path fill-rule="evenodd" clip-rule="evenodd" fill="none" stroke="#000000" stroke-width="0.504" stroke-miterlimit="2.4142" d="
		M491.435,134.188c1.389,0,2.488-1.098,2.488-2.415c0-1.391-1.1-2.414-2.488-2.414c-1.316,0-2.416,1.023-2.416,2.414
		C489.019,133.09,490.118,134.188,491.435,134.188L491.435,134.188z"/>
</g>
<g>
	<path fill-rule="evenodd" clip-rule="evenodd" fill="none" stroke="#000000" stroke-width="0.504" stroke-miterlimit="2.4142" d="
		M480.647,124.85c1.392,0,2.487-1.098,2.487-2.415c0-1.391-1.096-2.414-2.487-2.414c-1.316,0-2.413,1.023-2.413,2.414
		C478.234,123.752,479.331,124.85,480.647,124.85L480.647,124.85z"/>
	<path fill-rule="evenodd" clip-rule="evenodd" fill="none" stroke="#000000" stroke-width="0.504" stroke-miterlimit="2.4142" d="
		M502.219,124.85c1.392,0,2.491-1.098,2.491-2.415c0-1.391-1.1-2.414-2.491-2.414c-1.316,0-2.413,1.023-2.413,2.414
		C499.806,123.752,500.902,124.85,502.219,124.85L502.219,124.85z"/>
	<path fill-rule="evenodd" clip-rule="evenodd" fill="none" stroke="#000000" stroke-width="0.504" stroke-miterlimit="2.4142" d="
		M491.435,124.85c1.389,0,2.488-1.098,2.488-2.415c0-1.391-1.1-2.414-2.488-2.414c-1.316,0-2.416,1.023-2.416,2.414
		C489.019,123.752,490.118,124.85,491.435,124.85L491.435,124.85z"/>
</g>
<g>
	<path fill-rule="evenodd" clip-rule="evenodd" fill="none" stroke="#000000" stroke-width="0.504" stroke-miterlimit="2.4142" d="
		M480.647,115.513c1.392,0,2.487-1.098,2.487-2.415c0-1.391-1.096-2.414-2.487-2.414c-1.316,0-2.413,1.023-2.413,2.414
		C478.234,114.415,479.331,115.513,480.647,115.513L480.647,115.513z"/>
	<path fill-rule="evenodd" clip-rule="evenodd" fill="none" stroke="#000000" stroke-width="0.504" stroke-miterlimit="2.4142" d="
		M502.219,115.513c1.392,0,2.491-1.098,2.491-2.415c0-1.391-1.1-2.414-2.491-2.414c-1.316,0-2.413,1.023-2.413,2.414
		C499.806,114.415,500.902,115.513,502.219,115.513L502.219,115.513z"/>
	<path fill-rule="evenodd" clip-rule="evenodd" fill="none" stroke="#000000" stroke-width="0.504" stroke-miterlimit="2.4142" d="
		M491.435,115.513c1.389,0,2.488-1.098,2.488-2.415c0-1.391-1.1-2.414-2.488-2.414c-1.316,0-2.416,1.023-2.416,2.414
		C489.019,114.415,490.118,115.513,491.435,115.513L491.435,115.513z"/>
</g>
<g>
	<path fill-rule="evenodd" clip-rule="evenodd" fill="none" stroke="#000000" stroke-width="0.504" stroke-miterlimit="2.4142" d="
		M480.647,143.525c1.392,0,2.487-1.098,2.487-2.415c0-1.391-1.096-2.414-2.487-2.414c-1.316,0-2.413,1.023-2.413,2.414
		C478.234,142.428,479.331,143.525,480.647,143.525L480.647,143.525z"/>
	<path fill-rule="evenodd" clip-rule="evenodd" fill="none" stroke="#000000" stroke-width="0.504" stroke-miterlimit="2.4142" d="
		M502.219,143.525c1.392,0,2.491-1.098,2.491-2.415c0-1.391-1.1-2.414-2.491-2.414c-1.316,0-2.413,1.023-2.413,2.414
		C499.806,142.428,500.902,143.525,502.219,143.525L502.219,143.525z"/>
	<path fill-rule="evenodd" clip-rule="evenodd" fill="none" stroke="#000000" stroke-width="0.504" stroke-miterlimit="2.4142" d="
		M491.435,143.525c1.389,0,2.488-1.098,2.488-2.415c0-1.391-1.1-2.414-2.488-2.414c-1.316,0-2.416,1.023-2.416,2.414
		C489.019,142.428,490.118,143.525,491.435,143.525L491.435,143.525z"/>
</g>
<g>
	<path fill-rule="evenodd" clip-rule="evenodd" fill="none" stroke="#000000" stroke-width="0.504" stroke-miterlimit="2.4142" d="
		M480.647,152.863c1.392,0,2.487-1.098,2.487-2.415c0-1.391-1.096-2.414-2.487-2.414c-1.316,0-2.413,1.023-2.413,2.414
		C478.234,151.766,479.331,152.863,480.647,152.863L480.647,152.863z"/>
	<path fill-rule="evenodd" clip-rule="evenodd" fill="none" stroke="#000000" stroke-width="0.504" stroke-miterlimit="2.4142" d="
		M502.219,152.863c1.392,0,2.491-1.098,2.491-2.415c0-1.391-1.1-2.414-2.491-2.414c-1.316,0-2.413,1.023-2.413,2.414
		C499.806,151.766,500.902,152.863,502.219,152.863L502.219,152.863z"/>
	<path fill-rule="evenodd" clip-rule="evenodd" fill="none" stroke="#000000" stroke-width="0.504" stroke-miterlimit="2.4142" d="
		M491.435,152.863c1.389,0,2.488-1.098,2.488-2.415c0-1.391-1.1-2.414-2.488-2.414c-1.316,0-2.416,1.023-2.416,2.414
		C489.019,151.766,490.118,152.863,491.435,152.863L491.435,152.863z"/>
</g>
<g>
	<path fill-rule="evenodd" clip-rule="evenodd" fill="none" stroke="#000000" stroke-width="0.504" stroke-miterlimit="2.4142" d="
		M496.826,110.844c1.317,0,2.414-1.098,2.414-2.414c0-1.317-1.097-2.415-2.414-2.415c-1.316,0-2.412,1.098-2.412,2.415
		C494.414,109.746,495.51,110.844,496.826,110.844L496.826,110.844z"/>
	<path fill-rule="evenodd" clip-rule="evenodd" fill="none" stroke="#000000" stroke-width="0.504" stroke-miterlimit="2.4142" d="
		M486.039,110.844c1.32,0,2.417-1.098,2.417-2.414c0-1.317-1.097-2.415-2.417-2.415c-1.316,0-2.412,1.098-2.412,2.415
		C483.627,109.746,484.723,110.844,486.039,110.844L486.039,110.844z"/>
</g>
<g>
	<path fill-rule="evenodd" clip-rule="evenodd" fill="none" stroke="#000000" stroke-width="0.504" stroke-miterlimit="2.4142" d="
		M496.826,185.545c1.317,0,2.414-1.098,2.414-2.415c0-1.316-1.097-2.414-2.414-2.414c-1.316,0-2.412,1.098-2.412,2.414
		C494.414,184.447,495.51,185.545,496.826,185.545L496.826,185.545z"/>
	<path fill-rule="evenodd" clip-rule="evenodd" fill="none" stroke="#000000" stroke-width="0.504" stroke-miterlimit="2.4142" d="
		M486.039,185.545c1.32,0,2.417-1.098,2.417-2.415c0-1.316-1.097-2.414-2.417-2.414c-1.316,0-2.412,1.098-2.412,2.414
		C483.627,184.447,484.723,185.545,486.039,185.545L486.039,185.545z"/>
</g>
<g>
	<path fill-rule="evenodd" clip-rule="evenodd" fill="none" stroke="#000000" stroke-width="0.504" stroke-miterlimit="2.4142" d="
		M496.826,129.519c1.317,0,2.414-1.098,2.414-2.415c0-1.316-1.097-2.414-2.414-2.414c-1.316,0-2.412,1.098-2.412,2.414
		C494.414,128.421,495.51,129.519,496.826,129.519L496.826,129.519z"/>
	<path fill-rule="evenodd" clip-rule="evenodd" fill="none" stroke="#000000" stroke-width="0.504" stroke-miterlimit="2.4142" d="
		M486.039,129.519c1.32,0,2.417-1.098,2.417-2.415c0-1.316-1.097-2.414-2.417-2.414c-1.316,0-2.412,1.098-2.412,2.414
		C483.627,128.421,484.723,129.519,486.039,129.519L486.039,129.519z"/>
</g>
<g>
	<path fill-rule="evenodd" clip-rule="evenodd" fill="none" stroke="#000000" stroke-width="0.504" stroke-miterlimit="2.4142" d="
		M496.826,120.182c1.317,0,2.414-1.098,2.414-2.415c0-1.316-1.097-2.414-2.414-2.414c-1.316,0-2.412,1.098-2.412,2.414
		C494.414,119.084,495.51,120.182,496.826,120.182L496.826,120.182z"/>
	<path fill-rule="evenodd" clip-rule="evenodd" fill="none" stroke="#000000" stroke-width="0.504" stroke-miterlimit="2.4142" d="
		M486.039,120.182c1.32,0,2.417-1.098,2.417-2.415c0-1.316-1.097-2.414-2.417-2.414c-1.316,0-2.412,1.098-2.412,2.414
		C483.627,119.084,484.723,120.182,486.039,120.182L486.039,120.182z"/>
</g>
<g>
	<path fill-rule="evenodd" clip-rule="evenodd" fill="none" stroke="#000000" stroke-width="0.504" stroke-miterlimit="2.4142" d="
		M496.826,176.208c1.317,0,2.414-1.098,2.414-2.414c0-1.317-1.097-2.415-2.414-2.415c-1.316,0-2.412,1.098-2.412,2.415
		C494.414,175.11,495.51,176.208,496.826,176.208L496.826,176.208z"/>
	<path fill-rule="evenodd" clip-rule="evenodd" fill="none" stroke="#000000" stroke-width="0.504" stroke-miterlimit="2.4142" d="
		M486.039,176.208c1.32,0,2.417-1.098,2.417-2.414c0-1.317-1.097-2.415-2.417-2.415c-1.316,0-2.412,1.098-2.412,2.415
		C483.627,175.11,484.723,176.208,486.039,176.208L486.039,176.208z"/>
</g>
<g>
	<path fill-rule="evenodd" clip-rule="evenodd" fill="none" stroke="#000000" stroke-width="0.504" stroke-miterlimit="2.4142" d="
		M496.826,166.87c1.317,0,2.414-1.098,2.414-2.414c0-1.317-1.097-2.415-2.414-2.415c-1.316,0-2.412,1.098-2.412,2.415
		C494.414,165.772,495.51,166.87,496.826,166.87L496.826,166.87z"/>
	<path fill-rule="evenodd" clip-rule="evenodd" fill="none" stroke="#000000" stroke-width="0.504" stroke-miterlimit="2.4142" d="
		M486.039,166.87c1.32,0,2.417-1.098,2.417-2.414c0-1.317-1.097-2.415-2.417-2.415c-1.316,0-2.412,1.098-2.412,2.415
		C483.627,165.772,484.723,166.87,486.039,166.87L486.039,166.87z"/>
</g>
<g>
	<path fill-rule="evenodd" clip-rule="evenodd" fill="none" stroke="#000000" stroke-width="0.504" stroke-miterlimit="2.4142" d="
		M496.826,157.532c1.317,0,2.414-1.098,2.414-2.415c0-1.316-1.097-2.414-2.414-2.414c-1.316,0-2.412,1.098-2.412,2.414
		C494.414,156.435,495.51,157.532,496.826,157.532L496.826,157.532z"/>
	<path fill-rule="evenodd" clip-rule="evenodd" fill="none" stroke="#000000" stroke-width="0.504" stroke-miterlimit="2.4142" d="
		M486.039,157.532c1.32,0,2.417-1.098,2.417-2.415c0-1.316-1.097-2.414-2.417-2.414c-1.316,0-2.412,1.098-2.412,2.414
		C483.627,156.435,484.723,157.532,486.039,157.532L486.039,157.532z"/>
</g>
<g>
	<path fill-rule="evenodd" clip-rule="evenodd" fill="none" stroke="#000000" stroke-width="0.504" stroke-miterlimit="2.4142" d="
		M496.826,148.194c1.317,0,2.414-1.098,2.414-2.415c0-1.316-1.097-2.414-2.414-2.414c-1.316,0-2.412,1.098-2.412,2.414
		C494.414,147.097,495.51,148.194,496.826,148.194L496.826,148.194z"/>
	<path fill-rule="evenodd" clip-rule="evenodd" fill="none" stroke="#000000" stroke-width="0.504" stroke-miterlimit="2.4142" d="
		M486.039,148.194c1.32,0,2.417-1.098,2.417-2.415c0-1.316-1.097-2.414-2.417-2.414c-1.316,0-2.412,1.098-2.412,2.414
		C483.627,147.097,484.723,148.194,486.039,148.194L486.039,148.194z"/>
</g>
<g>
	<path fill-rule="evenodd" clip-rule="evenodd" fill="none" stroke="#000000" stroke-width="0.504" stroke-miterlimit="2.4142" d="
		M496.826,138.857c1.317,0,2.414-1.098,2.414-2.415c0-1.316-1.097-2.414-2.414-2.414c-1.316,0-2.412,1.098-2.412,2.414
		C494.414,137.759,495.51,138.857,496.826,138.857L496.826,138.857z"/>
	<path fill-rule="evenodd" clip-rule="evenodd" fill="none" stroke="#000000" stroke-width="0.504" stroke-miterlimit="2.4142" d="
		M486.039,138.857c1.32,0,2.417-1.098,2.417-2.415c0-1.316-1.097-2.414-2.417-2.414c-1.316,0-2.412,1.098-2.412,2.414
		C483.627,137.759,484.723,138.857,486.039,138.857L486.039,138.857z"/>
</g>
</svg>
