<?xml version="1.0" encoding="utf-8"?>
<!-- Generator: Adobe Illustrator 15.0.2, SVG Export Plug-In . SVG Version: 6.00 Build 0)  -->
<!DOCTYPE svg PUBLIC "-//W3C//DTD SVG 1.1//EN" "http://www.w3.org/Graphics/SVG/1.1/DTD/svg11.dtd">
<svg version="1.1" id="Armor" xmlns="http://www.w3.org/2000/svg" xmlns:xlink="http://www.w3.org/1999/xlink" x="0px" y="0px"
	 width="612px" height="792px" viewBox="0 0 612 792" enable-background="new 0 0 612 792" xml:space="preserve">
<g>
	<path fill="none" stroke="#000000" stroke-width="0.504" stroke-miterlimit="2.4142" d="M491.235,365.042
		c1.129,0,2.062-0.93,2.062-2.061c0-1.132-0.933-1.995-2.062-1.995c-1.135,0-1.996,0.863-1.996,1.995
		C489.239,364.112,490.102,365.042,491.235,365.042L491.235,365.042z"/>
</g>
<g>
	<path fill="none" stroke="#000000" stroke-width="0.504" stroke-miterlimit="2.4142" d="M491.234,320.317
		c1.13,0,2.063-0.93,2.063-2.062c0-1.13-0.933-1.995-2.063-1.995c-1.129,0-1.995,0.865-1.995,1.995
		C489.239,319.387,490.105,320.317,491.234,320.317L491.234,320.317z"/>
</g>
</svg>
