<?xml version="1.0" encoding="utf-8"?>
<!-- Generator: Adobe Illustrator 15.0.2, SVG Export Plug-In . SVG Version: 6.00 Build 0)  -->
<!DOCTYPE svg PUBLIC "-//W3C//DTD SVG 1.1//EN" "http://www.w3.org/Graphics/SVG/1.1/DTD/svg11.dtd">
<svg version="1.1" id="Armor" xmlns="http://www.w3.org/2000/svg" xmlns:xlink="http://www.w3.org/1999/xlink" x="0px" y="0px"
	 width="612px" height="792px" viewBox="0 0 612 792" enable-background="new 0 0 612 792" xml:space="preserve">
<path fill="#FFFFFF" stroke="#000000" stroke-width="2" d="M457.21,263.879"/>
<g>
	<path fill-rule="evenodd" clip-rule="evenodd" fill="none" stroke="#000000" stroke-width="0.504" stroke-miterlimit="2.4142" d="
		M480.648,161.868c1.391,0,2.412-1.099,2.412-2.415c0-1.315-1.021-2.414-2.412-2.414c-1.317,0-2.414,1.099-2.414,2.414
		C478.234,160.769,479.331,161.868,480.648,161.868L480.648,161.868z"/>
	<path fill-rule="evenodd" clip-rule="evenodd" fill="none" stroke="#000000" stroke-width="0.504" stroke-miterlimit="2.4142" d="
		M502.223,161.868c1.388,0,2.412-1.099,2.412-2.415c0-1.315-1.024-2.414-2.412-2.414c-1.317,0-2.417,1.099-2.417,2.414
		C499.806,160.769,500.905,161.868,502.223,161.868L502.223,161.868z"/>
	<path fill-rule="evenodd" clip-rule="evenodd" fill="none" stroke="#000000" stroke-width="0.504" stroke-miterlimit="2.4142" d="
		M491.436,161.868c1.388,0,2.412-1.099,2.412-2.415c0-1.315-1.024-2.414-2.412-2.414c-1.317,0-2.417,1.099-2.417,2.414
		C489.019,160.769,490.118,161.868,491.436,161.868L491.436,161.868z"/>
</g>
<g>
	<path fill-rule="evenodd" clip-rule="evenodd" fill="none" stroke="#000000" stroke-width="0.504" stroke-miterlimit="2.4142" d="
		M480.648,184.545c1.391,0,2.412-1.099,2.412-2.415c0-1.315-1.021-2.414-2.412-2.414c-1.317,0-2.414,1.099-2.414,2.414
		C478.234,183.446,479.331,184.545,480.648,184.545L480.648,184.545z"/>
	<path fill-rule="evenodd" clip-rule="evenodd" fill="none" stroke="#000000" stroke-width="0.504" stroke-miterlimit="2.4142" d="
		M502.223,184.545c1.388,0,2.412-1.099,2.412-2.415c0-1.315-1.024-2.414-2.412-2.414c-1.317,0-2.417,1.099-2.417,2.414
		C499.806,183.446,500.905,184.545,502.223,184.545L502.223,184.545z"/>
	<path fill-rule="evenodd" clip-rule="evenodd" fill="none" stroke="#000000" stroke-width="0.504" stroke-miterlimit="2.4142" d="
		M491.436,184.545c1.388,0,2.412-1.099,2.412-2.415c0-1.315-1.024-2.414-2.412-2.414c-1.317,0-2.417,1.099-2.417,2.414
		C489.019,183.446,490.118,184.545,491.436,184.545L491.436,184.545z"/>
</g>
<g>
	<path fill-rule="evenodd" clip-rule="evenodd" fill="none" stroke="#000000" stroke-width="0.504" stroke-miterlimit="2.4142" d="
		M480.648,173.206c1.391,0,2.412-1.099,2.412-2.415s-1.021-2.414-2.412-2.414c-1.317,0-2.414,1.098-2.414,2.414
		S479.331,173.206,480.648,173.206L480.648,173.206z"/>
	<path fill-rule="evenodd" clip-rule="evenodd" fill="none" stroke="#000000" stroke-width="0.504" stroke-miterlimit="2.4142" d="
		M502.223,173.206c1.388,0,2.412-1.099,2.412-2.415s-1.024-2.414-2.412-2.414c-1.317,0-2.417,1.098-2.417,2.414
		S500.905,173.206,502.223,173.206L502.223,173.206z"/>
	<path fill-rule="evenodd" clip-rule="evenodd" fill="none" stroke="#000000" stroke-width="0.504" stroke-miterlimit="2.4142" d="
		M491.436,173.206c1.388,0,2.412-1.099,2.412-2.415s-1.024-2.414-2.412-2.414c-1.317,0-2.417,1.098-2.417,2.414
		S490.118,173.206,491.436,173.206L491.436,173.206z"/>
</g>
<g>
	<path fill-rule="evenodd" clip-rule="evenodd" fill="none" stroke="#000000" stroke-width="0.504" stroke-miterlimit="2.4142" d="
		M480.647,127.852c1.392,0,2.487-1.098,2.487-2.415c0-1.391-1.096-2.414-2.487-2.414c-1.316,0-2.413,1.023-2.413,2.414
		C478.234,126.754,479.331,127.852,480.647,127.852L480.647,127.852z"/>
	<path fill-rule="evenodd" clip-rule="evenodd" fill="none" stroke="#000000" stroke-width="0.504" stroke-miterlimit="2.4142" d="
		M502.219,127.852c1.392,0,2.491-1.098,2.491-2.415c0-1.391-1.1-2.414-2.491-2.414c-1.316,0-2.413,1.023-2.413,2.414
		C499.806,126.754,500.902,127.852,502.219,127.852L502.219,127.852z"/>
	<path fill-rule="evenodd" clip-rule="evenodd" fill="none" stroke="#000000" stroke-width="0.504" stroke-miterlimit="2.4142" d="
		M491.435,127.852c1.389,0,2.488-1.098,2.488-2.415c0-1.391-1.1-2.414-2.488-2.414c-1.316,0-2.416,1.023-2.416,2.414
		C489.019,126.754,490.118,127.852,491.435,127.852L491.435,127.852z"/>
</g>
<g>
	<path fill-rule="evenodd" clip-rule="evenodd" fill="none" stroke="#000000" stroke-width="0.504" stroke-miterlimit="2.4142" d="
		M480.647,116.513c1.392,0,2.487-1.098,2.487-2.415c0-1.391-1.096-2.414-2.487-2.414c-1.316,0-2.413,1.023-2.413,2.414
		C478.234,115.416,479.331,116.513,480.647,116.513L480.647,116.513z"/>
	<path fill-rule="evenodd" clip-rule="evenodd" fill="none" stroke="#000000" stroke-width="0.504" stroke-miterlimit="2.4142" d="
		M502.219,116.513c1.392,0,2.491-1.098,2.491-2.415c0-1.391-1.1-2.414-2.491-2.414c-1.316,0-2.413,1.023-2.413,2.414
		C499.806,115.416,500.902,116.513,502.219,116.513L502.219,116.513z"/>
	<path fill-rule="evenodd" clip-rule="evenodd" fill="none" stroke="#000000" stroke-width="0.504" stroke-miterlimit="2.4142" d="
		M491.435,116.513c1.389,0,2.488-1.098,2.488-2.415c0-1.391-1.1-2.414-2.488-2.414c-1.316,0-2.416,1.023-2.416,2.414
		C489.019,115.416,490.118,116.513,491.435,116.513L491.435,116.513z"/>
</g>
<g>
	<path fill-rule="evenodd" clip-rule="evenodd" fill="none" stroke="#000000" stroke-width="0.504" stroke-miterlimit="2.4142" d="
		M480.647,139.19c1.392,0,2.487-1.098,2.487-2.415c0-1.391-1.096-2.414-2.487-2.414c-1.316,0-2.413,1.023-2.413,2.414
		C478.234,138.093,479.331,139.19,480.647,139.19L480.647,139.19z"/>
	<path fill-rule="evenodd" clip-rule="evenodd" fill="none" stroke="#000000" stroke-width="0.504" stroke-miterlimit="2.4142" d="
		M502.219,139.19c1.392,0,2.491-1.098,2.491-2.415c0-1.391-1.1-2.414-2.491-2.414c-1.316,0-2.413,1.023-2.413,2.414
		C499.806,138.093,500.902,139.19,502.219,139.19L502.219,139.19z"/>
	<path fill-rule="evenodd" clip-rule="evenodd" fill="none" stroke="#000000" stroke-width="0.504" stroke-miterlimit="2.4142" d="
		M491.435,139.19c1.389,0,2.488-1.098,2.488-2.415c0-1.391-1.1-2.414-2.488-2.414c-1.316,0-2.416,1.023-2.416,2.414
		C489.019,138.093,490.118,139.19,491.435,139.19L491.435,139.19z"/>
</g>
<g>
	<path fill-rule="evenodd" clip-rule="evenodd" fill="none" stroke="#000000" stroke-width="0.504" stroke-miterlimit="2.4142" d="
		M480.647,150.529c1.392,0,2.487-1.098,2.487-2.415c0-1.391-1.096-2.414-2.487-2.414c-1.316,0-2.413,1.023-2.413,2.414
		C478.234,149.431,479.331,150.529,480.647,150.529L480.647,150.529z"/>
	<path fill-rule="evenodd" clip-rule="evenodd" fill="none" stroke="#000000" stroke-width="0.504" stroke-miterlimit="2.4142" d="
		M502.219,150.529c1.392,0,2.491-1.098,2.491-2.415c0-1.391-1.1-2.414-2.491-2.414c-1.316,0-2.413,1.023-2.413,2.414
		C499.806,149.431,500.902,150.529,502.219,150.529L502.219,150.529z"/>
	<path fill-rule="evenodd" clip-rule="evenodd" fill="none" stroke="#000000" stroke-width="0.504" stroke-miterlimit="2.4142" d="
		M491.435,150.529c1.389,0,2.488-1.098,2.488-2.415c0-1.391-1.1-2.414-2.488-2.414c-1.316,0-2.416,1.023-2.416,2.414
		C489.019,149.431,490.118,150.529,491.435,150.529L491.435,150.529z"/>
</g>
<g>
	<path fill-rule="evenodd" clip-rule="evenodd" fill="none" stroke="#000000" stroke-width="0.504" stroke-miterlimit="2.4142" d="
		M496.826,190.214c1.317,0,2.414-1.098,2.414-2.415s-1.097-2.415-2.414-2.415c-1.316,0-2.412,1.098-2.412,2.415
		S495.51,190.214,496.826,190.214L496.826,190.214z"/>
	<path fill-rule="evenodd" clip-rule="evenodd" fill="none" stroke="#000000" stroke-width="0.504" stroke-miterlimit="2.4142" d="
		M486.039,190.214c1.32,0,2.417-1.098,2.417-2.415s-1.097-2.415-2.417-2.415c-1.316,0-2.412,1.098-2.412,2.415
		S484.723,190.214,486.039,190.214L486.039,190.214z"/>
</g>
<g>
	<path fill-rule="evenodd" clip-rule="evenodd" fill="none" stroke="#000000" stroke-width="0.504" stroke-miterlimit="2.4142" d="
		M496.826,122.183c1.317,0,2.414-1.098,2.414-2.415s-1.097-2.415-2.414-2.415c-1.316,0-2.412,1.098-2.412,2.415
		S495.51,122.183,496.826,122.183L496.826,122.183z"/>
	<path fill-rule="evenodd" clip-rule="evenodd" fill="none" stroke="#000000" stroke-width="0.504" stroke-miterlimit="2.4142" d="
		M486.039,122.183c1.32,0,2.417-1.098,2.417-2.415s-1.097-2.415-2.417-2.415c-1.316,0-2.412,1.098-2.412,2.415
		S484.723,122.183,486.039,122.183L486.039,122.183z"/>
</g>
<g>
	<path fill-rule="evenodd" clip-rule="evenodd" fill="none" stroke="#000000" stroke-width="0.504" stroke-miterlimit="2.4142" d="
		M496.826,110.844c1.317,0,2.414-1.098,2.414-2.415s-1.097-2.415-2.414-2.415c-1.316,0-2.412,1.098-2.412,2.415
		S495.51,110.844,496.826,110.844L496.826,110.844z"/>
	<path fill-rule="evenodd" clip-rule="evenodd" fill="none" stroke="#000000" stroke-width="0.504" stroke-miterlimit="2.4142" d="
		M486.039,110.844c1.32,0,2.417-1.098,2.417-2.415s-1.097-2.415-2.417-2.415c-1.316,0-2.412,1.098-2.412,2.415
		S484.723,110.844,486.039,110.844L486.039,110.844z"/>
</g>
<g>
	<path fill-rule="evenodd" clip-rule="evenodd" fill="none" stroke="#000000" stroke-width="0.504" stroke-miterlimit="2.4142" d="
		M496.826,178.875c1.317,0,2.414-1.098,2.414-2.415s-1.097-2.415-2.414-2.415c-1.316,0-2.412,1.098-2.412,2.415
		S495.51,178.875,496.826,178.875L496.826,178.875z"/>
	<path fill-rule="evenodd" clip-rule="evenodd" fill="none" stroke="#000000" stroke-width="0.504" stroke-miterlimit="2.4142" d="
		M486.039,178.875c1.32,0,2.417-1.098,2.417-2.415s-1.097-2.415-2.417-2.415c-1.316,0-2.412,1.098-2.412,2.415
		S484.723,178.875,486.039,178.875L486.039,178.875z"/>
</g>
<g>
	<path fill-rule="evenodd" clip-rule="evenodd" fill="none" stroke="#000000" stroke-width="0.504" stroke-miterlimit="2.4142" d="
		M496.826,167.537c1.317,0,2.414-1.098,2.414-2.415s-1.097-2.415-2.414-2.415c-1.316,0-2.412,1.098-2.412,2.415
		S495.51,167.537,496.826,167.537L496.826,167.537z"/>
	<path fill-rule="evenodd" clip-rule="evenodd" fill="none" stroke="#000000" stroke-width="0.504" stroke-miterlimit="2.4142" d="
		M486.039,167.537c1.32,0,2.417-1.098,2.417-2.415s-1.097-2.415-2.417-2.415c-1.316,0-2.412,1.098-2.412,2.415
		S484.723,167.537,486.039,167.537L486.039,167.537z"/>
</g>
<g>
	<path fill-rule="evenodd" clip-rule="evenodd" fill="none" stroke="#000000" stroke-width="0.504" stroke-miterlimit="2.4142" d="
		M496.826,156.198c1.317,0,2.414-1.098,2.414-2.415c0-1.316-1.097-2.414-2.414-2.414c-1.316,0-2.412,1.098-2.412,2.414
		C494.414,155.101,495.51,156.198,496.826,156.198L496.826,156.198z"/>
	<path fill-rule="evenodd" clip-rule="evenodd" fill="none" stroke="#000000" stroke-width="0.504" stroke-miterlimit="2.4142" d="
		M486.039,156.198c1.32,0,2.417-1.098,2.417-2.415c0-1.316-1.097-2.414-2.417-2.414c-1.316,0-2.412,1.098-2.412,2.414
		C483.627,155.101,484.723,156.198,486.039,156.198L486.039,156.198z"/>
</g>
<g>
	<path fill-rule="evenodd" clip-rule="evenodd" fill="none" stroke="#000000" stroke-width="0.504" stroke-miterlimit="2.4142" d="
		M496.826,144.86c1.317,0,2.414-1.098,2.414-2.415c0-1.316-1.097-2.414-2.414-2.414c-1.316,0-2.412,1.098-2.412,2.414
		C494.414,143.762,495.51,144.86,496.826,144.86L496.826,144.86z"/>
	<path fill-rule="evenodd" clip-rule="evenodd" fill="none" stroke="#000000" stroke-width="0.504" stroke-miterlimit="2.4142" d="
		M486.039,144.86c1.32,0,2.417-1.098,2.417-2.415c0-1.316-1.097-2.414-2.417-2.414c-1.316,0-2.412,1.098-2.412,2.414
		C483.627,143.762,484.723,144.86,486.039,144.86L486.039,144.86z"/>
</g>
<g>
	<path fill-rule="evenodd" clip-rule="evenodd" fill="none" stroke="#000000" stroke-width="0.504" stroke-miterlimit="2.4142" d="
		M496.826,133.521c1.317,0,2.414-1.098,2.414-2.415c0-1.316-1.097-2.414-2.414-2.414c-1.316,0-2.412,1.098-2.412,2.414
		C494.414,132.423,495.51,133.521,496.826,133.521L496.826,133.521z"/>
	<path fill-rule="evenodd" clip-rule="evenodd" fill="none" stroke="#000000" stroke-width="0.504" stroke-miterlimit="2.4142" d="
		M486.039,133.521c1.32,0,2.417-1.098,2.417-2.415c0-1.316-1.097-2.414-2.417-2.414c-1.316,0-2.412,1.098-2.412,2.414
		C483.627,132.423,484.723,133.521,486.039,133.521L486.039,133.521z"/>
</g>
</svg>
